<svg width="1918" height="819" viewBox="0 0 1918 819" fill="none" xmlns="http://www.w3.org/2000/svg">
<g clip-path="url(#clip0_2159_96)">
<path fill-rule="evenodd" clip-rule="evenodd" d="M1878.45 756.572V696.752L1854.1 672.517V648.282H1841.9V662.662H1837.37V751.281H1805.42V652.079H1781.76V633.903H1766.41V640.69H1755.75V652.194H1743.55V634.018H1722.99V645.521H1705.5V725.358H1695.87V666.535H1686.71V657.716H1674.55V585.778H1670.14V542.6H1663.96V522.967L1632.09 491.254L1625.99 433.543V492.596L1601.25 517.215L1597.07 521.51V543.482H1592.5V585.893H1584.22V676.007H1568.88V507.743H1548.35V481.246H1497.34V469.742C1497.34 469.742 1460.82 467.48 1460.82 469.742V654.533H1438.73V558.667H1391.97L1356.65 593.831V384.498H1342.57L1341.73 349.987L1339.54 384.153H1327.23L1325.31 329.778V384.307H1307.82V537.308H1294.85V519.861H1267.47V535.774H1262.02V553.184H1247.56V575.923H1227.88V563.691H1205.83V593.984H1189.14V584.129L1172.3 567.525H1163.94V541.833C1163.94 537.998 1133.49 541.833 1133.49 541.833V587.273L1112.93 566.835H1094.67V612.275H1076.41V594.828H1070.24V612.275C1070.24 615.305 1064.14 612.275 1064.14 612.275V542.6H970.507V682.564H946.918V569.097H940.09V558.514H902.615V685.708H892.719C888.423 618.909 879.333 473.807 877.952 412.99C876.111 332.769 875.765 301.133 875.765 301.133C875.765 301.133 886.352 301.133 889.459 298.488C890.793 297.41 891.841 296.021 892.51 294.443C893.179 292.864 893.448 291.145 893.295 289.438C892.802 287.752 891.966 286.185 890.84 284.836C892.133 284.356 893.264 283.518 894.1 282.42C894.699 281.626 895.096 280.698 895.256 279.716C895.417 278.734 895.336 277.727 895.021 276.784L894.177 275.441C894.177 275.441 895.021 275.441 895.443 274.138C895.657 273.245 895.59 272.307 895.251 271.453C895.591 270.206 895.695 268.905 895.558 267.619C895.256 266.234 894.668 264.928 893.832 263.784C894.184 262.219 894.036 260.583 893.41 259.106C891.949 257.155 890.093 255.535 887.963 254.351C888.049 252.681 887.747 251.014 887.081 249.481C886.122 247.986 882.056 246.989 879.141 246.183L875.957 245.34L874.883 245.033V238.476H876.379V228.467H871.623L870.779 150.433C871.752 149.996 872.688 149.483 873.579 148.899C874.473 147.989 875.054 146.82 875.24 145.559C875.427 144.298 875.208 143.01 874.615 141.881C873.239 140.547 871.53 139.607 869.667 139.159L869.36 85.0139L867.979 82.5213L867.289 62.7729L866.368 59.4752L866.138 38.5381C866.138 38.5381 867.173 37.0043 866.982 36.4291C866.725 35.7967 866.404 35.1927 866.023 34.6268L864.565 0.115122L863.683 -0.22998L862.762 0.115122L861.343 34.6268C860.961 35.1983 860.627 35.8013 860.346 36.4291C860.346 37.0043 861.228 38.5381 861.228 38.5381L860.998 59.4752L860.078 62.7729L859.387 82.5213L858.006 85.0139L857.699 139.159C855.836 139.607 854.127 140.547 852.751 141.881C852.137 142.971 851.877 144.224 852.007 145.468C852.138 146.712 852.653 147.884 853.48 148.822C854.371 149.407 855.308 149.92 856.28 150.356L855.436 228.544H850.718V238.552H852.214V245.11L851.14 245.416L847.957 246.26C845.003 247.065 840.976 248.062 840.017 249.558C839.35 251.091 839.048 252.758 839.135 254.428C836.99 255.607 835.121 257.228 833.65 259.183C833.036 260.664 832.902 262.3 833.266 263.861C832.43 265.005 831.842 266.311 831.54 267.696C831.401 268.98 831.492 270.278 831.808 271.53C831.519 272.401 831.519 273.343 831.808 274.214C832.192 275.595 833.074 275.518 833.074 275.518L832.23 276.86C831.916 277.802 831.832 278.805 831.986 279.786C832.139 280.767 832.526 281.697 833.113 282.497C833.963 283.581 835.089 284.415 836.373 284.913C835.249 286.257 834.425 287.826 833.956 289.515C833.799 291.222 834.067 292.942 834.736 294.521C835.406 296.1 836.455 297.489 837.792 298.564C840.899 301.095 851.524 301.21 851.524 301.21C851.524 301.21 851.179 332.846 849.338 413.066C848.494 449.112 844.965 514.722 841.359 576.153V563.691H823.063V553.836H815.392V561.505H800.931V666.497H795.599V678.001H786.394V594.368H779.144L770.399 585.625L762.037 593.984H734.612V666.42H720.919V608.479H701.126V675.892H693.455V687.396H682.83V666.689H676.731C659.804 647.536 639.101 632.087 615.92 621.311C592.738 610.535 567.58 604.665 542.022 604.069C516.721 603.349 491.609 608.635 468.746 619.493C445.884 630.351 425.921 646.473 410.496 666.535H405.931V695.563H395.153V617.567H354.034V630.451H348.703V717.536H331.212V582.864H326.111V552.187L309.732 535.889H281.732V590.533H241.725V654.686H229.95V587.273H226.114V594.099H213.226V619.83C213.226 622.092 190.212 619.83 190.212 619.83V535.774H162.211V516.831H159.181V535.007H136.167V638.773H119.597V681.184H107.476V655.415H100.572V484.275H86.1113V471.391H52.5874V478.217H43.4584V628.151H28.1156V682.564H16.6086V700.74H7.74811V716.079H0.0767212V819.077H1917.92V756.572H1878.45Z" fill="black" stroke="black"/>
</g>
<defs>
<clipPath id="clip0_2159_96">
<rect width="1918" height="819" fill="white"/>
</clipPath>
</defs>
</svg>
