<svg xmlns="http://www.w3.org/2000/svg" width="1817.75" height="548.371" viewBox="0 0 1817.75 548.371">
  <g id="Group_8729" data-name="Group 8729" transform="translate(900 -258)">
          <g id="Group_8715" data-name="Group 8715" transform="translate(586.841 163.521)">
            <g id="Group_8714" data-name="Group 8714" transform="translate(166.173 210.581)">
              <rect id="Rectangle_916" data-name="Rectangle 916" width="1.326" height="301.493" transform="translate(17.652 125.962)" fill="black"/>
              <rect id="Rectangle_917" data-name="Rectangle 917" width="1.327" height="301.493" transform="translate(23.787 125.962)" fill="black"/>
              <rect id="Rectangle_918" data-name="Rectangle 918" width="1.327" height="301.493" transform="translate(20.663 125.962)" fill="black"/>
              <rect id="Rectangle_919" data-name="Rectangle 919" width="36.434" height="0.638" transform="translate(3.096 89.771)" fill="black"/>
              <rect id="Rectangle_920" data-name="Rectangle 920" width="41.326" height="0.638" transform="translate(0 115.975)" fill="black"/>
              <rect id="Rectangle_921" data-name="Rectangle 921" width="28.435" height="0.638" transform="translate(7.13 81.21)" fill="black"/>
              <rect id="Rectangle_922" data-name="Rectangle 922" width="20.047" height="0.638" transform="translate(11.525 72.153)" fill="black"/>
              <rect id="Rectangle_923" data-name="Rectangle 923" width="40.993" height="0.713" transform="translate(0.83 92.23)" fill="black"/>
              <rect id="Rectangle_924" data-name="Rectangle 924" width="40.993" height="0.713" transform="translate(0.83 93.555)" fill="black"/>
              <rect id="Rectangle_925" data-name="Rectangle 925" width="34.277" height="0.713" transform="translate(4.209 85.911)" fill="black"/>
              <rect id="Rectangle_926" data-name="Rectangle 926" width="34.277" height="0.713" transform="translate(4.209 87.236)" fill="black"/>
              <rect id="Rectangle_927" data-name="Rectangle 927" width="24.018" height="0.713" transform="translate(9.305 75.108)" fill="black"/>
              <rect id="Rectangle_928" data-name="Rectangle 928" width="24.018" height="0.713" transform="translate(9.305 76.433)" fill="black"/>
              <rect id="Rectangle_929" data-name="Rectangle 929" width="16.644" height="0.713" transform="translate(13.024 67.465)" fill="black"/>
              <rect id="Rectangle_930" data-name="Rectangle 930" width="16.644" height="0.713" transform="translate(13.024 68.79)" fill="black"/>
              <rect id="Rectangle_931" data-name="Rectangle 931" width="1.075" height="64.663" transform="translate(16.169)" fill="black"/>
              <rect id="Rectangle_932" data-name="Rectangle 932" width="1.075" height="64.663" transform="translate(20.789)" fill="black"/>
              <rect id="Rectangle_933" data-name="Rectangle 933" width="1.075" height="64.663" transform="translate(25.339)" fill="black"/>
            </g>
            <path id="Path_7098" data-name="Path 7098" d="M217.159,315.863a10.943,10.943,0,0,0-9.177-10.784v-6.614h-3.336V287.74h-5.163v-7.626h-3.654V212.9a8.309,8.309,0,0,0-4.053-7.12V152.369a4.236,4.236,0,0,0-3.1-4.05V112.33h-2.382v35.989a4.239,4.239,0,0,0-3.1,4.05v53.415a8.307,8.307,0,0,0-4.05,7.12v67.21h-3.654v7.626h-5.166v10.725h-3.336v6.614a10.945,10.945,0,0,0,1.788,21.746h.636a4.092,4.092,0,1,0,0,8.184h9.174l-7.626,306.969H204.01l-7.626-306.969h9.177a4.092,4.092,0,0,0,0-8.184h.633A10.964,10.964,0,0,0,217.159,315.863Z" transform="translate(0 0)" fill="none" stroke="black" stroke-miterlimit="10" stroke-width="0.5"/>
          </g>          
  </g>
</svg>
