<?xml version="1.0" encoding="UTF-8" standalone="no"?>
<svg 
  version="1.1" 
  xmlns="http://www.w3.org/2000/svg" 
  xmlns:xlink="http://www.w3.org/1999/xlink" 
  xmlns:svg="http://www.w3.org/2000/svg"
  xmlns:rdf="http://www.w3.org/1999/02/22-rdf-syntax-ns#"
  xmlns:cc="http://creativecommons.org/ns#"
  xmlns:dc="http://purl.org/dc/elements/1.1/"
  viewBox="0 0 768 768"
  width="768"
  height="768"
>
<metadata id="metadata1">
Created by https://svgstud.io and licensed under CC-BY-SA 4.0 license. Please attribute https://svgstud.io
</metadata>
<metadata id="prompt">
cn tower
</metadata>
<metadata id="version">
7
</metadata>
<metadata id="metadata2">
<rdf:RDF>
<cc:Work
    rdf:about="">
    <cc:license
    rdf:resource="http://creativecommons.org/licenses/by-sa/4.0/" />
    <dc:creator>
        <cc:Agent>
            <dc:title>https://svgstud.io</dc:title>
        </cc:Agent>
    </dc:creator>
</cc:Work>
<cc:License
    rdf:about="http://creativecommons.org/licenses/by-sa/4.0/">
    <cc:permits
    rdf:resource="http://creativecommons.org/ns#Reproduction" />
    <cc:permits
    rdf:resource="http://creativecommons.org/ns#Distribution" />
    <cc:requires
    rdf:resource="http://creativecommons.org/ns#Notice" />
    <cc:requires
    rdf:resource="http://creativecommons.org/ns#Attribution" />
    <cc:permits
    rdf:resource="http://creativecommons.org/ns#DerivativeWorks" />
    <cc:requires
    rdf:resource="http://creativecommons.org/ns#ShareAlike" />
</cc:License>
</rdf:RDF>
</metadata>
<metadata id="uid">
5363a8e6bdbb08f940dcc07dca1f75c6b251344a2cd0c8ab74bec084fb9a8479
</metadata>
<path stroke="none" fill="black" fill-rule="evenodd" d="M121.0,768.0C59.3,768.0 59.3,768.0 48.4,761.5C39.6,756.2 35.5,752.9 27.3,744.4C21.6,738.6 15.5,731.2 13.5,727.9C11.6,724.6 10.0,721.5 10.0,721.1C10.0,720.6 10.7,719.9 11.6,719.6C12.5,719.3 15.5,719.0 18.3,719.0C21.2,719.0 30.7,718.1 39.5,717.0C48.3,715.9 60.7,714.3 67.0,713.5C73.3,712.7 87.3,711.1 98.0,710.0C108.7,708.9 121.8,707.5 127.0,706.9C132.2,706.4 152.7,704.1 172.5,701.9C192.3,699.7 213.0,697.5 218.5,697.0C224.0,696.5 230.1,695.8 232.0,695.5C233.9,695.2 244.5,694.1 255.5,692.9C268.7,691.6 286.2,690.7 307.2,690.3C324.6,690.0 339.6,690.0 340.7,690.4C342.2,691.1 341.9,691.4 339.0,692.5C337.1,693.3 329.4,695.1 322.0,696.5C314.6,698.0 301.8,701.0 293.5,703.1C285.2,705.3 272.0,709.2 264.0,711.8C254.8,714.7 243.9,719.2 234.0,724.1C225.5,728.4 215.6,733.8 212.1,736.1C208.6,738.4 202.0,744.0 197.5,748.4C193.0,752.9 187.8,759.1 186.0,762.2C182.8,768.0 182.8,768.0 121.0,768.0zM283.2,768.0C243.8,768.0 243.8,768.0 247.5,763.2C249.6,760.6 252.9,756.8 254.9,754.7C256.9,752.5 262.6,748.0 267.5,744.5C272.4,741.1 279.9,736.4 284.0,734.2C288.1,732.0 296.2,728.4 302.0,726.2C307.8,723.9 318.4,720.3 325.5,718.1C332.6,715.9 344.8,712.7 352.5,711.1C360.2,709.4 368.5,707.6 371.0,707.0C373.5,706.4 382.0,705.1 390.0,704.0C398.0,703.0 411.0,701.6 419.0,701.0C427.0,700.4 437.8,699.5 443.0,699.0C448.2,698.5 456.9,698.0 462.2,698.0C467.5,698.0 472.1,698.4 472.4,698.9C472.7,699.4 472.0,700.1 470.7,700.4C469.5,700.7 460.4,702.8 450.5,705.0C440.6,707.1 427.8,709.8 422.0,711.0C416.2,712.1 403.2,715.8 393.0,719.1C382.8,722.4 369.9,727.4 364.3,730.0C358.6,732.7 350.7,737.2 346.6,740.0C342.5,742.8 336.7,747.7 333.6,750.9C330.6,754.1 326.9,759.3 325.3,762.4C322.6,768.0 322.6,768.0 283.2,768.0zM465.0,767.5C449.1,767.5 435.6,767.4 435.0,767.2C434.5,767.0 434.0,764.1 434.0,760.8C434.0,755.6 434.6,753.7 438.0,747.5C440.2,743.6 444.3,738.1 447.2,735.4C450.1,732.6 454.5,729.0 457.0,727.4C459.5,725.7 464.4,722.7 468.0,720.8C471.6,718.8 479.0,715.4 484.5,713.2C490.0,711.0 499.0,708.1 504.5,706.6C510.0,705.2 522.6,702.4 532.5,700.5C542.4,698.5 554.5,696.3 559.5,695.5C564.5,694.7 570.9,694.0 573.8,694.0C576.6,694.0 579.0,694.4 579.0,694.9C579.0,695.4 576.6,696.5 573.8,697.4C570.9,698.2 566.5,699.3 564.0,699.9C561.5,700.5 554.3,702.6 548.0,704.7C541.7,706.8 531.9,710.9 526.4,713.7C520.8,716.6 513.5,721.2 510.1,724.0C506.8,726.8 502.3,731.4 500.1,734.3C498.0,737.1 495.3,742.5 494.1,746.1C492.2,751.9 492.0,753.5 493.0,759.1C493.5,762.6 494.0,766.0 494.0,766.5C494.0,767.1 483.7,767.5 465.0,767.5zM614.6,768.0C564.9,768.0 523.9,767.7 523.7,767.2C523.4,766.8 522.5,763.0 521.5,758.8C520.0,751.7 520.0,750.7 521.4,745.8C522.3,742.9 524.2,738.6 525.8,736.3C527.4,733.9 531.3,729.6 534.6,726.7C537.8,723.8 543.2,719.5 546.5,717.3C549.8,715.1 554.8,712.1 557.5,710.8C560.2,709.4 568.6,706.2 576.0,703.7C583.4,701.2 594.7,697.8 601.0,696.1C607.3,694.4 620.6,691.7 630.5,690.1C642.6,688.1 655.8,686.8 670.5,686.0C682.6,685.4 696.8,684.4 702.0,683.9C707.2,683.4 720.0,682.5 730.5,681.9C741.0,681.4 753.7,681.0 758.7,681.2C768.0,681.5 768.0,681.5 768.0,687.0C768.0,690.0 767.3,695.5 766.6,699.1C765.8,702.7 763.8,708.7 762.1,712.4C760.4,716.1 757.1,722.2 754.6,725.9C752.1,729.6 746.6,736.2 742.3,740.6C738.0,745.0 730.9,751.3 726.5,754.6C722.1,757.9 715.5,762.2 711.8,764.3C705.2,768.0 705.2,768.0 614.6,768.0zM481.4,759.7C482.0,759.5 482.5,757.6 482.5,755.4C482.5,751.9 482.2,751.5 479.5,750.9C477.9,750.5 469.5,750.2 460.9,750.1C449.8,750.0 444.9,750.4 443.8,751.2C443.0,751.9 442.0,753.2 441.7,754.1C441.4,755.0 441.6,756.3 442.0,757.0C442.6,758.0 447.3,758.5 461.2,758.8C471.3,759.0 479.7,759.4 479.9,759.6C480.2,759.9 480.9,759.9 481.4,759.7zM470.2,743.8C480.8,744.0 482.2,743.8 484.0,742.0C485.1,740.9 486.0,739.3 486.0,738.5C486.0,737.7 485.1,736.6 484.1,736.0C483.0,735.5 476.8,735.0 470.2,735.0C459.5,735.0 458.0,735.2 454.9,737.3C453.0,738.5 451.4,740.3 451.2,741.2C451.0,742.5 451.8,743.0 454.7,743.3C456.8,743.5 463.8,743.7 470.2,743.8zM487.5,729.2C489.7,728.9 492.5,728.1 493.7,727.3C495.0,726.4 496.0,725.4 496.0,725.0C496.0,724.6 495.3,723.9 494.4,723.6C493.5,723.3 488.7,723.0 483.6,723.0C476.9,723.0 473.8,723.4 472.2,724.6C471.0,725.4 470.0,726.7 470.0,727.5C470.0,728.5 471.8,729.0 476.8,729.3C480.5,729.5 485.3,729.4 487.5,729.2zM665.0,707.9C675.6,708.0 675.6,708.0 682.4,703.5C686.1,701.1 692.7,697.7 696.9,696.1C701.1,694.5 706.7,692.6 709.3,691.9C712.0,691.3 713.7,690.3 713.3,689.7C712.9,689.1 709.4,689.0 703.5,689.4C698.4,689.7 691.6,690.5 688.4,691.1C685.1,691.7 677.1,693.7 670.6,695.6C664.0,697.6 656.6,700.3 654.1,701.7C651.6,703.2 648.9,704.8 648.1,705.4C647.0,706.3 647.5,706.6 650.6,707.1C652.7,707.4 659.2,707.8 665.0,707.9zM9.0,700.5C6.0,700.7 2.7,700.5 1.7,699.9C0.2,699.0 -0.0,697.2 -0.0,686.5C0.0,674.0 0.0,674.0 9.2,674.1C14.3,674.1 20.9,674.5 23.8,674.9C26.6,675.3 29.0,675.6 29.0,675.4C29.0,675.3 28.3,673.6 27.5,671.7C26.7,669.7 26.0,666.6 26.0,664.8C26.0,663.0 26.4,660.8 27.0,660.0C27.8,658.8 28.1,658.8 29.8,660.3C30.8,661.2 32.4,662.0 33.3,662.0C34.7,662.0 35.0,661.0 35.0,657.2C35.0,653.1 35.7,651.2 39.2,645.9C43.5,639.5 43.5,639.5 43.5,628.0C43.5,616.5 43.5,616.5 46.5,615.0C48.7,613.9 52.7,613.5 61.5,613.5C71.4,613.5 74.2,613.9 77.5,615.5C81.5,617.5 81.5,617.5 81.5,629.5C81.5,641.5 81.5,641.5 75.6,650.3C69.9,658.7 69.8,659.1 71.4,661.4C72.2,662.8 74.5,665.1 76.4,666.5C78.3,668.0 80.7,669.0 81.7,668.8C82.7,668.6 83.6,667.6 83.8,666.6C84.0,665.6 83.2,662.9 82.0,660.8C80.4,657.9 80.1,656.5 80.9,655.7C81.7,654.9 82.9,655.1 85.5,656.3C87.5,657.2 89.7,658.0 90.6,658.0C91.4,658.0 92.3,657.3 92.6,656.5C92.9,655.7 92.0,653.6 90.6,651.9C89.2,650.2 88.0,647.8 88.0,646.4C88.0,645.1 88.5,644.0 89.0,644.0C89.6,644.0 91.7,644.7 93.7,645.5C95.6,646.3 98.1,647.0 99.1,647.0C100.3,647.0 101.0,646.3 101.0,645.0C101.0,644.0 99.9,642.3 98.5,641.3C97.1,640.3 95.0,638.8 93.9,638.0C92.1,636.6 91.9,635.1 91.5,618.5C91.3,608.6 91.0,585.4 90.8,567.0C90.5,533.6 90.5,533.6 98.0,531.7C103.7,530.3 108.1,530.0 116.5,530.3C124.4,530.7 129.3,531.4 133.8,533.0C140.0,535.2 140.0,535.2 140.0,555.8C140.0,567.2 140.3,586.2 140.6,598.0C141.3,619.5 141.3,619.5 134.3,630.0C129.3,637.5 127.2,641.8 126.7,644.9C126.4,647.3 125.1,651.1 123.9,653.5C122.6,655.8 121.9,658.4 122.3,659.4C122.7,660.3 126.2,662.6 130.2,664.5C134.2,666.4 138.5,668.0 139.8,668.0C142.0,668.0 142.0,667.8 138.1,663.4C135.8,660.8 134.0,658.4 134.0,657.9C134.0,657.5 134.4,656.8 135.0,656.5C135.5,656.2 138.7,656.5 141.9,657.2C145.2,657.8 148.2,658.1 148.6,657.7C149.0,657.4 146.3,654.2 142.6,650.7C139.0,647.1 136.0,643.5 136.0,642.6C136.0,641.7 136.1,641.0 136.2,641.0C136.4,641.0 139.4,641.9 142.8,643.0C146.3,644.1 149.6,645.0 150.1,645.0C150.6,645.0 151.0,644.4 151.0,643.6C151.0,642.9 149.7,640.6 148.0,638.5C146.3,636.4 145.0,633.6 145.0,632.2C145.0,630.1 145.3,629.9 147.2,630.4C148.5,630.8 150.2,631.2 151.0,631.3C152.1,631.5 152.7,629.0 153.8,620.0C154.8,610.9 155.0,592.7 154.5,533.4C154.0,472.2 154.1,458.2 155.2,457.3C155.9,456.7 159.2,455.3 162.5,454.0C165.8,452.8 170.8,451.4 173.5,450.9C176.2,450.3 183.5,449.2 189.7,448.3C199.7,446.9 201.6,446.9 207.2,448.3C210.7,449.1 216.4,450.5 220.0,451.5C223.6,452.4 231.2,455.3 237.0,457.9C247.5,462.5 247.5,462.5 248.1,551.5C248.4,600.5 248.8,640.6 248.8,640.8C248.9,641.0 250.2,641.0 251.7,640.8C253.9,640.6 254.6,639.8 255.3,637.0C255.8,635.1 256.5,630.7 256.9,627.3C257.2,623.9 257.9,620.8 258.3,620.4C258.7,620.0 260.2,620.0 261.7,620.6C263.1,621.1 264.8,622.3 265.4,623.3C266.3,624.8 266.1,625.5 264.2,627.0C261.9,628.9 261.9,628.9 264.1,631.4C265.4,632.8 267.3,634.0 268.5,634.0C270.6,634.0 270.8,633.4 271.4,622.4C271.8,616.0 271.8,603.1 271.5,593.7C271.1,584.2 270.6,576.2 270.4,575.9C270.2,575.6 266.9,575.7 263.0,576.2C258.1,576.8 255.3,576.7 253.8,575.9C251.6,574.7 251.6,574.7 254.0,573.8C255.3,573.3 260.0,572.6 264.3,572.3C269.1,571.9 274.7,572.2 279.1,573.0C282.9,573.7 286.3,574.7 286.5,575.1C286.8,575.5 287.0,585.1 287.1,596.5C287.1,608.0 287.5,621.8 288.0,627.4C288.4,633.0 289.3,638.8 289.9,640.4C291.0,643.2 291.1,643.2 293.1,641.4C294.2,640.4 296.7,636.7 298.7,633.3C300.6,629.8 302.5,627.0 303.0,627.0C303.4,627.0 304.2,627.6 304.7,628.2C305.2,628.9 307.6,633.9 310.0,639.2C312.4,644.6 315.4,650.0 316.7,651.2C318.0,652.4 319.0,653.9 319.0,654.5C319.0,655.2 318.1,656.9 317.0,658.3C315.2,660.6 315.1,661.0 316.6,662.4C317.6,663.4 319.9,664.0 323.1,664.0C325.8,664.0 328.0,663.5 328.0,663.0C328.0,662.4 326.8,660.2 325.4,658.0C323.9,655.8 323.0,653.7 323.4,653.3C323.7,652.9 326.3,653.2 329.1,653.9C331.8,654.6 334.3,655.0 334.6,654.7C334.9,654.4 332.6,651.4 329.5,647.9C325.7,643.7 324.3,641.3 325.0,640.6C325.7,639.9 327.6,640.0 331.0,640.9C333.7,641.6 336.4,641.9 337.0,641.5C337.8,641.0 337.2,639.7 335.2,637.6C333.6,635.9 331.9,633.5 331.5,632.3C331.2,631.0 331.1,629.6 331.5,629.0C331.9,628.4 333.0,628.5 334.6,629.2C336.6,630.1 337.4,630.1 338.5,628.9C339.7,627.7 339.8,626.9 338.8,624.3C337.7,621.4 337.8,620.8 339.7,618.8C340.9,617.5 342.2,615.1 342.5,613.5C342.9,611.9 343.4,609.7 343.7,608.7C344.1,607.1 344.6,607.4 346.6,610.4C347.9,612.3 349.0,614.2 349.0,614.5C349.0,614.8 350.4,618.1 352.1,621.8C354.3,626.7 355.3,628.1 356.0,627.0C356.4,626.2 357.1,611.5 357.4,594.5C357.7,577.5 358.2,561.5 358.5,559.0C358.8,556.5 359.7,535.4 360.5,512.0C361.3,488.6 362.2,466.8 362.5,463.5C362.8,460.2 363.4,448.1 364.0,436.5C364.5,424.9 365.2,406.7 365.5,396.0C365.8,385.3 366.5,368.2 367.0,358.0C367.5,347.8 368.4,325.6 369.0,308.5C369.6,291.4 370.5,273.1 371.0,267.6C371.6,262.2 372.0,254.2 372.0,249.8C372.0,241.9 372.0,241.9 368.8,240.6C367.0,239.9 363.4,238.6 360.9,237.6C358.4,236.7 354.4,234.3 352.0,232.3C349.7,230.3 346.9,226.8 345.9,224.6C344.9,222.3 344.0,218.9 344.0,217.0C344.0,215.1 344.9,212.1 345.9,210.3C347.0,208.6 350.2,205.3 353.1,203.0C356.0,200.7 359.5,198.3 360.9,197.5C362.3,196.8 366.9,195.1 371.0,193.7C375.1,192.3 381.6,190.6 385.4,189.9C389.6,189.2 397.4,189.0 405.4,189.3C414.1,189.6 421.2,190.5 426.5,191.9C430.9,193.1 436.3,195.0 438.5,196.1C440.7,197.3 444.2,199.6 446.3,201.2C448.4,202.9 451.0,206.0 452.0,208.1C453.1,210.2 454.0,213.2 454.0,214.7C454.0,216.2 453.1,219.3 452.1,221.5C451.1,223.7 448.0,227.6 445.1,230.2C442.3,232.7 438.0,235.8 435.6,237.0C433.2,238.1 428.9,239.3 426.0,239.7C420.8,240.3 420.8,240.3 421.4,257.4C421.7,266.8 422.4,292.3 423.0,314.0C423.5,335.7 424.2,360.2 424.5,368.5C424.8,376.8 425.2,387.8 425.5,393.0C425.7,398.2 426.2,412.4 426.5,424.5C426.8,436.6 427.5,460.0 428.1,476.5C428.6,493.0 430.0,536.2 431.1,572.5C432.1,608.8 433.5,645.2 434.0,653.5C434.5,661.8 435.2,671.5 435.6,675.2C436.0,678.9 436.8,682.8 437.5,683.7C438.7,685.3 441.8,685.5 471.8,686.0C490.0,686.3 505.2,686.8 505.6,687.2C506.0,687.7 506.0,688.3 505.6,688.7C505.2,689.2 496.0,689.6 485.2,689.7C474.4,689.8 459.0,689.5 451.0,689.0C443.0,688.5 426.4,687.6 414.2,687.0C401.9,686.4 390.5,685.6 388.9,685.3C385.9,684.7 385.9,684.6 386.4,679.6C386.7,676.8 387.2,657.4 387.5,636.5C387.7,615.6 388.2,538.9 388.5,466.0C388.8,393.1 389.2,310.4 389.5,282.3C389.8,237.6 389.7,230.8 388.4,229.5C387.5,228.7 386.2,228.0 385.4,228.0C384.5,228.0 384.0,226.9 384.0,225.1C384.0,223.5 383.7,221.5 383.4,220.6C383.1,219.7 382.1,219.0 381.4,219.0C380.6,219.0 379.5,220.2 379.0,221.6C378.4,223.0 377.3,236.8 376.5,252.3C375.8,267.8 374.6,293.1 374.0,308.5C373.4,323.9 372.0,356.1 370.9,380.0C369.9,403.9 368.6,432.3 368.0,443.0C367.4,453.7 366.3,485.4 365.5,513.5C364.7,541.5 363.5,580.0 363.0,599.0C362.4,618.0 361.5,640.5 361.0,649.0C360.4,657.5 360.0,668.5 360.0,673.5C360.0,682.5 360.0,682.5 305.7,682.6C275.9,682.6 242.1,683.2 230.5,683.9C218.9,684.5 201.4,685.7 191.5,686.5C181.6,687.3 166.3,688.4 157.5,689.0C148.7,689.6 136.8,690.5 131.0,691.0C125.2,691.5 111.5,692.7 100.5,693.5C89.5,694.4 77.1,695.3 73.0,695.6C68.9,695.8 60.5,696.5 54.5,697.0C48.5,697.5 37.0,698.4 29.0,699.0C21.0,699.6 12.0,700.2 9.0,700.5zM404.5,682.0C411.2,682.0 411.9,681.8 412.6,679.8C412.9,678.6 413.0,642.5 412.6,599.6C412.3,556.6 411.7,499.7 411.4,473.0C411.1,446.3 410.5,396.1 410.0,361.5C409.5,326.9 408.7,281.5 408.4,260.8C407.9,236.3 407.3,222.2 406.6,220.8C405.7,219.1 404.4,218.4 401.3,218.2C397.2,217.9 397.2,217.9 396.6,229.2C396.2,235.4 395.8,339.3 395.7,460.0C395.6,580.7 395.9,680.1 396.3,680.8C396.8,681.6 399.7,682.0 404.5,682.0zM551.0,679.4C545.8,679.5 520.0,679.2 493.8,678.6C453.2,677.7 445.8,677.3 444.5,676.0C443.4,674.8 442.9,671.2 442.5,661.4C442.0,648.3 442.0,648.3 444.5,647.2C445.9,646.6 447.2,644.9 447.6,643.3C448.0,641.8 449.5,639.1 451.0,637.5C453.8,634.5 453.8,634.5 453.1,586.4C452.5,538.4 452.5,538.4 449.8,535.1C448.2,533.3 447.0,531.1 447.0,530.2C447.0,529.3 447.8,526.8 448.8,524.6C449.8,522.3 453.3,518.4 457.5,514.9C461.4,511.6 467.1,507.7 470.3,506.1C473.4,504.5 476.7,502.7 477.5,502.0C478.6,501.1 479.0,498.4 479.0,491.1C479.0,485.8 479.3,480.5 479.6,479.2C480.0,478.0 480.9,477.0 481.6,477.0C482.4,477.0 483.1,477.8 483.1,478.8C483.2,479.7 483.5,485.4 483.9,491.5C484.5,502.5 484.5,502.5 490.5,503.8C493.8,504.5 500.3,506.9 505.0,509.2C510.5,511.9 515.3,515.2 518.7,518.6C521.6,521.4 524.2,525.0 524.6,526.5C525.0,528.3 524.7,530.2 523.6,532.0C522.7,533.6 522.0,535.3 522.0,536.0C522.0,536.9 523.4,537.0 526.8,536.6C529.4,536.2 537.1,535.7 544.0,535.4C551.7,535.0 558.7,535.3 562.4,536.0C565.7,536.7 570.3,538.1 572.7,539.2C575.4,540.5 577.2,542.1 577.6,543.5C577.9,544.8 577.6,546.8 577.0,548.0C576.0,549.8 576.1,550.5 577.2,551.6C578.3,552.7 580.1,552.8 586.0,552.1C590.3,551.5 596.3,551.5 600.0,552.0C603.6,552.4 607.9,553.1 609.5,553.5C611.1,553.9 613.0,554.7 613.6,555.1C614.4,555.8 614.9,570.0 615.4,601.8C615.8,626.9 616.4,648.3 616.6,649.2C616.9,650.2 617.7,651.0 618.4,651.0C619.1,651.0 620.5,650.1 621.5,649.0C623.4,646.9 623.4,647.0 628.0,651.5C630.6,654.0 633.5,656.0 634.7,656.0C635.9,656.0 637.2,655.5 637.5,654.9C637.9,654.3 637.3,652.9 636.2,651.7C635.1,650.5 634.0,648.4 633.8,647.1C633.6,645.1 634.0,644.5 636.0,644.0C638.0,643.5 638.9,642.2 640.5,637.4C641.6,634.1 642.9,630.9 643.3,630.2C643.8,629.6 644.6,629.0 645.1,629.0C645.7,629.0 648.6,634.2 651.6,640.5C655.4,648.5 657.6,652.0 658.8,652.0C659.7,652.0 661.1,652.4 661.9,652.9C663.2,653.7 663.1,654.4 661.6,657.8C660.6,660.0 660.1,662.4 660.5,663.0C661.0,663.7 662.5,664.0 664.6,663.6C666.5,663.3 669.6,662.7 671.5,662.4C673.4,662.1 675.0,661.6 675.0,661.3C675.0,661.1 674.3,659.6 673.5,657.9C672.4,655.9 672.2,654.4 672.9,653.2C673.4,652.3 674.8,650.6 675.9,649.6C677.1,648.5 678.5,646.0 679.0,643.9C679.6,641.9 680.8,639.2 681.9,637.9C682.9,636.6 684.2,636.0 684.9,636.4C685.5,636.8 687.9,640.7 690.1,645.1C692.3,649.5 695.2,654.0 696.5,655.2C697.9,656.4 699.0,657.9 699.0,658.6C699.0,659.2 698.3,660.3 697.5,661.0C696.7,661.7 696.0,662.8 696.0,663.5C696.0,664.2 697.4,665.0 699.2,665.4C701.4,665.8 702.9,665.6 703.9,664.5C704.9,663.5 705.5,661.1 705.5,658.2C705.5,653.5 705.5,653.5 715.0,653.8C721.0,654.0 725.0,654.6 725.8,655.4C726.6,656.2 727.3,660.2 727.5,666.3C727.9,674.9 727.8,676.1 726.1,676.9C725.0,677.5 692.5,678.1 642.4,678.5C597.4,678.8 556.2,679.2 551.0,679.4zM597.1,674.0C599.8,674.0 601.2,673.5 601.8,672.2C602.2,671.3 602.3,659.9 601.9,647.0C601.5,634.1 601.2,609.1 601.1,591.4C601.0,560.7 600.9,559.2 599.0,557.5C597.3,556.0 595.8,555.8 588.3,556.3C581.5,556.7 579.3,557.2 578.3,558.6C577.6,559.6 577.0,561.4 577.0,562.6C577.0,564.0 577.8,565.1 579.0,565.5C580.1,565.9 583.2,566.0 585.8,565.9C590.5,565.6 590.5,565.6 591.1,591.0C591.4,605.0 591.8,628.0 591.9,642.1C591.9,656.2 592.3,669.2 592.6,670.9C593.2,673.7 593.6,674.0 597.1,674.0zM540.5,665.3C541.6,665.0 542.6,664.6 542.8,664.5C543.0,664.4 542.2,636.7 541.2,603.1C539.9,560.0 539.0,541.6 538.1,540.7C537.5,540.1 534.7,539.7 531.8,539.8C528.9,539.9 525.0,540.8 523.1,541.8C519.5,543.5 519.5,543.5 519.8,559.5C519.9,568.3 520.5,594.2 521.1,617.0C521.6,639.8 522.5,658.8 522.9,659.3C523.3,659.7 527.0,661.4 531.1,663.0C535.2,664.6 539.4,665.6 540.5,665.3zM462.9,662.0C463.1,662.0 463.0,661.4 462.7,660.6C462.4,659.9 462.7,658.7 463.3,658.1C463.9,657.5 466.0,657.0 467.9,657.0C471.4,657.0 471.4,657.0 468.7,654.2C467.2,652.7 466.0,650.6 466.0,649.7C466.0,648.8 466.4,648.0 467.0,648.0C467.6,648.0 468.0,647.1 468.0,646.0C468.0,645.0 467.5,643.0 466.9,641.6C466.0,639.6 466.0,638.7 467.0,637.5C467.7,636.7 468.6,636.3 469.1,636.6C469.7,636.9 473.0,641.2 476.6,646.1C480.3,651.1 483.4,655.0 483.5,654.8C483.7,654.6 483.4,645.5 482.9,634.5C482.4,623.5 481.6,596.1 481.1,573.7C480.6,551.3 480.0,532.6 479.6,532.3C479.3,532.0 476.9,531.7 474.3,531.8C471.6,531.9 467.1,532.5 464.2,533.1C460.8,533.8 458.6,534.8 458.0,536.1C457.4,537.2 457.1,538.4 457.3,538.8C457.6,539.2 458.1,561.2 458.5,587.7C459.3,635.7 459.2,635.9 457.1,639.3C456.0,641.2 455.0,643.5 455.0,644.4C455.0,645.3 455.7,647.4 456.5,648.9C457.8,651.5 457.8,651.9 456.0,653.5C454.4,655.0 454.2,655.6 455.3,656.8C455.9,657.6 457.9,659.1 459.5,660.2C461.1,661.2 462.7,662.0 462.9,662.0zM59.1,660.0C59.7,660.0 61.3,658.8 62.7,657.4C65.2,654.9 65.3,654.6 64.6,645.2C64.3,639.8 64.0,631.6 64.0,626.8C64.0,618.9 63.8,618.1 61.9,617.5C60.7,617.1 57.4,617.1 54.4,617.5C51.4,617.8 48.4,618.7 47.7,619.4C46.9,620.3 46.5,624.7 46.7,635.1C46.7,643.0 47.3,650.8 47.9,652.3C48.8,654.6 49.5,655.1 51.8,654.8C54.2,654.5 54.5,654.2 54.2,651.1C54.1,649.2 54.2,647.0 54.5,646.2C54.9,645.0 55.3,645.0 56.6,646.1C57.7,647.0 58.0,648.3 57.5,650.8C57.2,652.6 57.2,655.5 57.5,657.1C57.9,658.7 58.6,660.0 59.1,660.0zM185.2,654.9C186.8,655.0 188.0,654.7 188.0,654.2C188.0,653.8 186.3,652.1 184.3,650.3C180.5,647.2 180.5,647.2 183.4,644.2C186.2,641.2 186.2,641.2 182.1,639.1C179.9,637.9 178.0,636.3 178.0,635.5C178.0,634.7 178.6,634.0 179.4,634.0C180.2,634.0 181.8,633.2 183.1,632.1C185.2,630.4 185.3,630.0 184.1,627.4C183.0,624.8 183.0,624.4 184.9,623.1C186.1,622.4 187.0,620.9 187.0,619.9C187.0,618.9 186.2,617.6 185.2,617.1C184.3,616.6 181.8,615.9 179.7,615.5C177.6,615.1 172.6,615.1 168.6,615.5C164.5,615.8 160.4,616.7 159.4,617.5C157.9,618.6 157.8,619.1 158.8,621.1C159.5,622.4 160.8,624.9 161.8,626.5C162.8,628.1 165.3,630.6 167.3,631.9C169.8,633.6 171.0,635.1 171.0,636.7C171.0,638.0 172.6,642.2 174.5,646.1C176.7,650.3 179.0,653.4 180.3,654.0C181.5,654.5 183.7,654.9 185.2,654.9zM117.1,642.4C117.8,642.0 118.0,638.5 117.6,632.6C117.2,627.6 116.8,603.8 116.5,579.7C116.2,555.6 115.8,535.4 115.5,534.9C115.1,534.4 113.6,534.0 112.0,534.0C110.4,534.0 106.8,534.5 103.8,535.1C100.9,535.7 97.5,536.4 96.2,536.6C94.2,537.0 93.9,537.6 94.2,541.3C94.5,545.5 94.5,545.5 101.2,545.3C107.6,545.1 108.0,545.2 108.6,547.5C108.9,548.8 108.9,550.4 108.5,551.0C108.0,551.8 106.3,552.0 103.6,551.6C101.2,551.2 98.6,551.2 97.7,551.6C96.7,552.0 96.0,553.3 96.0,554.9C96.0,556.4 96.5,558.1 97.1,558.7C98.0,559.6 97.9,560.3 96.6,561.5C95.7,562.4 95.0,564.2 95.0,565.5C95.0,566.8 95.7,568.5 96.5,569.4C97.4,570.2 99.5,571.2 101.3,571.4C103.1,571.7 105.5,572.1 106.8,572.2C108.0,572.4 109.2,573.0 109.2,573.5C109.3,574.0 106.7,574.9 103.5,575.3C100.2,575.8 97.0,576.6 96.4,577.1C95.8,577.6 95.4,580.3 95.4,583.0C95.5,586.3 96.0,588.4 97.0,589.0C97.8,589.5 100.3,590.0 102.5,590.0C104.7,590.0 107.1,590.4 107.9,590.9C109.0,591.6 108.9,592.0 107.2,592.9C106.1,593.5 104.0,594.0 102.6,594.0C101.3,594.0 99.0,594.4 97.5,595.0C95.4,595.8 95.1,596.4 95.6,598.6C96.0,600.1 96.3,602.9 96.4,604.9C96.5,607.8 97.0,608.5 99.0,609.1C100.4,609.5 103.2,609.8 105.2,609.9C107.3,610.0 109.0,610.4 109.0,610.9C109.0,611.4 106.7,612.0 104.0,612.4C100.8,612.8 98.1,613.9 96.8,615.2C94.7,617.3 94.7,617.3 96.7,618.9C97.8,619.8 99.6,621.0 100.6,621.6C102.3,622.7 102.2,622.9 98.8,624.5C96.8,625.5 94.9,626.9 94.6,627.5C94.4,628.2 94.7,629.8 95.4,631.1C96.2,632.8 97.4,633.5 99.5,633.5C102.1,633.5 102.8,632.8 104.9,628.5C107.0,624.0 107.3,623.7 108.6,625.4C109.3,626.5 110.7,629.6 111.6,632.4C112.5,635.2 113.9,638.8 114.7,640.3C115.5,641.8 116.6,642.8 117.1,642.4zM54.5,641.0C54.2,641.0 53.8,640.4 53.6,639.8C53.3,639.1 52.9,635.9 52.7,632.7C52.2,627.7 52.4,626.9 54.2,625.9C55.3,625.3 56.6,625.2 57.0,625.7C57.4,626.1 58.0,629.3 58.3,632.8C58.7,638.2 58.6,639.2 57.0,640.0C56.0,640.6 54.9,641.0 54.5,641.0zM530.7,634.0C526.9,634.0 526.1,633.7 525.6,631.8C525.3,630.5 525.0,627.6 525.0,625.3C525.0,622.1 525.5,620.8 527.0,620.0C528.2,619.4 530.3,619.0 531.8,619.2C534.4,619.5 534.5,619.7 534.8,626.8C535.1,634.0 535.1,634.0 530.7,634.0zM205.9,632.0C206.7,632.0 207.0,614.8 207.0,576.8C207.0,546.4 206.7,506.3 206.3,487.7C205.8,458.1 205.5,453.8 204.1,453.0C203.2,452.6 199.2,452.6 195.0,453.1C190.9,453.7 186.2,454.3 184.5,454.5C182.8,454.7 177.3,455.8 172.1,457.0C166.9,458.1 161.6,459.7 160.3,460.6C158.1,462.0 157.9,462.7 158.2,468.3C158.5,474.5 158.5,474.5 162.0,474.3C163.9,474.2 167.9,474.0 170.8,474.0C175.4,473.9 176.7,473.4 180.0,470.4C183.5,467.2 184.2,467.0 190.4,467.0C197.1,467.0 197.1,467.0 196.8,470.1C196.5,472.7 195.9,473.4 192.5,474.6C190.3,475.4 184.2,476.4 179.0,477.0C173.8,477.5 167.1,478.5 164.1,479.2C158.6,480.5 158.6,480.5 158.5,487.2C158.4,490.9 158.6,494.3 158.9,494.9C159.3,495.4 162.4,496.0 165.8,496.2C169.2,496.4 172.1,496.9 172.3,497.5C172.4,498.0 170.0,498.9 166.9,499.5C163.9,500.1 160.9,501.0 160.3,501.3C159.7,501.7 159.1,504.7 159.1,508.0C159.1,513.9 159.1,513.9 163.8,514.2C166.4,514.4 168.5,514.9 168.5,515.4C168.5,515.9 166.5,516.8 164.0,517.4C160.5,518.3 159.4,519.0 159.2,520.8C159.0,522.0 159.2,523.1 159.7,523.1C160.1,523.2 163.4,523.4 167.0,523.5C170.6,523.6 175.2,523.3 177.3,522.8C179.4,522.3 181.7,520.9 182.6,519.5C183.9,517.5 184.0,516.7 183.1,515.6C182.2,514.5 182.2,513.1 183.0,510.1C183.6,507.6 185.1,505.3 186.6,504.3C188.5,503.1 189.4,503.0 190.3,503.9C190.9,504.5 191.6,508.4 191.8,512.5C192.2,519.1 192.5,520.0 194.1,520.0C195.1,520.0 196.0,520.4 196.0,521.0C196.0,521.5 193.7,522.6 190.8,523.5C188.0,524.3 182.7,525.0 179.1,525.0C175.5,525.1 169.9,525.7 166.8,526.4C163.7,527.2 160.7,528.0 160.2,528.4C159.7,528.7 159.3,532.1 159.2,536.0C159.2,543.0 159.2,543.0 164.3,543.0C167.2,543.0 170.5,543.3 171.8,543.6C173.0,544.0 174.0,544.6 174.0,545.0C174.0,545.5 170.8,546.4 166.9,547.0C162.3,547.8 159.7,548.7 159.3,549.7C158.9,550.6 159.1,552.0 159.7,552.8C160.3,553.9 160.3,555.4 159.6,557.3C158.7,559.5 158.8,560.3 160.0,561.0C160.8,561.5 162.9,562.0 164.6,562.0C166.3,562.0 168.0,562.3 168.4,562.7C168.8,563.1 167.0,564.1 164.3,565.0C160.7,566.1 159.5,567.0 159.5,568.5C159.5,570.3 160.3,570.6 168.0,571.0C172.7,571.3 177.7,571.2 179.2,570.7C180.8,570.2 182.0,569.5 182.1,569.2C182.2,568.8 182.3,565.8 182.5,562.4C182.6,559.1 183.3,555.4 183.9,554.1C184.8,552.5 185.9,552.0 187.8,552.2C190.4,552.5 190.5,552.8 191.1,559.5C191.4,563.4 192.0,567.4 192.5,568.4C193.1,569.8 192.8,570.7 191.5,571.6C190.3,572.5 186.9,573.0 182.5,573.0C178.6,573.0 172.7,573.5 169.4,574.0C166.2,574.6 162.5,575.3 161.4,575.5C159.4,575.9 159.2,576.6 159.3,582.7C159.4,586.5 159.9,589.8 160.5,590.2C161.0,590.6 163.8,591.0 166.5,591.0C169.2,591.0 172.1,591.4 172.9,591.9C173.6,592.4 173.9,593.3 173.6,593.9C173.2,594.5 170.6,595.0 167.9,595.0C165.1,595.0 162.0,595.5 160.9,596.0C159.9,596.6 159.0,597.9 159.0,599.0C159.0,600.0 160.0,601.6 161.2,602.4C163.0,603.7 163.1,604.0 161.8,604.0C160.9,604.0 159.8,604.9 159.5,606.1C159.1,607.3 159.2,608.6 159.7,609.0C160.1,609.4 162.9,610.3 165.8,610.9C168.7,611.5 172.8,612.0 174.8,612.0C176.9,612.0 179.6,611.3 180.8,610.4C182.2,609.5 183.2,607.4 183.6,604.9C184.0,602.4 185.2,600.2 186.8,598.9C188.3,597.8 189.7,597.3 190.2,597.8C190.7,598.3 191.4,603.1 191.7,608.4C192.0,613.7 192.6,618.0 193.0,618.0C193.4,618.0 194.5,617.1 195.5,616.0C196.5,614.9 197.6,614.0 198.0,614.0C198.4,614.0 199.1,615.7 199.5,617.8C199.8,619.8 201.2,623.9 202.5,626.8C203.8,629.6 205.4,632.0 205.9,632.0zM258.5,619.0C258.3,619.0 257.9,618.2 257.7,617.2C257.4,616.3 257.3,612.6 257.4,609.0C257.5,602.5 257.5,602.5 260.7,602.2C263.9,601.9 263.9,601.9 263.7,608.1C263.6,613.2 263.1,614.8 261.2,616.7C260.0,618.0 258.7,619.0 258.5,619.0zM260.9,598.3C260.0,598.6 258.7,598.3 258.1,597.7C257.5,597.1 257.0,594.0 257.0,590.8C257.0,585.1 257.1,585.0 259.8,585.0C261.3,585.0 263.1,585.5 263.8,586.2C264.5,586.9 265.0,589.3 265.0,591.6C265.0,593.9 264.4,596.2 263.8,596.7C263.1,597.3 261.8,597.9 260.9,598.3zM185.5,595.0C182.8,595.0 179.9,594.6 179.1,594.1C177.9,593.4 178.1,592.7 179.8,590.5C180.9,589.1 182.6,585.7 183.5,583.0C184.5,579.9 185.9,577.9 187.1,577.5C188.2,577.1 189.5,577.1 189.8,577.5C190.2,577.8 191.0,580.9 191.5,584.3C192.4,590.0 192.7,590.5 195.5,591.1C197.5,591.5 197.8,591.8 196.4,591.9C195.3,591.9 193.5,592.7 192.4,593.5C191.3,594.3 188.3,594.9 185.5,595.0zM528.4,565.0C526.4,565.0 524.7,564.4 524.4,563.6C524.1,562.9 524.0,560.3 524.2,557.9C524.5,553.6 524.6,553.5 528.1,553.2C531.7,552.9 531.7,552.9 532.3,557.6C532.6,560.2 532.6,563.0 532.3,563.7C532.0,564.4 530.3,565.0 528.4,565.0zM183.5,546.9C181.3,546.8 178.7,546.6 177.8,546.3C176.8,546.1 176.0,545.5 176.0,545.2C176.1,544.8 177.5,543.6 179.3,542.5C181.9,540.8 182.6,539.7 183.0,536.0C183.4,532.5 184.1,531.2 186.2,530.0C188.4,528.9 189.2,528.8 190.1,529.7C190.8,530.4 191.6,533.7 191.8,537.0C192.2,542.8 192.3,543.0 194.7,542.3C196.6,541.9 197.1,542.1 196.8,543.0C196.6,543.7 194.4,544.9 191.9,545.6C189.5,546.4 185.7,546.9 183.5,546.9zM452.4,528.0C452.6,528.0 456.5,527.3 461.1,526.4C466.8,525.3 475.2,524.7 487.0,524.6C496.6,524.5 507.5,524.9 511.2,525.3C516.9,525.9 518.0,525.8 518.0,524.5C518.0,523.7 516.3,522.2 514.2,521.1C512.1,520.0 507.7,518.7 504.4,518.1C501.2,517.6 495.2,516.8 491.2,516.4C487.3,516.0 484.0,515.4 484.0,515.0C484.0,514.6 484.7,513.9 485.6,513.6C486.5,513.3 488.1,513.0 489.2,513.0C491.1,513.0 491.2,512.8 489.8,511.2C488.9,510.3 487.9,508.5 487.6,507.3C487.1,505.8 485.8,504.9 483.5,504.4C481.7,504.1 478.6,504.3 476.7,504.9C474.8,505.6 469.0,509.6 463.9,513.9C458.7,518.2 453.7,522.6 452.7,523.8C451.6,524.9 451.1,526.4 451.5,526.9C451.8,527.5 452.3,528.0 452.4,528.0zM183.6,498.0C180.6,498.0 177.9,497.6 177.6,497.2C177.3,496.7 178.4,495.0 180.0,493.5C182.3,491.3 183.0,489.7 183.0,486.8C183.0,483.9 183.6,482.7 185.5,481.4C186.9,480.5 188.7,480.0 189.5,480.4C190.5,480.8 191.0,482.3 191.0,485.4C191.0,487.8 191.3,490.5 191.6,491.4C192.0,492.4 193.4,493.0 195.1,493.0C196.7,493.0 198.0,493.4 198.0,494.0C198.0,494.5 196.8,495.2 195.2,495.5C193.7,495.9 191.7,496.5 190.8,497.1C189.8,497.6 186.6,498.0 183.6,498.0zM358.9,218.9C361.4,216.7 366.6,213.4 370.5,211.6C374.3,209.7 380.4,207.7 384.0,207.0C387.6,206.3 395.4,205.8 401.5,205.8C409.2,205.8 415.1,206.4 421.3,207.9C426.1,209.0 432.8,211.3 436.1,213.0C439.5,214.6 442.6,216.0 443.1,216.0C443.6,216.0 444.0,215.1 444.0,214.1C444.0,213.0 442.8,210.7 441.3,209.0C439.9,207.3 436.2,204.7 433.1,203.3C430.0,202.0 424.1,200.0 420.0,198.9C414.6,197.5 409.0,196.9 400.0,196.9C390.3,196.8 385.7,197.2 379.6,198.9C375.2,200.1 369.3,202.1 366.4,203.4C363.5,204.7 359.1,207.7 356.6,210.0C353.0,213.3 352.0,214.9 352.0,217.4C352.0,219.2 352.5,221.1 353.2,221.8C354.0,222.6 355.4,221.9 358.9,218.9zM456.1,196.4C455.8,196.6 452.8,194.3 449.5,191.2C445.9,187.9 440.7,184.4 436.5,182.4C432.7,180.6 426.6,178.2 423.0,177.1C419.4,175.9 412.1,174.4 406.8,173.8C399.7,173.0 394.4,173.0 387.6,173.8C382.5,174.4 375.0,176.0 371.1,177.3C367.1,178.7 361.0,181.7 357.4,184.1C353.9,186.4 349.4,190.1 347.5,192.4C345.7,194.6 343.8,196.2 343.5,195.8C343.2,195.5 342.2,192.8 341.4,189.9C340.7,186.9 339.7,181.2 339.4,177.2C338.9,170.7 339.1,169.4 341.4,164.5C343.0,161.3 346.5,156.9 350.1,153.6C353.5,150.5 359.2,146.5 363.3,144.6C367.3,142.6 373.7,140.3 377.5,139.4C383.1,138.1 387.8,137.9 400.5,138.3C410.4,138.6 418.6,139.4 422.0,140.4C425.0,141.2 430.9,143.6 435.0,145.7C439.0,147.8 445.0,151.9 448.2,154.8C451.6,158.0 455.0,162.4 456.6,165.6C458.9,170.4 459.2,171.9 458.7,177.3C458.3,180.7 457.8,186.3 457.4,189.8C457.0,193.2 456.4,196.2 456.1,196.4zM348.5,185.0C349.3,185.0 350.8,183.5 351.9,181.6C353.1,179.8 354.0,177.2 354.0,175.9C354.0,174.6 353.6,172.9 353.1,172.2C352.6,171.4 351.4,171.0 350.4,171.2C349.3,171.4 347.6,173.1 346.6,175.1C344.9,178.3 344.8,179.1 345.9,181.9C346.7,183.6 347.8,185.0 348.5,185.0zM452.6,184.0C453.5,184.0 454.0,182.9 454.0,180.7C454.0,178.9 453.3,176.4 452.4,175.2C451.6,174.0 450.5,173.0 449.9,173.0C449.4,173.0 449.0,174.1 449.0,175.4C449.0,176.6 449.5,179.1 450.1,180.9C450.7,182.6 451.8,184.0 452.6,184.0zM445.0,178.0C445.4,178.0 446.3,177.3 447.0,176.4C448.0,175.3 448.1,174.1 447.4,172.2C446.8,170.5 445.7,169.5 444.5,169.5C443.1,169.5 442.4,170.3 442.2,172.3C442.0,173.9 442.4,175.8 443.1,176.6C443.7,177.4 444.6,178.0 445.0,178.0zM358.8,176.5C360.1,176.2 362.4,175.1 363.8,174.2C365.2,173.3 370.2,171.5 374.9,170.1C379.6,168.8 385.4,167.6 387.8,167.3C392.0,166.8 392.0,166.8 392.0,162.4C392.0,159.5 391.5,157.7 390.6,157.4C389.8,157.1 386.4,157.4 382.9,158.0C379.4,158.6 375.6,159.4 374.5,159.9C373.4,160.3 369.9,161.5 366.7,162.5C363.6,163.5 359.6,165.1 358.0,166.1C355.5,167.7 355.0,168.6 355.0,171.8C355.0,173.9 355.3,176.0 355.7,176.4C356.1,176.8 357.5,176.8 358.8,176.5zM435.1,173.0C436.6,173.0 438.0,172.4 438.3,171.8C438.5,171.1 438.1,169.3 437.4,167.8C436.6,166.3 435.1,164.6 434.1,164.0C433.0,163.5 431.7,163.0 431.1,163.0C430.5,163.0 430.0,164.7 430.0,166.8C430.0,168.9 430.5,171.1 431.2,171.8C431.9,172.5 433.6,173.0 435.1,173.0zM344.2,169.3C344.9,168.8 347.9,166.6 350.7,164.5C353.6,162.4 356.6,160.5 357.4,160.4C358.2,160.3 361.8,159.0 365.3,157.6C368.9,156.2 374.9,154.3 378.6,153.4C383.1,152.3 392.4,151.5 405.0,151.1C424.5,150.5 424.5,150.5 420.9,148.3C419.0,147.1 414.5,145.4 410.9,144.5C407.0,143.6 399.6,143.0 391.7,143.0C381.4,143.0 377.7,143.4 372.8,145.1C369.5,146.2 364.2,148.4 361.1,150.0C358.0,151.5 353.3,154.7 350.7,157.0C348.1,159.3 345.3,162.5 344.5,164.1C343.7,165.6 343.0,167.7 343.0,168.6C343.0,169.7 343.4,170.0 344.2,169.3zM423.1,168.4C423.6,168.1 424.0,167.0 424.0,165.9C424.0,164.8 423.6,163.0 423.0,162.0C422.5,161.0 420.6,159.7 418.9,159.1C417.1,158.5 414.7,158.0 413.5,158.0C412.0,158.0 411.0,158.8 410.7,160.1C410.4,161.3 410.5,163.3 411.0,164.6C411.5,165.9 412.3,167.0 412.7,167.1C413.2,167.1 415.2,167.3 417.4,167.5C419.5,167.7 421.5,168.2 421.8,168.4C422.0,168.7 422.7,168.7 423.1,168.4zM400.9,167.0C402.3,167.0 404.0,166.6 404.7,166.2C405.3,165.8 406.1,164.3 406.5,162.9C406.9,161.1 406.6,159.8 405.4,158.6C404.3,157.4 402.5,157.0 399.6,157.2C395.9,157.5 395.5,157.8 395.2,160.3C395.0,162.0 395.6,164.0 396.6,165.1C397.5,166.1 399.5,167.0 400.9,167.0zM385.5,137.0C384.6,137.0 384.0,136.1 384.0,134.8C384.0,133.5 384.7,127.6 385.5,121.6C386.3,115.6 386.7,110.3 386.4,109.8C386.1,109.3 384.3,109.2 382.4,109.6C379.2,110.2 378.9,110.0 377.5,106.7C376.5,104.2 376.3,102.4 376.9,100.7C377.4,99.4 378.9,97.7 380.2,96.9C381.4,96.0 384.5,94.6 387.0,93.6C390.0,92.4 394.0,91.8 399.2,91.9C403.9,91.9 408.7,92.7 411.7,93.8C415.9,95.3 416.5,95.9 416.8,98.7C417.0,100.8 416.2,103.5 414.5,106.4C411.9,110.8 411.9,111.0 413.0,120.7C413.6,126.1 414.2,131.4 414.3,132.5C414.5,134.1 414.0,134.4 412.1,134.2C410.7,134.1 409.5,133.9 409.4,133.7C409.3,133.6 408.3,127.5 407.2,120.1C406.1,112.8 404.6,106.3 404.0,105.6C403.0,104.8 402.9,107.0 403.6,115.5C404.0,121.5 404.4,127.8 404.4,129.5C404.5,131.9 404.1,132.5 402.5,132.5C400.6,132.5 400.5,131.7 400.0,116.0C399.5,99.9 399.4,99.5 397.3,99.2C395.6,99.0 394.9,99.5 394.6,101.2C394.3,102.5 393.0,110.2 391.5,118.4C390.1,126.6 388.5,134.1 387.9,135.1C387.4,136.2 386.3,137.0 385.5,137.0zM408.8,86.6C408.6,86.7 406.8,86.2 404.7,85.5C402.6,84.8 400.5,83.9 400.2,83.5C399.8,83.1 399.5,72.2 399.5,59.2C399.5,35.5 399.5,35.5 396.2,34.5C393.3,33.7 392.9,33.2 393.2,30.6C393.4,28.1 394.1,27.4 397.0,26.6C398.9,26.1 400.7,25.5 400.9,25.3C401.2,25.1 400.4,23.7 399.2,22.1C397.7,20.0 397.4,19.0 398.3,18.1C398.9,17.5 400.2,17.0 401.1,17.0C402.0,17.0 403.0,17.7 403.4,18.5C403.7,19.3 403.7,21.3 403.4,22.9C402.9,25.2 403.2,26.1 404.9,26.9C406.4,27.7 407.0,29.0 407.0,31.4C407.0,33.3 406.4,35.3 405.6,35.9C404.7,36.6 404.3,38.5 404.6,40.8C404.8,42.8 405.4,52.6 406.0,62.5C406.7,72.4 407.6,81.8 408.1,83.4C408.6,85.0 408.9,86.4 408.8,86.6z" />

</svg>