<?xml version="1.0" encoding="UTF-8" standalone="no"?>
<svg 
  version="1.1" 
  xmlns="http://www.w3.org/2000/svg" 
  xmlns:xlink="http://www.w3.org/1999/xlink" 
  xmlns:svg="http://www.w3.org/2000/svg"
  xmlns:rdf="http://www.w3.org/1999/02/22-rdf-syntax-ns#"
  xmlns:cc="http://creativecommons.org/ns#"
  xmlns:dc="http://purl.org/dc/elements/1.1/"
  viewBox="0 0 768 768"
  width="768"
  height="768"
>
<metadata id="metadata1">
Created by https://svgstud.io and licensed under CC-BY-SA 4.0 license. Please attribute https://svgstud.io
</metadata>
<metadata id="prompt">
cn tower
</metadata>
<metadata id="version">
7
</metadata>
<metadata id="metadata2">
<rdf:RDF>
<cc:Work
    rdf:about="">
    <cc:license
    rdf:resource="http://creativecommons.org/licenses/by-sa/4.0/" />
    <dc:creator>
        <cc:Agent>
            <dc:title>https://svgstud.io</dc:title>
        </cc:Agent>
    </dc:creator>
</cc:Work>
<cc:License
    rdf:about="http://creativecommons.org/licenses/by-sa/4.0/">
    <cc:permits
    rdf:resource="http://creativecommons.org/ns#Reproduction" />
    <cc:permits
    rdf:resource="http://creativecommons.org/ns#Distribution" />
    <cc:requires
    rdf:resource="http://creativecommons.org/ns#Notice" />
    <cc:requires
    rdf:resource="http://creativecommons.org/ns#Attribution" />
    <cc:permits
    rdf:resource="http://creativecommons.org/ns#DerivativeWorks" />
    <cc:requires
    rdf:resource="http://creativecommons.org/ns#ShareAlike" />
</cc:License>
</rdf:RDF>
</metadata>
<metadata id="uid">
167afc1f5dc7cc140f2650cbdea32144d4ffc3d61645fe0e70583b171c8c976b
</metadata>
<path stroke="none" fill="black" fill-rule="evenodd" d="M126.6,767.9C97.9,767.9 92.7,767.6 87.5,766.1C84.2,765.1 79.0,763.3 76.0,762.1C73.0,760.9 67.1,758.0 63.0,755.8C58.9,753.5 51.5,748.4 46.5,744.5C41.5,740.5 35.0,734.6 32.0,731.3C29.0,728.1 24.3,722.7 21.6,719.5C19.0,716.2 14.4,708.5 11.4,702.5C8.5,696.4 5.2,687.6 4.0,683.0C2.9,678.3 2.0,673.0 2.0,671.2C2.0,667.9 2.0,667.9 22.3,668.7C33.4,669.1 45.2,669.5 48.5,669.5C54.5,669.5 54.5,669.5 54.8,659.0C55.0,653.2 54.8,647.1 54.5,645.3C54.1,642.9 53.1,641.6 50.4,640.4C48.5,639.5 46.3,637.5 45.5,635.9C44.7,634.4 44.0,632.1 44.0,630.9C44.0,629.8 47.0,623.2 50.6,616.4C54.2,609.6 57.5,604.0 58.0,604.0C58.5,604.0 60.0,605.5 61.4,607.3C62.8,609.1 65.5,613.6 67.4,617.3C69.3,621.0 71.2,625.6 71.6,627.6C72.1,630.1 71.8,632.3 70.6,634.6C69.7,636.5 67.0,639.4 64.6,641.1C60.2,644.3 60.2,644.3 60.7,655.9C61.0,662.3 61.7,668.0 62.1,668.6C62.6,669.3 68.3,670.0 75.8,670.3C82.8,670.6 95.2,671.4 103.5,671.9C111.8,672.5 121.5,673.2 125.2,673.5C132.0,674.0 132.0,674.0 132.0,661.6C132.0,649.1 132.0,649.1 129.0,647.0C127.3,645.8 124.0,644.6 121.7,644.3C119.4,644.1 113.8,643.4 109.3,642.9C104.7,642.3 100.6,641.2 99.9,640.4C99.1,639.5 98.5,628.6 97.9,607.3C97.1,577.6 97.1,575.5 98.8,574.6C99.7,574.0 103.9,572.0 108.0,570.0C113.5,567.5 116.7,566.6 120.0,566.7C122.5,566.8 125.8,567.1 127.5,567.2C130.5,567.5 130.5,567.5 130.1,548.0C129.8,530.0 129.9,528.4 131.6,526.8C132.7,525.9 136.4,523.8 140.0,522.1C143.6,520.4 148.1,519.0 150.0,519.0C151.9,519.0 156.6,519.7 160.4,520.5C164.2,521.3 168.1,522.5 169.1,523.2C170.7,524.4 170.9,527.6 171.5,564.0C171.8,585.7 172.5,611.5 173.0,621.2C173.5,630.9 173.6,639.8 173.3,641.0C172.7,643.1 172.4,643.2 164.7,642.5C160.3,642.2 155.6,641.4 154.2,640.9C152.1,640.1 151.9,639.6 152.6,637.2C153.1,635.7 153.4,616.5 153.2,594.5C153.0,572.5 152.6,547.8 152.2,539.5C151.5,524.5 151.5,524.5 148.7,524.8C147.1,525.0 143.7,526.1 141.2,527.3C136.5,529.5 136.5,529.5 136.8,548.5C137.0,560.3 137.6,568.0 138.3,568.8C138.9,569.5 140.6,570.8 142.1,571.5C144.8,572.9 144.8,572.9 145.3,594.2C145.7,613.2 146.0,616.1 148.0,621.0C149.7,625.4 150.0,627.5 149.5,632.0C149.1,635.0 147.9,639.0 146.8,640.8C145.7,642.6 143.3,645.2 141.4,646.6C138.1,649.2 138.1,649.2 138.7,660.3C139.0,666.5 139.7,672.1 140.3,672.8C140.9,673.6 144.5,674.0 151.4,674.0C156.9,674.0 168.2,674.5 176.5,675.0C184.8,675.5 195.0,676.2 199.2,676.6C207.0,677.3 207.0,677.3 207.0,665.2C207.0,658.6 206.6,652.0 206.1,650.7C205.5,649.2 203.8,647.8 201.8,647.1C200.0,646.5 197.2,644.9 195.6,643.7C193.2,641.7 192.6,640.5 192.4,636.1C192.1,631.8 192.6,629.9 194.7,626.1C196.2,623.6 199.6,618.2 202.3,614.2C207.3,607.0 207.3,607.0 206.6,598.2C206.2,593.4 205.8,588.1 205.7,586.5C205.5,583.7 206.0,583.2 213.0,579.8C219.1,576.7 221.6,576.0 226.4,576.0C229.7,576.0 236.2,576.7 240.9,577.5C245.6,578.4 250.7,579.6 252.2,580.2C253.8,580.8 255.1,581.3 255.2,581.4C255.3,581.4 255.6,594.4 255.9,610.2C256.4,633.9 256.8,639.2 258.0,640.4C258.8,641.3 260.6,642.1 262.0,642.2C264.3,642.5 264.5,642.1 265.1,636.9C265.6,632.5 266.7,629.7 270.4,624.0C273.0,620.0 275.6,615.6 276.1,614.3C276.6,613.0 277.8,612.0 278.9,612.0C280.1,612.0 282.2,614.2 284.8,618.2C287.1,621.7 289.8,626.6 290.9,629.1C292.6,633.0 292.8,634.6 292.1,638.6C291.6,641.3 291.4,643.8 291.6,644.2C291.9,644.7 293.2,645.0 294.4,645.0C295.7,645.0 297.3,644.3 298.0,643.5C299.1,642.2 299.2,632.2 298.6,593.3C298.2,559.1 297.6,544.3 296.8,543.3C296.2,542.5 294.7,542.0 293.6,542.2C291.5,542.5 291.5,542.9 291.0,580.5C290.7,601.4 290.3,618.7 290.2,619.0C290.1,619.2 289.5,618.9 288.8,618.2C287.9,617.3 287.5,605.6 287.3,574.3C287.1,549.4 286.5,529.3 285.9,526.2C285.1,522.3 285.1,520.5 286.0,519.5C286.6,518.7 291.5,516.4 296.7,514.4C305.5,511.0 306.7,510.8 310.5,511.8C312.8,512.4 317.2,513.9 320.3,515.0C324.6,516.6 326.0,517.6 326.0,519.1C326.0,520.2 325.2,522.2 324.3,523.6C322.8,526.0 322.7,530.0 323.9,577.8C324.6,606.3 325.5,633.4 326.0,638.2C326.5,643.1 327.2,647.4 327.5,648.0C327.8,648.5 329.4,649.0 331.0,649.0C332.6,649.0 334.2,648.5 334.6,647.8C335.0,647.1 335.3,636.0 335.2,623.1C335.1,610.1 334.8,596.9 334.5,593.8C334.2,589.3 334.4,587.7 335.7,586.4C336.7,585.5 340.6,583.2 344.4,581.4C348.9,579.2 352.9,578.0 355.6,578.0C357.9,578.0 363.2,578.6 367.3,579.4C371.5,580.2 376.2,581.6 377.9,582.5C379.6,583.3 381.2,585.0 381.4,586.3C381.7,587.5 382.2,602.7 382.5,620.0C383.0,645.1 383.4,652.0 384.6,653.8C385.4,655.0 386.9,656.0 387.9,656.0C388.9,656.0 390.3,655.3 391.0,654.5C392.0,653.3 392.2,646.6 391.9,625.3C391.5,597.6 391.5,597.6 395.5,595.3C397.9,594.0 401.1,593.0 403.5,593.1C405.7,593.1 410.6,593.7 414.4,594.4C418.1,595.1 421.6,596.4 422.1,597.1C422.6,597.9 423.0,605.0 423.1,613.0C423.2,621.0 423.5,634.2 423.9,642.5C424.5,657.5 424.5,657.5 427.0,657.8C428.9,658.0 430.7,656.8 434.5,653.0C437.5,649.9 440.3,648.0 441.7,648.0C442.9,648.0 444.4,648.9 445.0,650.0C445.6,651.1 446.9,652.0 448.0,652.0C449.1,652.0 450.4,651.0 451.1,649.9C452.0,648.1 451.8,647.4 449.3,645.1C446.5,642.5 446.5,642.4 446.5,631.0C446.5,619.5 446.5,619.5 450.0,617.8C451.9,616.9 454.7,615.8 456.1,615.5C457.8,615.1 458.9,615.3 459.2,616.2C459.5,616.9 459.1,628.3 458.4,641.5C457.7,654.7 456.6,671.7 455.9,679.2C455.3,686.7 455.0,693.6 455.3,694.4C455.7,695.4 457.1,696.0 458.9,696.0C460.5,696.0 462.1,695.6 462.4,695.1C462.8,694.6 463.5,681.4 464.0,665.8C464.5,650.3 465.5,624.5 466.0,608.5C466.6,592.5 467.7,566.2 468.5,550.0C469.3,533.8 470.4,510.6 471.0,498.5C471.5,486.4 472.6,462.8 473.5,446.0C474.3,429.2 475.4,405.1 476.0,392.5C476.6,379.9 477.4,361.4 478.0,351.5C478.5,341.6 479.4,324.5 479.9,313.5C480.5,302.5 481.1,285.7 481.2,276.1C481.5,258.8 481.5,258.8 476.0,257.1C473.0,256.1 468.7,254.4 466.5,253.2C464.3,252.0 461.8,250.5 461.0,249.8C460.1,249.1 458.2,246.9 456.7,244.9C455.3,243.0 452.9,238.3 451.4,234.4C449.4,229.1 449.0,226.5 449.4,223.1C449.7,220.7 451.1,216.8 452.4,214.5C453.8,212.2 456.8,208.6 459.1,206.5C461.4,204.5 466.5,201.3 470.4,199.6C474.3,197.8 480.2,195.6 483.5,194.7C486.8,193.8 493.8,192.7 499.0,192.2C504.2,191.7 514.4,191.6 521.5,192.0C528.6,192.4 537.3,193.5 540.7,194.4C544.1,195.3 549.7,197.3 553.2,198.9C557.0,200.6 561.0,203.3 563.2,205.8C565.2,208.0 567.7,211.4 568.7,213.2C569.8,215.4 570.4,218.7 570.4,223.0C570.4,228.2 569.8,230.6 567.6,234.9C566.1,237.9 562.6,242.7 559.9,245.5C557.2,248.3 552.8,251.9 550.0,253.4C547.3,254.9 543.1,256.4 540.8,256.8C536.5,257.6 536.5,257.6 536.2,266.5C536.0,271.5 536.6,287.6 537.4,302.5C538.3,317.4 539.7,343.0 540.5,359.5C541.4,376.0 542.5,398.5 543.0,409.5C543.5,420.5 544.4,436.7 545.0,445.5C545.5,454.3 546.4,466.7 547.0,473.0C547.6,479.3 548.7,493.9 549.5,505.5C550.3,517.0 551.7,537.2 552.5,550.2C553.3,563.3 554.7,584.7 555.5,597.8C556.4,610.8 557.3,622.3 557.6,623.2C557.9,624.2 558.7,625.0 559.3,625.0C560.0,624.9 561.6,624.3 563.0,623.5C564.6,622.6 568.5,622.1 574.1,622.0C580.5,622.0 583.1,622.4 584.0,623.5C584.8,624.4 585.5,631.6 586.1,643.7C586.6,654.0 587.2,663.5 587.5,664.7C587.8,666.1 589.1,667.2 590.7,667.6C592.1,668.0 594.0,667.9 594.9,667.3C595.8,666.8 598.4,663.4 600.8,659.9C603.1,656.4 605.3,652.5 605.6,651.2C606.0,650.0 606.8,649.0 607.6,649.0C608.4,649.0 610.4,651.5 612.1,654.5C613.8,657.5 615.6,660.0 616.1,660.0C616.6,660.0 617.0,658.1 617.1,655.8C617.1,653.4 617.1,642.9 617.0,632.5C616.9,615.2 617.0,613.3 618.7,611.8C619.7,610.9 622.5,609.7 625.0,609.1C627.5,608.5 632.8,608.0 636.8,608.0C642.5,608.0 644.4,608.4 645.9,609.9C647.4,611.4 647.9,613.8 648.4,621.6C648.7,627.1 649.2,639.1 649.6,648.5C650.0,659.3 650.7,666.7 651.6,668.8C652.3,670.6 653.4,671.9 653.9,671.5C654.5,671.2 655.7,668.4 656.6,665.2C657.5,662.1 659.0,657.2 660.0,654.5C661.0,651.8 662.1,648.4 662.5,647.1C662.9,645.9 663.5,645.2 663.9,645.6C664.3,646.1 665.9,649.4 667.5,653.0C669.0,656.6 670.5,661.9 670.9,664.9C671.2,667.9 672.1,670.5 672.8,670.8C673.5,671.0 675.2,668.6 677.0,664.6C678.7,661.0 680.0,657.6 680.0,657.0C680.0,656.5 679.1,656.0 678.1,656.0C677.0,656.0 675.8,655.5 675.5,655.0C675.1,654.4 676.1,649.8 677.5,644.7C679.0,639.7 680.8,633.1 681.6,630.2C682.4,627.3 683.0,623.9 683.0,622.7C683.1,620.7 683.2,620.6 684.4,622.2C685.1,623.2 687.3,629.5 689.3,636.2C691.3,643.0 693.5,650.4 694.0,652.8C694.6,655.1 695.4,657.0 695.9,657.0C696.4,657.0 697.8,655.0 699.1,652.5C700.4,650.0 701.8,648.0 702.2,648.0C702.7,648.0 703.0,648.3 703.0,648.8C703.0,649.2 703.7,655.2 704.4,662.2C705.1,669.3 706.3,675.7 707.0,676.5C707.8,677.5 709.5,678.0 711.4,677.8C714.5,677.5 714.5,677.5 714.3,648.3C714.2,619.1 714.2,619.1 717.8,617.3C720.6,616.0 723.8,615.5 730.7,615.5C737.8,615.5 740.3,615.9 741.5,617.1C742.8,618.4 743.3,623.9 744.5,648.6C745.3,665.0 746.0,679.1 746.0,679.9C746.0,681.0 743.6,681.1 732.8,680.7C725.5,680.4 710.3,679.7 699.0,679.1C687.7,678.6 668.4,677.6 656.0,677.0C643.6,676.4 628.3,675.5 622.0,675.0C615.7,674.4 600.0,673.3 587.2,672.4C574.4,671.5 563.6,671.0 563.4,671.3C563.1,671.6 563.2,674.5 563.6,677.9C563.9,681.2 564.8,684.7 565.4,685.5C566.4,686.9 566.9,686.9 570.5,685.4C574.0,684.0 576.5,683.8 589.5,684.6C597.8,685.0 608.0,685.4 612.2,685.4C616.5,685.5 620.0,685.8 620.0,686.1C620.0,686.4 630.9,687.0 644.2,687.4C657.6,687.8 688.0,688.7 711.8,689.3C748.0,690.3 755.3,690.8 756.0,692.0C756.5,692.8 757.0,693.8 757.0,694.3C757.0,694.7 754.5,699.7 751.4,705.5C748.3,711.2 742.2,720.2 737.9,725.4C733.0,731.3 725.9,738.2 719.3,743.6C713.3,748.3 707.6,752.6 706.4,753.0C705.3,753.4 702.3,755.2 699.8,756.9C697.3,758.6 691.0,761.7 685.9,763.7C676.5,767.5 676.5,767.5 649.1,767.8C621.7,768.1 621.7,768.1 615.6,765.3C609.5,762.5 609.5,762.5 392.9,762.2C176.4,761.9 176.4,761.9 168.0,764.9C159.6,768.0 159.6,768.0 126.6,767.9zM371.3,756.8C373.0,757.0 373.0,756.8 371.5,754.8C370.7,753.5 367.4,750.6 364.2,748.3C361.1,746.0 354.7,741.7 350.0,738.7C345.3,735.8 337.7,731.2 333.0,728.5C328.3,725.9 324.4,723.3 324.2,722.9C324.0,722.4 323.4,722.0 322.9,722.0C322.4,722.0 317.4,720.0 311.7,717.6C306.1,715.2 293.4,710.3 283.5,706.6C273.6,702.9 263.5,699.1 261.0,698.1C258.5,697.0 252.0,695.0 246.5,693.5C241.0,692.1 230.9,689.8 224.0,688.4C217.1,687.1 205.4,685.4 198.0,684.6C190.6,683.8 179.1,682.7 172.5,682.1C165.9,681.5 147.0,680.3 130.5,679.4C114.0,678.5 96.0,678.0 90.5,678.3C85.0,678.6 79.4,679.2 78.1,679.7C76.3,680.4 76.1,680.8 77.1,681.2C77.9,681.5 82.8,682.3 88.0,683.0C93.2,683.6 100.1,685.0 103.3,685.9C106.7,687.0 108.6,688.0 107.7,688.3C106.9,688.6 104.1,689.2 101.4,689.5C98.7,689.9 95.9,690.6 95.1,691.0C94.4,691.4 98.2,692.6 104.1,693.8C109.8,695.0 119.0,696.7 124.5,697.5C130.0,698.4 138.8,700.0 144.0,701.1C149.2,702.3 159.6,704.4 167.0,706.0C174.4,707.5 184.3,709.7 189.0,710.9C193.7,712.0 203.6,714.5 211.0,716.3C218.4,718.2 233.3,722.3 244.0,725.4C254.7,728.6 276.1,735.4 291.5,740.5C306.9,745.6 321.8,750.9 324.5,752.1C328.8,754.1 332.3,754.6 349.5,755.5C360.5,756.2 370.3,756.8 371.3,756.8zM590.9,756.8C597.7,757.0 598.1,756.9 596.9,755.3C596.1,754.4 591.8,751.9 587.3,749.9C582.8,747.8 574.7,744.5 569.3,742.6C563.9,740.7 557.9,738.5 556.0,737.7C554.1,736.9 546.6,734.8 539.5,733.1C532.4,731.4 514.6,727.5 500.0,724.5C485.4,721.4 469.4,718.1 464.5,717.0C459.6,716.0 448.3,713.8 439.5,712.0C430.7,710.3 420.1,708.3 416.0,707.5C411.9,706.7 404.3,705.3 399.2,704.5C394.1,703.7 380.4,701.6 368.7,700.0C357.1,698.3 342.8,696.3 337.0,695.5C331.2,694.7 318.2,693.3 308.0,692.5C289.5,690.8 289.5,690.8 278.6,693.2C267.7,695.6 267.7,695.6 285.1,700.4C294.7,703.1 310.4,707.7 320.0,710.7C329.6,713.7 347.9,719.6 360.5,723.7C373.1,727.8 388.9,732.6 395.5,734.5C402.1,736.4 412.4,739.0 418.5,740.4C424.6,741.7 436.1,744.0 444.2,745.4C452.2,746.9 463.5,749.5 469.2,751.2C479.5,754.4 479.5,754.4 531.5,755.5C560.1,756.1 586.8,756.7 590.9,756.8zM614.0,731.8C620.4,731.9 621.1,731.7 619.0,730.7C617.6,730.1 616.3,729.3 616.0,729.0C615.7,728.6 609.0,727.1 601.0,725.7C593.0,724.2 582.0,722.3 576.5,721.4C571.0,720.6 558.2,718.8 548.0,717.4C536.6,715.8 522.8,714.7 512.0,714.4C494.5,714.0 494.5,714.0 499.5,716.1C502.2,717.2 509.2,719.3 515.0,720.6C520.8,721.9 530.7,724.2 537.0,725.6C544.9,727.4 554.0,728.5 566.0,729.1C575.6,729.7 588.7,730.5 595.0,730.9C601.3,731.3 609.9,731.7 614.0,731.8zM515.0,698.6C522.5,698.5 522.5,698.5 522.4,695.5C522.3,693.9 521.7,674.0 521.1,651.5C520.4,629.0 519.5,592.0 519.0,569.5C518.4,547.0 517.6,502.9 517.0,471.5C516.5,440.1 515.6,388.4 515.0,356.5C514.4,324.6 513.7,289.1 513.4,277.5C513.1,265.9 512.6,253.3 512.2,249.5C511.5,242.5 511.5,242.5 506.3,242.2C503.4,242.0 499.3,242.4 497.2,243.0C495.0,243.5 492.1,244.9 490.8,246.0C488.3,247.9 488.3,248.1 487.7,269.2C487.3,280.9 486.6,302.2 486.0,316.6C485.5,330.9 484.6,346.9 484.1,352.1C483.5,357.3 482.2,383.1 481.1,409.5C479.9,435.9 478.6,469.2 478.0,483.5C477.4,497.8 476.5,519.0 476.0,530.5C475.5,542.0 474.4,567.2 473.5,586.5C472.7,605.8 471.8,628.0 471.5,636.0C471.2,644.0 470.6,657.7 470.0,666.5C469.5,675.3 469.0,685.5 469.0,689.2C469.0,695.9 469.0,695.9 473.2,696.5C475.6,696.9 484.2,697.5 492.5,697.9C500.8,698.4 510.9,698.7 515.0,698.6zM440.2,683.9C445.5,683.9 450.1,683.6 450.4,683.1C450.7,682.6 451.3,679.1 451.6,675.2C452.3,668.3 452.2,668.1 449.9,667.6C448.6,667.3 443.5,666.6 438.7,666.0C433.9,665.4 421.3,664.0 410.7,662.9C400.1,661.8 385.0,660.3 377.0,659.5C369.0,658.7 358.0,657.6 352.5,657.0C347.0,656.4 333.7,655.1 323.0,654.0C312.3,652.9 299.6,651.5 294.7,650.9C289.9,650.3 285.2,650.1 284.3,650.4C282.9,651.0 282.8,652.7 283.4,663.8C283.8,670.8 284.6,676.9 285.0,677.4C285.5,677.9 294.6,678.5 305.2,678.7C315.8,678.9 336.0,679.5 350.0,680.1C364.0,680.7 381.6,681.4 389.0,681.7C396.4,681.9 408.8,682.5 416.5,682.9C424.2,683.3 434.9,683.8 440.2,683.9zM271.7,678.0C278.0,678.0 278.0,678.0 277.7,665.2C277.5,658.1 277.0,651.9 276.7,651.3C276.4,650.8 273.7,649.8 270.8,649.2C267.9,648.5 261.0,647.5 255.5,646.9C250.0,646.4 241.4,645.5 236.5,644.9C231.6,644.4 226.1,643.7 224.3,643.4C221.5,642.9 220.5,643.4 216.5,647.1C212.0,651.5 212.0,651.5 212.6,663.8C213.3,676.0 213.3,676.0 225.4,676.0C232.1,676.0 243.6,676.3 251.0,676.6C258.4,677.0 264.7,677.4 264.9,677.6C265.1,677.8 268.2,678.0 271.7,678.0zM726.5,675.0C727.7,675.0 729.1,674.2 729.4,673.3C729.8,672.4 729.8,660.2 729.4,646.2C728.7,620.8 728.7,620.8 724.7,621.3C722.5,621.6 720.0,622.5 719.2,623.4C717.9,624.7 717.9,625.6 718.8,628.7C719.4,630.8 719.7,633.6 719.3,634.8C719.0,636.1 719.3,638.2 720.0,639.6C721.0,641.4 721.1,642.6 720.2,644.5C719.4,646.2 719.4,647.8 720.1,650.0C720.7,651.7 720.9,654.2 720.6,655.6C720.1,657.3 720.6,659.2 722.0,661.6C723.6,664.0 724.0,665.8 723.5,668.0C723.1,669.6 723.1,671.9 723.5,673.0C723.9,674.2 725.0,675.0 726.5,675.0zM564.8,663.8C567.5,663.5 567.5,663.4 567.8,654.2C568.0,646.9 568.4,645.0 569.5,645.0C570.3,645.0 571.8,645.8 572.9,646.9C574.7,648.7 574.8,648.7 575.3,645.2C575.7,643.3 575.7,641.3 575.3,640.7C575.0,640.2 573.0,640.0 570.9,640.3C567.0,640.8 567.0,640.8 567.0,635.9C567.0,633.2 567.2,631.0 567.5,631.0C567.9,631.0 569.4,631.7 571.1,632.5C572.7,633.4 574.4,633.8 574.9,633.6C575.4,633.3 576.0,632.1 576.3,631.0C576.6,629.9 576.5,628.8 576.2,628.6C575.8,628.4 571.8,627.9 567.2,627.6C559.0,626.9 559.0,626.9 559.0,632.7C559.0,635.9 559.5,643.5 560.0,649.5C560.6,655.5 561.3,661.3 561.6,662.3C562.0,663.6 563.0,664.0 564.8,663.8zM625.4,662.7C626.0,662.5 627.5,660.6 628.7,658.4C629.9,656.3 631.4,653.9 632.0,653.2C632.8,652.3 633.6,652.3 635.0,653.0C636.0,653.5 637.0,655.1 637.2,656.5C637.4,657.9 638.0,659.2 638.5,659.3C639.1,659.4 639.6,656.5 639.8,652.6C640.0,648.4 639.7,645.3 639.0,644.6C638.1,643.8 637.1,644.4 634.9,647.0C633.0,649.2 631.7,650.1 631.0,649.4C630.5,648.9 629.9,641.1 629.7,632.0C629.4,615.5 629.4,615.5 625.4,615.5C621.5,615.5 621.5,615.5 621.2,622.5C621.0,626.4 621.4,636.4 622.0,644.9C622.6,653.3 623.4,660.9 623.7,661.7C624.0,662.5 624.8,662.9 625.4,662.7zM400.9,655.0C401.2,655.0 402.1,654.6 402.9,654.1C403.7,653.6 404.4,650.6 404.7,646.7C405.3,640.1 405.3,640.1 410.1,640.7C414.2,641.2 415.0,641.0 415.0,639.6C415.0,638.3 414.0,638.0 410.1,638.0C405.5,638.0 405.1,637.8 404.7,635.2C404.4,633.7 404.1,625.3 404.1,616.5C403.9,602.9 403.7,600.3 402.3,599.2C401.4,598.6 400.3,598.0 399.9,598.0C399.5,598.0 398.3,598.8 397.1,599.8C395.0,601.5 395.0,601.5 396.4,621.6C397.2,632.6 398.4,644.7 399.0,648.3C399.7,652.0 400.5,655.0 400.9,655.0zM354.7,651.9C355.3,651.9 356.2,651.5 356.5,651.0C356.9,650.4 356.8,635.3 356.4,617.4C355.8,589.9 355.5,584.7 354.2,584.3C353.4,583.9 350.3,584.5 347.2,585.5C344.2,586.6 340.7,588.3 339.4,589.3C338.1,590.3 337.0,591.8 337.0,592.6C337.0,593.3 338.2,594.3 339.7,594.6C341.2,595.0 343.1,594.8 344.3,594.1C345.6,593.2 346.6,593.2 347.3,593.9C347.8,594.4 348.0,595.5 347.7,596.3C347.4,597.2 346.2,597.6 344.8,597.4C343.1,597.1 341.7,598.0 339.6,600.5C337.9,602.7 337.0,604.6 337.4,605.6C337.9,606.9 338.9,607.1 342.5,606.7C346.5,606.1 347.0,606.3 347.0,608.0C347.0,609.0 346.1,610.1 345.1,610.5C344.0,610.8 342.0,612.0 340.6,613.1C339.2,614.2 338.0,616.0 338.0,617.1C338.0,618.7 338.7,619.0 343.1,619.0C347.3,619.0 348.1,619.3 347.8,620.7C347.6,621.6 346.1,622.8 344.3,623.4C342.5,624.0 340.3,625.3 339.4,626.2C338.5,627.1 338.0,628.6 338.3,629.4C338.7,630.5 340.2,631.0 342.9,631.0C345.5,631.0 347.0,631.5 347.4,632.5C347.7,633.5 347.3,634.3 346.2,634.6C345.3,634.9 343.5,635.6 342.2,636.1C340.5,636.7 340.0,637.7 340.2,639.3C340.4,641.1 341.2,641.6 344.2,641.8C346.3,642.0 348.0,642.6 348.0,643.1C348.0,643.6 347.2,644.3 346.2,644.6C345.3,644.9 343.8,645.5 343.0,645.9C342.2,646.4 341.5,647.3 341.5,648.1C341.5,649.0 343.7,649.9 347.5,650.6C350.8,651.2 354.0,651.8 354.7,651.9zM306.9,646.0C307.4,646.0 308.3,645.3 309.0,644.5C310.1,643.2 310.2,630.8 309.7,581.9C309.3,537.5 308.8,520.4 307.9,519.4C307.3,518.6 305.7,518.0 304.5,518.0C303.3,518.0 299.8,519.0 296.9,520.2C293.9,521.4 290.9,522.9 290.1,523.6C288.8,524.8 288.9,525.2 290.5,526.9C291.9,528.5 292.1,529.8 291.5,532.7C291.2,534.8 290.8,537.3 290.9,538.4C290.9,539.4 291.1,540.4 291.4,540.7C291.6,541.0 293.9,540.0 296.5,538.5C299.5,536.7 301.5,536.1 302.1,536.7C302.7,537.3 303.4,558.8 303.8,590.6C304.2,619.7 304.9,644.1 305.3,644.8C305.8,645.4 306.5,646.0 306.9,646.0zM637.9,643.0C638.4,643.0 639.1,641.7 639.5,640.1C639.8,638.4 639.6,636.2 639.0,635.0C638.0,633.0 637.7,633.0 635.7,634.3C634.5,635.1 633.4,636.4 633.2,637.3C633.0,638.2 633.8,639.8 634.9,640.9C636.1,642.1 637.4,643.0 637.9,643.0zM116.8,638.9C118.1,638.9 119.0,638.4 119.0,637.5C119.0,636.7 118.5,634.0 117.8,631.6C116.8,627.8 116.8,626.8 118.1,625.3C119.0,624.3 120.3,622.0 121.0,620.2C121.8,618.2 122.2,613.2 122.1,607.2C122.1,601.9 121.8,592.1 121.6,585.6C121.3,579.1 120.7,573.3 120.1,572.7C119.5,572.1 117.3,572.2 113.8,573.0C110.6,573.8 107.5,575.4 105.7,577.1C103.5,579.3 103.0,580.5 103.6,582.2C104.0,583.5 104.5,588.3 104.7,593.0C104.8,597.7 105.0,606.9 105.0,613.5C105.0,620.1 105.4,628.2 105.8,631.5C106.5,637.5 106.5,637.5 110.5,638.1C112.7,638.4 115.5,638.8 116.8,638.9zM224.7,637.9C226.0,636.8 226.1,634.1 225.6,619.0C225.2,609.4 224.7,597.1 224.4,591.8C223.9,584.5 223.4,582.0 222.4,582.0C221.7,582.0 218.6,582.9 215.6,584.0C212.6,585.2 209.9,586.7 209.7,587.4C209.4,588.2 209.4,589.8 209.7,590.9C210.1,592.3 211.0,593.0 212.6,593.0C214.0,593.0 215.4,593.7 215.7,594.7C216.1,595.8 215.7,596.8 214.6,597.4C213.6,598.0 211.8,599.3 210.6,600.2C208.8,601.6 208.7,602.2 209.8,603.7C210.5,604.7 213.3,610.0 216.0,615.4C218.8,620.9 221.0,626.7 221.0,628.4C221.0,630.1 221.5,633.2 222.1,635.3C223.0,638.6 223.3,639.0 224.7,637.9zM208.0,634.0C208.5,634.0 209.0,633.6 209.0,633.1C209.0,632.6 208.3,631.7 207.5,631.0C206.7,630.3 206.0,629.3 206.0,628.7C206.0,628.1 206.9,625.7 208.1,623.4C209.7,620.0 209.9,618.7 209.0,617.0C208.4,615.9 207.5,615.2 207.0,615.5C206.5,615.8 205.6,617.8 205.0,620.0C204.4,622.3 202.4,625.4 200.2,627.4C197.5,630.0 196.8,631.2 197.6,632.0C198.4,632.8 199.8,632.9 202.3,632.2C205.1,631.4 206.0,631.5 206.4,632.6C206.7,633.4 207.4,634.0 208.0,634.0zM275.1,634.0C276.2,634.0 277.1,632.3 278.0,628.6C278.7,625.7 279.0,622.6 278.8,621.9C278.5,621.0 277.3,622.1 275.4,624.9C273.8,627.3 272.1,629.9 271.5,630.7C270.8,631.7 270.9,632.3 272.0,633.0C272.8,633.5 274.2,634.0 275.1,634.0zM133.6,632.9C134.2,632.9 135.3,632.3 136.0,631.5C136.7,630.7 136.9,629.9 136.4,629.9C135.9,629.8 135.2,629.8 134.8,629.9C134.4,629.9 132.9,629.5 131.5,629.0C129.4,628.2 129.0,627.6 129.5,625.9C129.9,624.7 131.3,622.2 132.6,620.2C134.1,618.1 135.0,615.5 134.8,614.0C134.6,612.3 133.9,611.5 132.6,611.5C131.2,611.5 129.6,613.6 126.8,619.0C124.7,623.1 122.9,627.1 122.8,627.9C122.6,628.8 124.4,629.9 127.5,631.0C130.2,632.0 133.0,632.8 133.6,632.9zM637.4,631.7C638.0,631.5 638.6,627.9 638.7,623.2C639.0,615.9 638.8,615.1 637.0,614.5C635.9,614.2 634.6,614.2 634.0,614.5C633.5,614.8 633.0,615.8 633.0,616.6C633.0,617.4 633.7,619.2 634.6,620.6C636.1,622.9 636.1,623.2 634.6,624.9C633.7,625.8 633.0,627.0 633.0,627.5C633.0,628.0 633.8,629.2 634.7,630.2C635.6,631.2 636.8,631.9 637.4,631.7zM368.5,631.0C371.5,631.0 374.2,630.5 374.5,630.0C374.8,629.4 373.9,628.5 372.5,628.0C371.1,627.4 368.4,627.0 366.6,627.0C364.8,627.0 363.1,627.3 362.7,627.6C362.4,627.9 362.4,628.8 362.7,629.6C363.0,630.6 364.9,631.0 368.5,631.0zM453.5,630.3C454.3,630.1 455.2,628.9 455.6,627.8C455.9,626.7 455.8,625.4 455.2,624.8C454.7,624.3 453.4,624.0 452.4,624.2C451.4,624.4 450.4,625.3 450.2,626.3C450.0,627.3 450.4,628.7 451.0,629.5C451.6,630.3 452.8,630.6 453.5,630.3zM52.3,627.0C53.0,627.0 54.5,626.3 55.7,625.5C56.9,624.6 58.2,622.4 58.6,620.4C58.9,618.5 59.0,616.7 58.7,616.4C58.5,616.1 56.6,618.1 54.6,620.8C52.6,623.5 51.0,626.0 51.0,626.4C51.0,626.7 51.6,627.0 52.3,627.0zM242.8,617.8C245.8,618.0 247.0,617.6 247.0,616.6C247.0,615.8 246.2,614.9 245.3,614.6C244.4,614.2 241.0,613.7 237.8,613.3C232.4,612.8 232.0,612.9 232.0,614.8C232.0,616.4 232.8,617.0 235.2,617.3C237.0,617.5 240.4,617.8 242.8,617.8zM368.6,618.0C371.8,618.0 373.0,617.6 372.8,616.8C372.5,616.1 370.7,615.1 368.7,614.6C366.1,613.9 364.6,614.0 363.9,614.7C363.3,615.3 363.1,616.3 363.4,616.9C363.8,617.5 366.2,618.0 368.6,618.0zM369.8,605.0C372.7,605.0 374.0,604.6 373.8,603.8C373.6,603.2 371.5,602.0 369.2,601.2C365.7,600.1 364.7,600.0 363.4,601.1C362.0,602.3 362.0,602.5 363.6,603.7C364.6,604.4 367.4,605.0 369.8,605.0zM241.8,603.9C244.9,604.0 246.0,603.6 246.0,602.5C246.0,601.7 244.8,600.7 243.2,600.3C241.7,599.9 238.5,599.6 236.0,599.6C232.7,599.5 231.5,599.9 231.5,601.0C231.5,601.8 232.8,602.8 234.5,603.1C236.2,603.5 239.4,603.8 241.8,603.9zM371.7,591.9C372.3,591.9 373.1,591.6 373.5,591.1C373.8,590.5 373.3,589.7 372.3,589.2C371.3,588.7 368.6,588.0 366.3,587.7C363.9,587.4 361.7,587.6 361.4,588.2C361.1,588.7 361.1,589.4 361.4,589.8C361.8,590.1 363.9,590.7 366.3,591.1C368.6,591.4 371.0,591.8 371.7,591.9zM243.4,590.6C245.0,590.6 246.5,590.0 246.7,589.4C246.9,588.8 244.7,587.8 241.4,587.1C238.2,586.5 234.6,586.0 233.3,586.0C231.9,586.0 231.0,586.6 231.0,587.5C231.0,588.3 232.0,589.2 233.2,589.5C234.5,589.7 236.6,590.1 238.0,590.4C239.4,590.6 241.8,590.7 243.4,590.6zM299.5,530.8C298.3,531.0 297.1,530.8 296.7,530.4C296.3,530.0 296.0,529.3 296.0,528.9C296.0,528.5 296.7,527.4 297.6,526.6C298.4,525.7 299.8,525.0 300.6,525.0C301.7,525.0 302.0,525.8 301.8,527.8C301.6,529.6 300.8,530.6 299.5,530.8zM308.1,506.9C307.4,508.0 307.1,508.0 306.4,506.9C305.9,506.1 305.3,503.7 305.0,501.5C304.6,498.0 304.1,497.5 301.7,497.2C298.9,496.9 298.9,496.8 300.6,494.9C301.5,493.9 302.9,493.0 303.5,493.0C304.2,493.0 305.4,492.3 306.1,491.4C307.3,490.0 307.5,490.0 308.1,491.7C308.5,492.7 308.9,496.2 308.9,499.5C308.9,502.8 308.6,506.1 308.1,506.9zM459.9,226.8C462.4,224.6 468.2,220.9 472.8,218.8C478.0,216.3 484.8,214.1 491.3,212.8C499.7,211.2 503.8,210.9 514.5,211.4C521.6,211.7 530.4,212.6 534.0,213.4C537.6,214.2 543.0,215.8 546.1,216.9C549.1,218.1 554.2,220.6 557.4,222.5C560.6,224.4 563.4,226.0 563.6,226.0C563.8,226.0 564.0,224.9 564.0,223.5C564.0,222.1 563.4,219.5 562.7,217.7C561.9,215.9 560.0,213.0 558.4,211.1C556.7,209.1 552.6,206.3 548.5,204.5C544.7,202.7 537.7,200.2 533.0,199.0C525.9,197.1 522.1,196.7 509.5,196.7C496.6,196.7 493.1,197.1 484.7,199.3C479.3,200.7 473.2,202.9 471.2,204.1C469.2,205.3 465.6,207.9 463.2,209.7C460.9,211.6 458.3,214.4 457.5,216.0C456.7,217.5 455.6,220.8 455.0,223.3C454.5,225.8 454.3,228.6 454.6,229.4C455.1,230.7 456.2,230.1 459.9,226.8zM559.1,198.0C558.7,198.0 557.6,197.1 556.5,196.0C555.4,195.0 551.2,192.3 547.1,190.0C543.0,187.8 539.0,186.0 538.1,186.0C537.2,186.0 534.6,185.1 532.2,184.0C528.4,182.3 528.0,181.8 528.6,179.5C528.9,178.1 528.9,175.9 528.6,174.5C528.2,173.1 527.6,172.0 527.0,172.0C526.5,172.0 525.9,172.8 525.7,173.8C525.4,174.7 524.9,176.7 524.6,178.2C524.1,180.6 523.5,181.0 520.5,181.0C518.7,181.0 516.0,180.6 514.6,180.0C512.5,179.2 512.1,178.4 511.8,174.3C511.6,170.8 511.1,169.5 510.0,169.5C508.9,169.5 508.4,170.8 508.2,174.3C507.9,178.4 507.5,179.2 505.4,180.0C504.0,180.6 501.4,181.0 499.6,181.0C496.4,181.0 496.2,180.8 495.7,176.5C495.5,173.9 495.0,171.6 494.6,171.3C494.3,171.0 493.4,171.3 492.5,172.0C491.6,172.8 491.0,174.9 491.0,177.7C491.0,181.9 490.9,182.1 486.4,184.0C483.9,185.1 481.2,186.0 480.4,186.0C479.5,186.0 479.0,184.9 479.0,182.8C479.0,181.0 478.6,178.9 478.1,178.1C477.4,177.0 476.8,177.0 474.4,178.1C471.8,179.4 471.5,180.1 471.2,185.2C470.9,190.8 470.8,190.9 466.0,194.0C463.3,195.7 460.3,197.0 459.4,196.8C458.5,196.6 456.0,192.5 453.4,187.0C449.5,178.5 449.0,176.7 449.0,170.2C449.0,164.4 449.5,161.8 451.6,157.5C453.1,154.2 456.0,150.4 458.8,148.0C461.4,145.8 466.6,142.5 470.5,140.5C474.4,138.6 481.8,135.9 487.0,134.6C492.2,133.3 499.9,131.9 504.0,131.6C508.1,131.2 515.8,131.4 521.0,132.0C526.2,132.6 532.9,133.8 535.9,134.6C538.8,135.4 544.9,137.8 549.5,139.9C555.3,142.6 559.3,145.4 563.2,149.3C566.4,152.4 569.3,156.5 570.0,158.6C570.8,160.9 571.0,164.7 570.7,168.4C570.3,172.3 568.8,177.3 566.7,182.0C564.8,186.1 562.5,191.4 561.5,193.8C560.5,196.1 559.4,198.0 559.1,198.0zM458.6,183.0C458.9,183.0 461.0,181.5 463.3,179.6C465.6,177.8 470.2,174.9 473.5,173.2C476.8,171.6 482.6,169.2 486.5,168.0C491.4,166.4 497.1,165.6 505.6,165.3C512.8,165.0 520.5,165.2 524.6,165.9C528.4,166.6 535.0,168.0 539.3,169.2C543.9,170.4 549.5,172.8 553.1,175.1C556.4,177.3 559.5,179.0 560.0,179.0C560.6,179.0 561.0,178.4 561.0,177.6C561.0,176.8 558.8,174.2 556.2,171.8C553.5,169.5 548.4,166.1 544.9,164.3C541.2,162.5 534.0,160.2 528.3,159.1C522.2,157.8 514.3,157.0 508.5,157.0C502.7,157.0 494.8,157.8 488.8,159.0C483.3,160.2 476.5,162.2 473.7,163.6C471.0,165.0 466.5,168.2 463.8,170.8C461.1,173.3 458.4,176.2 457.9,177.2C457.3,178.3 457.2,180.0 457.5,181.0C457.9,182.1 458.4,183.0 458.6,183.0zM457.7,169.0C458.5,169.0 461.2,167.6 463.8,165.8C466.4,164.0 471.4,161.5 475.0,160.2C478.6,158.9 484.9,156.9 489.0,155.8C494.7,154.3 499.8,153.8 510.0,153.7C517.4,153.7 526.9,154.2 531.0,154.8C535.1,155.5 541.8,157.2 545.8,158.7C549.8,160.1 553.2,161.1 553.4,160.9C553.7,160.7 553.5,158.0 553.2,155.0C552.5,149.5 552.5,149.5 539.7,144.4C531.6,141.1 523.9,138.8 519.1,138.1C513.6,137.3 508.2,137.2 500.9,137.9C494.9,138.5 487.3,140.0 483.2,141.4C479.1,142.7 473.4,145.4 470.3,147.2C467.3,149.0 463.1,152.4 461.0,154.6C458.9,156.9 456.7,160.4 456.1,162.5C455.6,164.5 455.4,166.8 455.7,167.6C456.0,168.4 456.9,169.0 457.7,169.0zM492.9,127.0C491.8,127.0 490.6,126.2 490.2,125.2C489.8,124.3 489.5,120.3 489.5,116.4C489.5,110.6 489.9,108.8 491.5,107.0C492.6,105.8 495.6,103.7 498.2,102.4C501.4,100.8 504.6,100.0 508.3,100.0C511.2,100.0 515.8,100.7 518.4,101.6C521.1,102.5 523.8,104.3 524.7,105.7C525.7,107.1 526.7,111.0 527.2,114.4C527.6,117.7 527.7,122.0 527.3,123.9C526.7,127.2 526.7,127.2 522.6,126.6C520.4,126.2 516.4,125.6 513.8,125.3C509.1,124.8 509.1,124.8 508.8,115.6C508.5,106.9 508.4,106.5 506.2,106.2C504.9,106.0 502.5,106.4 500.9,107.1C499.2,107.7 497.5,109.1 496.9,110.2C496.3,111.3 496.0,114.9 496.1,118.4C496.2,121.8 496.0,125.2 495.6,125.8C495.2,126.5 494.0,127.0 492.9,127.0zM498.6,94.8C495.7,95.2 495.7,95.2 496.4,83.8C496.8,77.6 498.4,59.7 500.0,44.0C501.6,28.3 503.5,13.7 504.2,11.6C504.9,9.4 506.0,7.5 506.6,7.3C507.2,7.1 508.2,8.1 508.8,9.5C509.4,10.8 510.6,17.7 511.5,24.7C512.3,31.8 513.4,42.9 514.0,49.5C514.6,56.1 515.5,68.6 516.1,77.3C516.8,87.5 516.9,93.5 516.3,94.1C515.7,94.7 514.2,94.8 512.8,94.5C510.3,93.9 510.3,93.9 509.6,71.7C509.2,59.5 508.5,44.1 507.9,37.5C507.3,30.9 506.6,25.3 506.4,25.1C506.2,24.9 505.8,24.9 505.6,25.1C505.3,25.3 504.6,34.1 504.0,44.5C503.4,55.0 502.6,70.5 502.2,79.0C501.5,94.5 501.5,94.5 498.6,94.8z" />

</svg>