<svg xmlns="http://www.w3.org/2000/svg" width="918" height="812" viewBox="0 0 918 812"><style type="text/css">.st0{fill:#4483c1;}</style><path class="st0" d="M918 690.5c0-5-2.2-9.7-6.2-12.8-10.9-8.6-24.5-13.1-38.3-12.5-16.2.7-29.7 13.3-31.4 29.4l-1 9.2h-4v-22.6c0-.2.1-.6.3-.8l9-11.9c.3-.5.4-1 .2-1.5s-.7-.7-1.3-.7h-46.9v-21.3h5.9v17c0 1 .8 1.8 1.8 1.8h96.4c1 0 1.8-.8 1.8-1.8v-660.2c0-1-.8-1.8-1.8-1.8h-275.7c-1 0-1.8.8-1.8 1.8v4.5c0 1 .8 1.8 1.8 1.8h271.9v1.5h-274.8c-1 0-1.8.8-1.8 1.8v6.6c0 1 .8 1.8 1.8 1.8h274.2v6.1h-273c-.5 0-1 .2-1.3.6-.3.4-.4.9-.3 1.4l2.5 12c-.4 1-.3 2.1.2 3l1.1 10.2.1 1.4v56.7h-7.4c-1 0-1.8.8-1.8 1.8v430.9c0 .5.2 1 .6 1.3.4.3.9.3 1.4.2l13.2-4.7c.3-.1.8-.2 1.1-.2h112l-15.6 13.8h-11l.1-.1c.8-.9 1-2.2.5-3.3-.5-1.1-1.6-1.8-2.8-1.8h-19.6c-1.2 0-2.2.6-2.8 1.7-.5 1-.4 2.3.3 3.2l2.4 3.3c.3.4.7.9 1.1 1.3l2.9 2.9c.1.1.2.4.2.6v9.4h-17.2v-19.6c0-.4.1-1 .1-1.3 0-.1.4-2.2-1.1-4-1.2-1.4-3.1-2.1-5.7-2.1-6.6 0-29.2.6-29.5.6-.5 0-1.3.2-1.8.3l-3.9 1.4c-.7.3-1.3 1-1.4 1.8l-.5 4.4c0 .1-.1.2-.1.2l-5.8 2.1c-.8.3-1.4 1.1-1.4 1.9v21.5c0 1 .8 1.8 1.8 1.8h7.5v34.8h-8.1c-.9 0-1.7.8-1.8 1.7-.6 13.9-1.1 30.8.3 32.2.5.5 1.2 1.2 73.7.8 35.7-.2 71.6-.5 72-.5 1 0 1.7-.8 1.7-1.8v-2.7h15v21.3h-169.8v-111.9c0-.5-.2-.9-.6-1.3-.4-.3-.8-.5-1.3-.4l-8.4 1.1c-.6.1-1 .4-1.2.9-.2.5 0 1 .4 1.4l2.9 2.9c.1.1.2.4.2.6v117.6h-2.2c-1 0-1.8.8-1.8 1.8v30.7c0 1 .8 1.8 1.8 1.8h2.2v85.3c0 .3.1.6.2.9-2.1.1-3.1.2-3.6.2-.6 0-.5 0-1.1-.1-.6-.1-1.7-.4-4.3-.8l-2.2-.4c-3.4-.6-6.9-1.3-10.4-.6-2.2.4-4.3 1.3-6.3 2.2-1.4.6-2.8 1.2-4.2 1.7-5 1.5-10.7.8-15.6.2-5.2-.6-10.6-1.3-15.8-2.7-3-.8-6.1-2-9.3-3.2-8.8-3.4-17.9-6.8-27-3.6-3.8 1.4-7.2 3.8-10.4 6.2-4 2.9-7.7 5.7-12.3 6.5-3.2.6-6.5.1-10-.4-3.3-.5-6.8-1-10.2-.5-1.5.2-2.9.6-4.3 1.1-2.4.7-4.6 1.3-6.9 1.1-3.8-.4-6.9-3.2-10.2-6.2-3.7-3.4-7.5-6.9-12.5-6.5-7.1.5-12.7 4.7-18.1 8.9-5.5 4.2-11.2 8.6-18.6 8.9-5.8.2-11.7.1-17.4.1l-8.7-.1-379 .3.1 2 378.9-.5c2.9 0 5.8 0 8.7.1 5.7.1 11.7.1 17.5-.1 8-.3 13.9-4.9 19.7-9.3 5.4-4.1 10.5-8 17-8.5 4.2-.3 7.5 2.8 11.1 6 3.3 3.1 6.8 6.2 11.3 6.7 2.7.3 5.2-.4 7.7-1.1 1.3-.4 2.7-.8 4.1-1 3.1-.5 6.3 0 9.6.5 3.5.5 7.1 1 10.6.4 5-.9 9.1-4 13.1-6.9 3.1-2.3 6.3-4.7 9.9-5.9 8.4-3 17.2.3 25.6 3.5 3.1 1.2 6.4 2.4 9.5 3.3 5.3 1.4 10.8 2.1 16.1 2.8 5.2.6 11 1.4 16.4-.3 1.5-.5 3-1.1 4.5-1.8 2-.9 3.9-1.7 5.9-2.1 3.1-.6 6.5 0 9.7.6l2.2.4c2.5.4 3.6.7 4.2.8.8.2.9.2 1.7.1.6-.1 1.7-.2 4.3-.2l21.8-.8c5.5-.2 11.2-.4 16.8.1 2.9.3 5.6.1 8.2 0 1.7-.1 3.4-.2 5.2-.2v-.2h245.6v-1h1v-92.7h-.2c.1-.2.2-.5.2-.8v-13.4zm-119.7-47.5v-12.8h5.9v12.8h-5.9zm-80.6 3.6l.3-2.6h5.1l.2 2.6c0 .4.2.8.4 1.1h-6.6c.4-.3.6-.6.6-1.1zm-1.9-.9l-.2-1.7h.4l-.2 1.7zm2.5-3.7l2.7-22.2 2 22.2h-4.7zm6.8 2h1.3l-.6 2.4c0 .1-.1.2-.3.2-.2 0-.2-.2-.2-.2l-.2-2.4zm2.7 2.9l.7-2.9h8.7l.2 3 .1.6c-3.3 0-6.7 0-10.1.1.2-.3.3-.5.4-.8zm7.4-29.2c.2 0 .2.1.2.1l1.6 24.2h-8l6-24.2s0-.1.2-.1zm4 26.3h.3l-.2 1.3-.1-1.3zm1.8 3.2l.5-3.2h6.9l.3 3.1c0 .1 0 .3.1.4-2.6 0-5.2 0-7.9.1l.1-.4zm.8-5.2l3.9-24.3 2.4 24.3h-6.3zm10.2 5.1l.3-3.1h4.8l.4 3.4v.1h-5.5v-.4zm.5-5.1l1.9-21.4 2.4 21.4h-4.3zm6.6 2h.9l-.5 3.2-.4-3.2zm2.9 0h5.5v3.4c-2 0-4 0-6.1.1l.6-3.5zm5-26.6c.1 0 .4 0 .5.3v24.3h-5.2l4.2-24.2c.1-.4.4-.4.5-.4zm-2.5.1l-4.2 24.5h-1.5l-2.8-24.9h8.6c0 .1 0 .2-.1.4zm-14 24.5h-.3l-2.5-24.5-.1-.4h5.1l-2.2 24.9zm-6.7-24.6l-4 24.6h-.8l-1.7-24.3-.1-.6h6.7c0 .1 0 .2-.1.3zm-10.7 0l-6.1 24.6h-2l-2.2-24.7v-.3h10.5c-.2.2-.2.3-.2.4zm-13.9-.1l-3 24.7h-.9l-3-24.3c0-.2-.1-.4-.2-.6h7.2s-.1.1-.1.2zm-19.4 30.5h-7.5l-.2-3.8h9.1l-.9 3.8h-.5zm-54.5-16.5l2.8-12.3v28.1c0 .2 0 .4.1.6h-2.9v-16.4zm-2 16.4h-1.8v-.1l1.7-7.5v7.6zm6.8-30.6h6.7l-.1.2-6.5 28.3v-28c0-.2-.1-.4-.1-.5zm-4.8 5.3v-5.3h1.2v.1l-1.2 5.2zm6.5 25.2l6.9-29.8c0-.1 0-.2.2-.1.1 0 .2.1.2.1l2 28.7c0 .1 0 .2.1.4l-.4.4.6.7c-3.5 0-6.7 0-9.6-.1-.1-.2-.1-.3 0-.3zm11.1-2.5l-1.9-27.5c0-.2-.1-.4-.1-.5h.6l.6.7.7-.7h4.8c-.1.1-.1.3-.1.4l-4.6 27.6zm38.3-65.8l1.9-.8c.8-.3 1.3-1.1 1.3-2v-3.5h5.1l-8.2 7.2-.1-.9zm34.4-8.3h-20.8l17.1-15.1h20.1l-16.4 15.1zm19.4-15h2.6l-16 15.1h-3l16.4-15.1zm-21.6 17l-4.3 3.9h-9.7c-1 0-1.8.8-1.8 1.8v7h1.9l-15.9 14.6v-8.5c0-.5-.1-1.2-.2-1.7l-1.6-6.4c-.1-.3-.2-.7-.2-1.1l10.8-9.6h21zm-6.4 6l-7.3 6.7v-6.7h7.3zm-40.7 63h-.7l-1.8-13.8 4-3.8-1.5 17.6zm2.9-11.4l.7 11.4h-1.7l1-11.4zm-3.1 13.4l-.1 1.2-.2-1.2h.3zm-11.3-6.3v-1.1l1.9-1.8-.5 7.2h-.7l-.7-4.3zm4.9-15.3l.3-4.6c0-.1 0-.1.2-.2.1 0 .2.1.2.1l.5 3.5-1.2 1.2zm1.4 1.4l.5 3.6-2.5 2.4.3-4.4 1.7-1.6zm1.2-6.2l-.1-.5h3.3l-2.9 2.7-.3-2.2zm-4.3.2l-.5 6.7-3.8 3.5c-.1.1-.2.2-.3.4l-1.6-10.8-.1-.4h6.6c-.2.1-.3.3-.3.6zm-3.2 12.2c0-.1.1-.4.2-.5l2.3-2.1-.3 4.5-2.2 2v-3.9zm4.1 2.8l3-2.9 1.6 12.1h-5.3l.7-9.2zm4.5-7l-.5-3.6 5.5-5v.3l-.3 4-4.7 4.3zm7.1-8.3c0-.1 0-.3-.1-.4h2.2l-2.1 2v-1.6zm3.3-2.4h-3.2l3.2-2.9v2.9zm2 2h5.9v19.7h-5.9v-19.7zm1.9-2l4-3.8v3.8h-4zm-1.9-1v-3.8l5.9-5.4v3.6l-5.9 5.6zm4.2-29.9l1.6 6.5c.1.3.2.9.2 1.2v10.3l-5.9 5.4v-19.8l4.1-3.6zm-6.2 19.4h-15.8l15.8-14v14zm0 2v3.8l-6.1 5.6h-22.7l10.7-9.5h18.1zm-24.4 12.2c0-.1 0-.1.2-.1.1 0 .2.1.2.1l2.8 18.2-7.2 6.7 4-24.9zm6.6 26.2l-.1 1.3-.2-1.3h.3zm1.9 2.4l.2-2.4h5.8l.4 3.1c0 .3.2.6.3.8h-7.5c.4-.3.7-.9.8-1.5zm9.9.5l.3-2.9h2l.2 3.8h-2.8c.2-.2.3-.5.3-.9zm4.1-4.9l-1.2-20.4 3.1-2.9v18.3c0 1 .8 1.8 1.8 1.8h6.4c.2 0 .3 0 .5-.1l-.8 3.3h-9.8zm11.8-24.9h4c-.1.1-.1.3-.1.4l-3.8 16v-16.4zm5.8.8c.1-.3.3-.3.4-.3.2 0 .3.1.4.3l3 24.1h-9.6l5.8-24.1zm-5.8-2.8v-5.7l14-13.2v18.9h-14zm0-8.5v-3.6l26.2-24.1h3.2l-29.4 27.7zm28.4-29.6l4.3-3.9h3l-4.2 3.9h-3.1zm10.2-4h12.7v3.9h-16.8l4.1-3.9zm12.9-2h-10.7l16-15.1h18.8v13.1h-2.7v2h2.7v5.9h-22.3v-4.2c0-.9-.8-1.7-1.8-1.7zm11.8-40.1l.2-.6v-.7 1.3h-.2zm-109.5 0l-.6-3.8 1.4-1.3-.6 5.1h-.2zm-8.4 0l-3.8.1v-18.8l3.6-13.5c.1-.5.6-.5.7-.5.1 0 .6.1.7.6l4.4 27.6-4.8 4.4-.3.2h-.5zm6.7-340.9c.2-.5.4-1.2.5-2l1.4-26.6c.2-1.6.7-2.1.9-2.1.1 0 .7.6.9 2.2l1.6 26.4c0 .6.1 1 .3 1.5l-.5.4-.2.2h-4.9zm-17.6-24.4c-.7-.5-1.5-1.4-1.5-2.3 0-.7.2-2.4.5-4.2.4-2.6.8-5.9.8-8.3 0-1.5 1.1-2.7 2.5-2.9-.3.8-.5 1.6-.5 2.3 0 1-.2 1.8-.5 2.8-.4 1.3-.8 2.9-.8 5.5v.3l-.5 6.8zm7.7-25.5l-2-3.9c-.7-1.4-2.3-2-3.7-1.4l-4.9 2.1c-.3.1-.6.1-.8-.1-.3-.2-.4-.4-.4-.8 0-.1 0-.3.1-.4l2-4.4c.1-.3.5-.5.8-.5h69.8l-16.4 15.1h-46.5c.5-.9 1.1-1.8 1.9-2.7.5-.8.6-2 .1-3zm77.3-21.8h16.7l-3.6 3.3h-16.6l3.5-3.3zm-6.5 3.3h-91.9v-3.3h95.4l-3.5 3.3zm8.1-24.6h18.7l-13.1 12.1h-5.6v-12.1zm-10.6 0h4.6v6.2h-4.6v-6.2zm0-2v-8.9h4.6v8.9h-4.6zm-61.2-51.6l149.4-1.3c-.5.6-.7 1.4-.7 2.2v2.2c0 .5.1 1 .3 1.5l1.7 3.7h-81.4l.3-3.7c.1-.8-.2-1.7-.8-2.3-.6-.6-1.4-1-2.2-1-1 0-2 .5-2.5 1.3l-1.4 2.1c-.2.3-.5.5-.9.5h-2.8c-.6 0-1-.5-1-1v-1c0-1.1-.6-2.1-1.5-2.6-1-.5-2.1-.5-3 0l-2.4 1.5c-1 .6-1.5 1.7-1.5 2.8l.2 3.4h-51.1l1.3-8.3zm223.5 12.7l-.6-11.1v-2.9c0-.4.3-.7.7-.7h9.3c.2 0 .4.1.5.3l1.8 2.6c.8 1.2 2.4 1.5 3.7.7.3-.2.6-.1.7 0 .1.1.4.2.4.6v3.1c0 .4-.3.7-.7.7h-9.1c-1.5 0-2.7 1.2-2.7 2.7v5.5c0 .3.1.5.2.8-.1.2-.2.5-.2.8v52.4c0 1 .8 1.8 1.8 1.8h13.4v3.3h-144.5l5.8-5.2h48.2c1 0 1.8-.8 1.8-1.8v-54.7c0-.6-.2-1.3-.4-1.8l-2.7-6c-.1-.2-.1-.4-.1-.7v-2.2c0-.8.5-1.4 1.2-1.6.6-.1 1.8-.3 2.2.3.7 1.1 1.7 2.8 2.3 4 .8 1.4 2.4 2.2 4 1.9l2.2-.5c1.5-.3 2.5-1.5 2.8-2.9.1-.8.8-1.4 1.6-1.4h.2c.5 0 .9.2 1.2.5.3.3.5.8.4 1.2l-1 11.3h-6.2c-1 0-1.8.8-1.8 1.8v50.4c0 1 .8 1.8 1.8 1.8h3.1c1 0 1.8-.8 1.8-1.8v-41.6h1.3v41c0 1 .8 1.8 1.8 1.8h52.4c1 0 1.8-.8 1.8-1.8v-51.1c-.3-.4-.3-1.1-.4-1.5zm12.9 73.4l2.7 7.1c.2.6.9 1.3 1.5 1.6.3.1 1 .6 1.1 1.2.1.5-.4 1.3-1.4 2.1-.7.6-1.3 1.1-1.9 1.6-1 .8-1.9 1.8-2.6 2.8h-4.6l-.3-1.7c-.1-.7-.6-1.4-1.2-1.8-.6-.3-2.2-1.6-2.2-2.7 0-1.5.9-7 1.2-9 .1-.5 0-1-.4-1.3-.3-.4-.8-.6-1.3-.6h-142.5l5.8-5.2h155v3.9h-7.5c-.5 0-1 .2-1.3.6-.3.4-.3.9-.1 1.4zm12.8 413.9l-6.5-.5v-13.2c0-.2 0-.3.1-.5l1.2-5.2c.1-.3.1-.6.1-.9v-7.2c0-2.2-1.7-4-3.9-4.2l-12.3-.9c-2.3-.2-4.3 1.5-4.5 3.8l-.8 8.7c-.2 1.6.6 3.2 2 4 .7.4 1.1 1.1 1.1 1.9v12.3h-5.9v-98.9h-.2c.1-.2.2-.5.2-.8v-37.3c0-.3-.1-.5-.2-.8h.2v-147.1c0-.3-.1-.5-.2-.8h1.5v-108h8.6l1.5 8.3c.2 1 1 1.6 2 1.5 1-.1 1.7-.9 1.7-1.8v-.7c0-2.6.7-5.1 2.1-7.2h12.3v395.5zm0 3.3h-25.2c-1 0-1.8.8-1.8 1.8v5.1c0 .6.2 1.4.6 1.9l1.8 2.7c.4.6 1.3 1.1 2 1.1h12.1v15.1h-8.1c-.8 0-1.6.5-2 1.2l-1.9 3.3c-.3.6-.4 1.5-.3 2.1l.9 3.2c.1.5.4 1.1.6 1.6l2 3.9c.1.2.2.7.2 1v55.8c0 .1 0 .2-.1.3l-4.5 4.5-2.6 2.2v-75.5c0-1-.8-1.8-1.8-1.8h-48.5c-1 0-1.8.8-1.8 1.8v77.1h-11.1v-64.1c0-.1.1-.3.3-.3h1.4c1.2 0 2.3-1 2.3-2.3v-5.8l1.4-3.8c.2-.6.2-1.2-.1-1.8-.3-.6-.7-1-1.3-1.2l-1.9-.6c-.1 0-.2-.1-.2-.2v-2.4c0-.1.1-.3.3-.3h3.3c.1 0 .2 0 .2.1l1.2 2c.4.7 1.2 1.1 2 1.1h50.4c1 0 1.8-.8 1.8-1.8v-16.7c0-1-.8-1.8-1.8-1.8h-47.5v-2.2c0-1-.8-1.8-1.8-1.8h-12.3c-1 0-1.8.8-1.8 1.8v3.1c0 1 .8 1.8 1.8 1.8h6.4l.4 1.3h-11.1v-2.2c0-.7-.4-1.6-1.1-2l-5.5-3.8c-2.4-1.6-3.8-4.2-3.9-7.1h2.8c1 0 1.8-.8 1.8-1.8v-.9h1.9v.2c0 1 .8 1.8 1.8 1.8h22.5l-1.2 1.7c-.3.5-.4 1-.2 1.5s.7.7 1.3.7h22.2c1 0 1.8-.8 1.8-1.8v-2.2h28.5c1 0 1.8-.8 1.8-1.8v-13.2h.7c1.1 0 2.7-.1 4.9-.2 4-.3 6.7-.9 8.1-1.8l-.5 2.2c-.1.3-.1.6-.1.9v13.6c0 .9.7 1.7 1.7 1.8l6.9.5v1.4zm-10.3 29.6h.1l1.5 2.8c.3.6 1 1.2 1.6 1.4.2.1.4.2.4.3 0 .1-.2.7-1.4 1.6-.5.3-.9.6-1.2.9.1-.2.1-.5.1-.6 0-.9-.7-1.7-.8-1.9-.5-.6-1.5-.9-2.3-.6h-.1c-.7.3-1.4 1-1.5 1.7l-.4 2c0 .2-.2.5-.4.7-.4.4-1.7 1.4-2.8 1.6h-.1v-1c.4 0 .8-.2 1.3-.5 2-1.1 1.5-2.7 1.3-3.4-.1-.2-.1-.4-.1-.5 0-1.2-1.1-3.1-1.4-3.4l-1.7 1.1c.5.8 1 1.9 1 2.3 0 .5.1.8.2 1.2.2.7.2.7-.3 1-.5.3-.7.2-.8.2-.2-.1-.7-.2-1.1.1-.4.3-.4.6-.4 1.2l-.4-1-.9-3.2c0-.1 0-.5.1-.6l1.9-3.3c0-.1.2-.1.3-.2h8.3zm-13.4 77.5l1.3-1.1.2-.1 4.5-4.5c.4-.4.7-1.1.7-1.7v-55.8c0-.6-.2-1.4-.4-1.9l-.2-.4c.3 0 .5 0 .8-.1 1.8-.4 3.5-1.9 3.7-2 .5-.4.9-1.2 1-1.8l.4-2c0-.1.1-.2.2-.2h.2c.1.1.3.4.3.5 0 .3-.5 1.7-.9 2.9l.2.1c-.2.4-.3.7-.3 1v60.8c0 .7.3 1.3.8 1.8l6.1 5.7c.1.1.1.2.1.3 0 .2-.2.4-.4.4h-17.9c-.2 0-.4-.2-.4-.4v-1.5zm-4.6.7h-48v-34.4h48v34.4zm0-59.5h-48v-16.7h48v16.7zm0 23.1h-48v-21.1h48v21.1zm-62.1-28.9v-.4l-4.3.3 2.3-2.8c1.2.8 2.2 1 2.9.6.4-.3.9-.8.8-2.2-.1-.9-.7-1.7-1.6-1.9-.3-.1-.7-.1-1-.1l.6-3.9c.1-.8-.2-1.5-.7-2l-2.4-2.1-1.3-2.3h5.8v2.7c0 1 .6 1.8 1.5 2.1l1.9.6c.1 0 .1.1.1.1v.2l-1.4 3.8c-.1.3-.1.5-.1.8v5.7c0 .1-.1.3-.3.3h-1.4c-.6.1-1 .2-1.4.5zm-13.5 9.4v-12.8h5.9v12.8h-5.9zm6 2v12.8h-5.9v-12.8h5.9zm-5.8-47.7l5.5 3.8c.1.1.2.3.2.4v2.2h-2.8c-.2 0-.6-.1-.8-.2l-6-4.4c-.5-.4-1.3-.6-1.9-.6h-11.4v-12.4h17.1v.6h-2.8c-1 0-1.8.7-1.8 1.6-.1 3.5 1.7 6.9 4.7 9zm-5.8 3.1c.2 0 .6.1.8.3l6 4.4c.5.4 1.3.6 1.9.6h2.8v7.9h-23v-13.2h11.5zm27.4 8.7l7.1 2.2c.3.1.8.3 1.1.5l4 2.5c.5.3 1.3.6 1.9.6h10.3c.4 0 1 0 1.4.1l6.4.5h1.7l7-.5c.6 0 1.5-.4 1.9-.9l2.9-2.9c.6-.6.8-1.5.5-2.3l-1.4-3.9c-.3-.8-1.1-1.4-2-1.4h-43.5l-.6-1.9c-.2-.8-1.1-1.4-1.9-1.4h-6.1v-2.6h11.8v2.2c0 1 .8 1.8 1.8 1.8h47.6v16.4h-50.2c-.1 0-.2-.1-.3-.2l-1.2-2c-.4-.7-1.1-1.1-1.9-1.1h-3.3c-.5 0-.9.1-1.3.4v-.4h-7.5v-9.2h11.7l.6 1.9c.2.7.8 1.4 1.5 1.6zm0-3.5h42.9s.1 0 .1.1l1.4 3.8v.2l-2.9 2.9c-.1.1-.5.3-.6.3l-7 .5h-1.3l-6.4-.5c-.4 0-1.1-.1-1.6-.1h-10.3c-.2 0-.7-.1-.9-.2l-4-2.5c-.4-.3-1.1-.6-1.6-.7l-7.1-2.2c-.1 0-.2-.2-.3-.3l-.4-1.3zm-13.8 13.9l.3.5c.1.2.3.4.5.6l2.3 2.1c.1.1.1.1.1.2l-.8 5.5v.5l-2.4 2.9v-12.3zm4.8 9.6c.1-.1.2-.1.2-.1.1 0 .2.1.2.3-.1 0-.3-.1-.4-.2zm-29.7-53.1c.1-.2.1-.4.1-.6v-32l7.6 32.4v.1h-7.7zm-12.6-35c-.3-.3-.8-.5-1.3-.5h-66.9l29.7-28.1h43.8c1 0 1.8-.8 1.8-1.8v-25.5c0-1-.8-1.8-1.8-1.8h-13.2l18.1-17.1h5.6v49.5c0 1 .8 1.8 1.8 1.8h12.1v22.9h-20.6c-1 0-1.8.8-1.8 1.8v17.4l-4-17.1c-.3-1.1-1.3-1.9-2.4-1.8-.4.1-.7.2-.9.3zm-34.2 33.3l-8-31.8h8.1v.2l-.1 31.6zm-11.4 0l-7.9-31.5-.1-.3h7.6v.3l.4 31.5zm-27.9.6c-.2 0-.4 0-.4-.3l-5.8-23.3 9.4-8.9h.2v.1l-2.9 32c-.1.4-.3.4-.5.4zm-17.6-15.5l-1-6.2 5.3-4.9-.5 7.5-3.8 3.6zm3.5-.6l-1.1 15.6-2.1-12.6 3.2-3zm-13.8 10.3l-.6-6.8 2.2-2-.8 8.1-.8.7zm.5 2.4l-.1 1.1-.1-.9.2-.2zm28-61.5c-.3.1-.9.2-1.2.2h-27.9v-16.5h27.9c.5 0 1.3-.1 1.8-.3l10.8-3.3c.2-.1.7-.1 1 0l9.9 2-19.9 17.3-2.4.6zm-50.7-27.3h11.5l1.1 8.9h-8.4v2h8.6l2.1 16.5h-15v-27.4zm11.6-15.1h3.7l2.9 13.1h-4.9l-1.7-13.1zm7 15.1l.8 3.6c.1.3.1.9.1 1.3v4h-4.9l-1.1-8.9h5.1zm5.7-23h85.3l-5.2 4.6h-80.1v-4.6zm-32.7 0h21.8l-6.6 5.7c-.1.1-.5.2-.7.2h-14.1l-.4-5.9zm13.7-70.9h10.5v15.3c0 1 .8 1.8 1.8 1.8h30.4l-6.6 5.9h-36.1v-23zm7.1-38.5l-5.3-32.3c0-.1 0-.2-.1-.3h9.3l-3.5 30.6-.6.6.5.5-.1.9c-.1.1-.1.1-.2 0zm65.9-80c.4.1.7.2 1 .2h18.4l-11.7 10.7h-6.6c-.2 0-.7-.1-.8-.2l-7-4.5 6.7-6.2zm29-5.9l27.7-24.2h1.9l-31.1 28.3h-3l4.5-4.1zm41.8 3l.7 1.1h-41l31.1-28.2h18.6v19.9c0 .1-.1.2-.1.2l-8.5 4.6c-.4.2-.7.6-.8 1.1-.3.4-.3.9 0 1.3zm18.2.5l.2.2 10.5 5.8c.5.3 1.3.5 1.9.5h41.6v6.5h-41c-.1 0-.3-.1-.4-.2l-2.4-3.4c-.4-.5-1.1-1-1.6-1.2l-8.4-2.8c-.5-.2-1-.1-1.4.2-.2.2-.4.4-.5.7l-9.9 3.6v-2.4c0-.6-.2-1.4-.5-1.9l-.6-1 12.5-4.6zm-3.5-71c-.1-.3-.1-.6.1-.8l3.8-3.8h8.9c-.3.7-.4 1.6-.3 2.8.1 1.5-.5 2.9-1.5 4-1.1 1.1-2.6 1.7-4.1 1.7-.8 0-1.5.3-2.1.9l-1.1 1.2c-.3.4-.7.2-.8.2-.1 0-.5-.2-.5-.7v-.2l-2.4-5.3zm-71.1 37.1c-.5 0-1-.3-1.1-.9l-2.3-29.7h7.3l-.3.9-2.5 28.8c-.1.7-.7 1-1.1.9zm-12.2-.2c-.2 0-.7-.1-.7-.8v-27.1c0-1-.2-1.8-.5-2.4h6l-4 29.8c-.1.5-.6.5-.8.5zm-7.6-2.2c-.1 1.7-.7 2.3-.9 2.3-.1 0-.6-.4-.8-1.8l-4.7-27.1c-.1-.6-.3-1.2-.5-1.6h8.5c-.2.6-.4 1.3-.5 2.2l-1.1 26zm-15.3 2.1c-.1 0-.6-.5-.8-1.9l-3.2-23.5 5.3-4.8h2.5c-.3.6-.5 1.3-.6 2.2l-2.4 25.9c-.1 1.5-.7 2.1-.8 2.1zm-14.4.6c-.1 0-.7-.5-.9-2.1l-.7-13.1 4.8-4.3-2.3 17.4c-.2 1.6-.8 2.1-.9 2.1zm-1.7-17.8l-.2-2.9 5.9-5.3-.5 3.4-5.2 4.8zm-9.3 17.8c-.1 0-.7-.5-.9-2l-.4-3.5 2.6-2.3-.5 5.7c-.1 1.6-.7 2.1-.8 2.1zm-1.6-7.9l-.3-2.8 3.7-3.3-.3 3.3-3.1 2.8zm-11.9 7.9s-.1 0-.2-.1l.7-.7c-.1.6-.4.8-.5.8zm-.9-2.2l-1.6-26.4c-.1-1-.3-1.7-.6-2.3h7.6c-.3.6-.6 1.3-.7 2.3l-2.7 24.7-2 1.7zm-8.7.1c-.2 1.6-.7 2.1-.9 2.1-.2 0-.8-.6-.9-2.3l-2.3-28.6h6.1c-.3.6-.5 1.3-.6 2.2l-1.4 26.6zm15.5-26.2c.2-1.5.7-2 .9-2 .1 0 .7.5.9 2l1.9 16.8-6.2 5.6 2.5-22.4zm3.7-.3c-.1-1-.4-1.7-.7-2.3h8.1c-.3.6-.5 1.3-.6 2.3l-.9 11.6-4.2 3.8-1.7-15.4zm208.2-17.2c.1.1.3.3.3.4l.2 1.4h-67.3l1.6-1.6c.5-.5.9-1.2 1.2-2 .4-1.4 1.1-4 1.1-5.9 0-.6-.2-1.2-.7-1.6-1.3-1.1-4-.8-7.3-.3-.9.1-1.7.3-2.1.3-.5 0-1 .1-1.6.4-1.1.6-1.9 1.7-2.2 3-.3 1.4.1 2.8.9 3.9l.5.7.6.6 2.2 2c.2.2.1.3.1.4 0 .1-.1.2-.4.2h-90.2l16.6-15.1h144.4c-.3 1.6-1.1 7.1-1.1 8.9 0 2.3 2.8 4.1 3.2 4.3zm-31.4 397.4v-29.1h20.3v29.1h-20.3zm-20.9 0c-.2-.4-.7-.7-1.3-.7h-2.4v-32.1h22.5v32.8h-18.8zm18.9 2v1.9h-20.7l1.4-1.9h19.3zm-27.8-32.1c-.5-.5-1.2-.8-2-.8h-10.9v-12.7c0-1-.8-1.8-1.8-1.8h-5.5v-22.9h3.4l.7.8c.2.2.4.6.4.8l1.5 8.6c.1.6.5 1.2 1.1 1.5l1.9 1c.3.2.7.3 1 .3.5 0 .9-.2 1.3-.5.4-.4.9-.8 1.4-1.2.7-.7.8-1.4.8-1.9-.1-1.1-1.1-1.8-1.3-1.9-.4-.3-1.1-.5-1.6-.7l-2.3-.6c-.1 0-.1-.1-.1-.1-.2-1.2-.2-2.1.1-2.7.3-.3 1.9-.2 3.5.3.8.3 1.8-.1 2.3-.9l1.7-3h1.2l.3.3c.4.4.8.6 1.3.5.5-.1.9-.3 1.2-.8h3.6v67.7h-3l.6-27.4c.1-.6-.2-1.3-.8-1.9zm-1.7 30.1h-.3v-8.1c0-1-.8-1.8-1.8-1.8h-4.5c-.9 0-1.7.7-1.9 1.5l-.5 2.5h-2.2v-10.4c.3.2.6.3 1 .3l10.5-.2-.3 15.8c-.1.1-.1.2 0 .4zm.3-18.2l-10.3.2v-2.8c0-.4.3-.8.7-.8l5.9-.5c.4 0 .7-.1 1-.3l1.1-.6c.8-.4 1.4-1.2 1.6-2.1.1-.9-.2-1.7-.8-2.3-.5-.4-1.1-.7-1.7-.7-1-.1-1.8 0-2.6 0s-1.6.1-2.6 0c-1.1-.1-2.3-.1-3.1 0l-.8.1v-.9h10.9c.2 0 .4.1.6.2.2.2.2.4.2.6l-.1 9.9zm-11.5-4.5v-2.6c0-.4.4-.8.8-.8h.9c.7 0 1.4 0 2.1.1 1.1.1 1.9 0 2.8 0 .8 0 1.5-.1 2.4 0 .2 0 .3.1.5.2.2.2.2.4.2.6 0 .3-.2.5-.5.7l-1.1.6-.3.1-5.9.5c-.8-.2-1.5.1-1.9.6zm-2-2.7v15.5h-1.3v-18.2c0-.4.4-.8.8-.8h.5v3.5zm0 17.5v2.3c0 1 .8 1.8 1.8 1.8h2.5c.9 0 1.7-.7 1.9-1.5l.5-2.5h4.3v7.9h-12.2v-7.9h1.2zm-52.8-120.3l3-27.7c.1-.8.7-.9.9-.9.2 0 .7 0 .9.7l1.2 26.8v.2c.1.3.2.7.4.9h-6.4zm-89.7-1.9l-.1-.6-.1-1.8 2.4-2.1-.4 2.9-1.8 1.6zm-5.4-24.9c0-.3.1-.6.1-.8h1.5c.1.2.1.5.2.9l1.4 21.6-5 4.5c.2-.5.3-1 .4-1.6l1.4-24.6zm3.8 0c0-.3-.1-.5-.1-.7h6.2v3.2l-1.9 15-2.9 2.6-1.3-20.1zm36.7-42.8c.2-.3.3-.6.3-1v-2.5l12.1-3.2c.2 0 .5 0 .7.1l.7.3h-1.9v8.9l-11.9 10.6v-13.2zm24.6-38.5l-7.5-31.6-.1-.3h7.6v31.9zm-27.9.7c-.2 0-.4 0-.4-.3l-5.3-22.6 9.3-8.5-3.2 31c-.1.3-.3.3-.4.4zm-17.4-15.1l-.3-1.9 4.2-3.8-.2 2.3-3.7 3.4zm3.4-.4l-1.3 14.9-1.8-12.1 3.1-2.8zm-13.8 9.9l-.1-1.9 1.1-1-.3 2.3-.7.6zm.3 2.4l-.1.7v-.6l.1-.1zm2.9-7.3l5.2-4.7.3 1.8-5.7 5.2.2-2.3zm14.3-21.7c.3 0 .3.2.3.2l1 4.3-2.2 2 .5-6.2c.1-.1.2-.3.4-.3zm2.3-.2c0-.1 0-.1-.1-.2h4.5l-3.7 3.4-.7-3.2zm-4.6.3l-.7 8.4-4.8 4.4-2-13.1c0-.1 0-.1-.1-.2h7.6c.1.2.1.4 0 .5zm-9.4 0l2.2 14.4-4.5 4.1 2.1-18.5h.2zm10.7 9.4l2.9-2.7.4 1.8-3.6 3.2.3-2.3zm4.6-4.3l6.1-5.6h2.5l-8.2 7.4-.4-1.8zm46.5-40.1l-14.4 13.1-1.9-.8 13.4-12.3h2.9zm-.6-2l11.7-10.7h2.9l-11.8 10.7h-2.8zm78.7 10.5v-16.3l7.8 2.6c.2.1.5.3.6.5v15.7l-8.4-2.5zm11.2 5.5c.3.1.8.3 1 .5l4.1 3c.5.4 1.3.7 2 .7h14.7v17h-20.3v-17.3c0-.5-.2-1-.6-1.3-.4-.3-.9-.4-1.3-.3l-4.1.8c-1.8.3-3.3 1.8-3.6 3.6l-1.2 7c-.1.8-.7 1.5-1.4 1.8-.7.3-1.5.3-2.2-.1-.7-.4-1.1-1-1.2-1.8l-1.2-9.7c-.2-1.7-1.3-3.1-2.9-3.6l-2.5-.9 8.9-3c.1.1.2.1.3.1l11.5 3.5zm46.6 44.9h-23v-40.7h23v40.7zm0 212.6h-20.3v-37.4c0-1-.8-1.8-1.8-1.8h-27.3l1.6-2.9c.2 0 .3-.1.5-.2l.1-.1h47.2v42.4zm-44.8-37.1h22.5v33.5h-22.5v-33.5zm-7.6-2l-.6-.6c-.3-.4-.8-.6-1.3-.5-.5.1-.9.3-1.2.8l-.2.3h-10.4l-3.4-3.7 9.5-2.6c.2-.1.7 0 .9 0l9.3 3.1-1.9 3.3h-.7zm-11.2 4.4l-.2-1.2c-.1-.4-.2-.8-.5-1.2h7.5l-1.1 1.9c-1-.4-4.5-1.3-5.7.5zm1.2 5.8l2.3.6 1.1.4c.2.1.3.3.4.4 0 0 0 .1-.2.2-.5.4-.9.8-1.3 1.1h-.2l-1.9-1-.1-.1-.3-1.6h.2zm5.6-42.9l8 2.2c.1 0 .2.1.2.2l-.1.2s-.1.1-.2 0l-6.7-1.8c-.7-.2-1.4 0-1.9.4-.6.4-.9 1.1-.9 1.8v1.8c0 .6.2 1.1.6 1.5-.3 0-.7 0-1 .1l-10.8 4.1v-12.3l11.1-3.9v3.6c0 1 .7 1.9 1.7 2.1zm-12.8 12.7l10.5-3.9v15.5c-.5 0-.9 0-1.3.1l-9.2 2.5v-14.2zm12.5-3.9l8.4 3.2.1.1v15.6l-8.5-2.8v-16.1zm8.5 1.1l-5.7-2.1 5.5 1.3c.1 0 .2.1.2.2v.6zm48.6 17.6h-46.6v-14.1h46.6v14.1zm0-16.1h-46.6v-2.2c0-1-.7-1.9-1.7-2.2l-7.9-1.9c-.1 0-.2-.1-.2-.2v-1.8c0-.1.1-.2.1-.2s.1-.1.2 0l6.7 1.8c.7.2 1.4 0 1.9-.4.6-.4.9-1.1.9-1.8 0-1-.7-1.9-1.7-2.2l-8-2.2c-.1 0-.2-.1-.2-.2v-3.4l8.9 3.9c.3.1.6.2.9.2h3.1l-.9 4.6c-.1.5 0 1 .3 1.4s.8.6 1.3.6h42.9v6.2zm-84.5-67.1h-.3c-.3-.2-.6-.3-1-.3h-66.8c-1 0-1.8.8-1.8 1.8v26.9l-4.6-25.3c-.4-2.4-1.8-3.2-2.9-3.2-1.1 0-2.5 1.1-2.8 3.8l-2.4 23.9c-.1 1.5-.7 2-.9 2-.2 0-.7-.4-.8-1.7l-3.5-24c-.1-.9-.4-1.6-.8-2.1l17.6-15.1h45v8.7c0 1 .8 1.8 1.8 1.8h38.3v4.6h-2.2c-1 0-1.8.8-1.8 1.8v5.1c-1.3.1-2.4 1.1-2.7 2.5l-.5 18.2c-.1.7-.7.8-.9.8-.2 0-.8-.1-.9-.7l-2.7-26.7c0-1.7-1-2.7-2.4-2.8zm-10.9 29.9c-.1 0-.6-.1-.8-.6l-4-27v-.1c0-.2-.1-.3-.2-.5h13c-.1.1-.1.2-.2.4l-7 27.3c-.1.5-.6.5-.8.5zm-13.5 0c-.2 0-.7 0-.9-.7l-1.2-26.8v-.2l-.2-.7h5.7l-.3.9-2.2 26.5c-.1 1-.7 1-.9 1zm-10-7l-3.1-20.5c-.1-.3-.2-.6-.3-.8h6c-.1.3-.2.6-.3 1l-2.3 20.3zm-13.8 7.5c-.2 0-.9-.1-1.1-.8l-2-28h7.4c-.2.3-.3.7-.4 1l-2.9 27c-.1.8-.9.8-1 .8zm-19.6-4.7v-24h1.8c-.3.6-.5 1.3-.6 2.2l-1.2 21.8zm7.4 4.8c-.2 0-.7-.1-.7-.6l.3-25.7c0-1-.3-1.9-.6-2.5h6.1l-4.3 28.4c-.1.4-.7.4-.8.4zm-30.1-30.2c-1 0-2.2.8-2.7 2.8l-6.5 5.6-.2-3.4 20.6-18.7h5.3l-16.1 13.8-.4-.1zm-7.2 29.7c-.2 0-.7-.5-.9-1.9l-1-17 5.9-5-3.2 22c-.1 1.5-.6 1.9-.8 1.9zm-4.1-23l.2 3.3-2.9 2.5.3-3.7 2.4-2.1zm-2.2-.8l.2-2.4c.1-1.5.7-1.9.9-1.9.2 0 .7.5.9 1.9v.7l-2 1.7zm45-29.8l17.3-16.7h52.5v-.3c.2.1.3.1.5.1s.3 0 .5-.1l2.4-.7v18h-73.5c.1-.1.2-.3.2-.4l.1.1zm-25.1-87.9l18.8-17.1 5.8 2.4c.5.2 1.3.4 1.8.4h69.9v14.4h-16.5c-.2 0-.4-.1-.6 0h-79.2zm100.2 2.7h-1.8v-.7h1.8v.7zm47.8 60.4h20.6v2.1h-23v-2.1h2.4zm-23.4 28.2h19v40.2h-19v-40.2zm0-2v-.8c0-.9-.6-1.7-1.5-1.9l-2.6-.6.6-2.5c.1-.5.2-1.2.2-1.7v-8.1h22.3v15.6h-19zm-15.5 8.4c.3 1 1.1 1.7 2.2 1.7h6.8v13.8h-17.7v-24.5l9.1-2.8c.2-.1.7-.1.9 0l7.8 1.8-.6 2.6-.1.1-5 1c-.9.2-1.6.9-1.8 1.8l-.4 1.9-.1.2c-.9.3-1.4 1.4-1.1 2.4zm-48.9.4h38.1v8.5h-38.1v-8.5zm38.1-8v5.9h-38.1v-5.9h38.1zm-17.7-53.4h11.8v22.9h-11.8v-22.9zm13.8 20.7v-20.7h3.9v17.8l-3.4 2.3c-.2.1-.3.3-.5.6zm3.7-50.1h2.1v27.4h-5.8v-30h1.9v.9c0 1 .8 1.7 1.8 1.7zm4.1 0h13.2v27.4h-13.2v-27.4zm7.3 45.2l11.8 4.6v5.2l-11.8-2.5v-7.3zm16.3 8.7l.2.5c.3.8 1.1 1.3 1.9 1.3l-1 1.9v.1h-17.5v-3.3l11.9 2.5c.5.1 1 0 1.4-.3.4-.3.6-.8.6-1.3v-4.9c.5.1 1 .2 1.4.2h1.2l-.3 1.1c0 .8 0 1.7.2 2.2zm-18.3-2.9v7.1l-7.2 2.1v-11.1c0-.1.1-.2.1-.2l7.1-3.5v5.6zm-11.6.5c0-.1.1-.3.2-.3l2.2-1.5v11.2l-2.4.7v-10.1zm4.4 10.8l7.2-2.1v16.7l-7.2 2.2v-16.8zm10.5 14.1c-.4-.1-.8-.1-1.3-.1v-16.5h34.1v4.6h-22.6c-1 0-1.8.8-1.8 1.8v8.4c0 .3-.1.9-.1 1.3l-.6 2.5-7.7-2zm57.8-12h-23v-4.6h23v4.6zm0 2v15.6h-23v-15.6h23zm-24.9-8.6h-14.5l1-2.1h13.4v2.1zm-12.5-4l1.5-3c.2-.4.2-.9.1-1.4-.2-.4-.6-.8-1-.9l-2.5-.9v-26.5h14.4v32.7h-12.5zm12.5-54.7v20h-14.7c-1 0-1.8.8-1.8 1.8v26.8c0 .8.6 1.7 1.4 1.9l2.1.7-1.8 3.6h-.9l-.1-.1-.2-.5c-.1-.2-.1-.6-.1-.8l.4-1.6c.1-.5 0-1-.3-1.4-.3-.4-.8-.6-1.3-.6h-1.8c-.3 0-.8-.1-1.1-.2l-.3-.1v-51h20.3v1.5zm-22.4 48.6l-12.4-4.9-.1.4c-.4-.2-.9-.2-1.3 0l-7.1 3.5v-17.3h15.3c1 0 1.8-.8 1.8-1.8v-27.9c0-1-.8-1.8-1.8-1.8h-13.5v-.5h19.2v50.3zm-21.1-49.7h-1.8v-.6h1.8v.6zm-3.9-2.6h-2.2c-1 0-1.8.8-1.8 1.8v30.2h-1.5v-32.7h5.5v.7zm-7.4 31.2l-7.4-31.9h7.4v31.9zm-11.4-31.9v31.9l-7.5-31.8v-.1h7.5zm2 32.6v-32.1l7.5 32.2h-7.5v-.1zm-.9 2.1v22.9h-24.1l23.7-22.9h.4zm14 24.9c.5 0 .9-.2 1.2-.5v8.1h-49.4l7.9-7.6h40.3zm-35 28.5h.6v5.9h-42.7l6.9-5.9h35.2zm-39.6-3.9l2.8-2.5v2.5h-2.8zm-3.8-.4l-4.1-1.4v-8.4l4.1-3.7v13.5zm-6.1-2.1c-.5-.1-1.1 0-1.6.2l-9.6 3.9 11.2-10v5.9zm-.9 2.1c.2-.1.5-.1.7 0l5.5 1.9-.6.5h-11.6l6-2.4zm12.2 4.3l-6.9 5.9h-5.5l6.5-5.9h5.9zm79 33c.1.3.1.5.1.6 0 0-.2.1-.3 0-.1 0-.5-.2-.6-.8l-.1-.5c-.1-.7-.5-1.3-1.1-1.8v-5.5h1.9v7.8l.1.2zm-4 20.9v4.6h-9.8v-4.6h9.8zm-1.6-2c.2-.3.3-.7.4-1.1l.5-18.2c.1-.5.4-.7.7-.7v20.1h-1.6zm3.6-17.2c.3.4.8.6 1.3.8.9.2 1.8 0 2.4-.6.5-.6.7-1.5.3-2.5v-7.4h18c1 0 1.8-.8 1.8-1.8v-14.3c0-1-.8-1.8-1.8-1.8h-7s-.2 0-.2-.2c-.1-.2.1-.3.1-.3.6-.3 1-.9 1.1-1.5l.4-1.9c0-.1.1-.2.2-.2l5-1c.8-.2 1.5-.8 1.7-1.6l.6-2.6 2.5.6v43.2c0 1 .8 1.8 1.8 1.8h19.3v30.2h-20.8c-.1 0-.2-.1-.2-.2v-19.7c0-1-.8-1.8-1.8-1.8h-24.5v-17.2zm30.7 40.9h16.8c1 0 1.8-.8 1.8-1.8v-30.4h23v36.8h-42.5l.9-4.6zm18.6-34.2v-40.2h23v40.2h-23zm0-70.4v-32.7h.6v32.7h-.6zm-36.9-85l-9.8 3.3v-15l9.8-3.6v15.3zm-10.4 5.8l4.5 1.7c.9.3 1.5 1.1 1.6 2l1.2 9.7c.2 1.4 1 2.6 2.2 3.3 1.2.7 2.7.8 4 .2 1.3-.6 2.3-1.8 2.6-3.3l1.2-7c.2-1 1-1.8 2-2l3.7-.7v16.9h-19.2v-.9c0-1-.8-1.8-1.8-1.8h-2.1v-14.6c0-1-.8-1.8-1.8-1.8h-70.1c-.3 0-.8-.1-1.1-.2l-5-2 15.3-13.9h61.4v12.4c0 .9.6 1.7 1.4 2zm-81.7.2l-19.7 17.9h-2.5l20.4-18.7 1.8.8zm-8.3 19.9c-.1.2-.1.3-.1.5l-4.5 31.7-3.5-32.1v-.1h8.1zm23.7 0v31.9l-7.5-31.9h7.5zm21.4 0l-.1.3-5.3 31.7-1.9-28.4c-.1-1.2-1-2.1-2.2-2.1-1.2-.1-2.2.8-2.4 1.9l-4.7 28.5-2.3-31.9h18.9zm12 0l-.1.4-2.7 31.6-4.8-31.7c0-.1 0-.2-.1-.3h7.7zm-.7 32.3l2.7-31.6c0-.1 0-.3.3-.3l.3.2 7.6 32.1h-11c0-.1 0-.3.1-.4zm10.5 2.4l-23.7 22.9h-4.2l25.2-22.9h2.7zm-25.8 24.9l-7.9 7.6h-4.9l8.4-7.6h4.4zm-10 9.6l-15.6 15h-1.2v-4.4l11.7-10.6h5.1zm-16.7 7.9v-7.9h8.8l-8.8 7.9zm-2 1.8l-4.6 4.1v-14.6l.9-.8 2.3 1.1c.4.2.9.3 1.3.4v9.8zm-6.6-11.4l-4.1 3.7v-7l4.1 2v1.3zm-19.1 20.6c.2.1.4.1.5.1.2 0 .4 0 .6-.1h14.4l-6.5 5.9h-16.5l6.6-5.9h.9zm6.7 8l-17.9 16.2c-.5-2.1-1.7-2.9-2.7-2.9-1.1 0-2.6 1-2.9 3.8l-.3 4.5-5.3 4.8-1.1-9.3c-.2-1.8-1-2.7-1.8-3.2l15.5-13.9h16.5zm-34.3 19.7l.3-2.4c.2-1.3.7-1.8.9-1.8s.7.4.9 1.8l1.3 10.7-3.3 3v-11.3zm-2 16v2.5l-.4.3.4-2.8zm2-2l3.6-3.3.3 2.7-3.9 3.4v-2.8zm5.5-4.9l4.8-4.3-.3 3.6-4.1 3.5-.4-2.8zm4.2 2.1l-.9 10.6c-.1 1.5-.7 1.9-.9 1.9-.2 0-.7-.4-.9-1.8l-.9-7.7 3.6-3zm1 10.8l1.1-12.6 3.3-2.8.9 15.5c.1.9.3 1.6.6 2.2h-6.6c.4-.6.6-1.4.7-2.3zm11 .1l3.5-24.3 1.4-1.2c.1.3.2.6.3 1.1l3.5 24c.2 1.1.5 1.9 1 2.5h-10.4c.4-.5.6-1.2.7-2.1zm14.5-.7l2.4-23.9c.1-1.5.7-2 .9-2 .1 0 .6.4.8 1.6l4.7 25.9c.1.5.2.9.3 1.2h-10.1c.4-.6.8-1.5 1-2.8zm14.4.9l1.4-24.6c.1-1.5.7-2 .9-2 .2 0 .8.6.9 2.2l-.3 25.6c0 .3 0 .5.1.7h-3.4c.2-.5.3-1.1.4-1.9zm8.4 1.9l4.3-28.6 2 28v.1c0 .2.1.4.2.6l-6.5-.1zm12.5-.5l2.9-27c.1-.7.8-1 1.3-1 .6 0 1.2.2 1.4.9l4.2 27.7h-10c.1-.3.1-.4.2-.6zm23.6-.7l2.2-26.5c.1-.7.7-.8.8-.8.2 0 .7 0 .9.6l4 27v.1c.1.3.2.5.3.7h-8.7c.3-.2.4-.6.5-1.1zm13.4.6l6.5-25.3v25.9h-6.8l.3-.6zm8.8-27.2l2.7 26.7c.1.4.2.8.4 1.1h-3.4v-28.3l.3.5zm-.3 36.4h10.1c1 0 1.8-.8 1.8-1.8v-4.8h24.3v19.2l-8.7-3.8c-.5-.2-1.1-.3-1.6-.1l-12 4.2c-.8.3-1.4 1.1-1.4 1.9v13c0 .3.1.5.2.8h-.2v15.7c-.4.4-.7.9-.7 1.5v3.5h-11.8v-49.3zm13.8 47.6l1.6 1.7h-1.6v-1.7zm70.3-137.1h-20.3v-32.7h20.3v32.7zm-49.7-173h26.4v30.6h-26.4v-30.6zm51.1 30.6h-22.6v-30.5h22.6v30.5zm0 2v32.1h-27.6v-32.1h27.6zm-156.4-46.1h-3.3l16.7-15.1h3.2l-16.6 15.1zm-2.2 2l-10.1 9.2h-3.3l10.1-9.2h3.3zm-27 18.8l-.3-5.4c-.1-.9-.3-1.6-.6-2.2h8.1c-.3.4-.5 1-.7 1.7l-6.5 5.9zm-3.2-7.4c.1 0 .7.5.9 2.1l.4 7-2.9 2.6.8-9.5c.1-1.6.7-2.2.8-2.2zm13.8-2.2h-15.9l10-9.2h16.1l-10.2 9.2zm-15.6 16.8l3.3-2.9.2 2.9-3.7 3.3.2-3.3zm13.3-12l1.4-1.3c.1.3.2.7.3 1.2l.2 1.4-2.4 2.1.5-3.4zm3.7-.4c-.1-1-.4-1.7-.7-2.3l.1-.1h3.3l-2.7 2.4zm99.7 5.5c-.5-.3-1-.5-1.6-.5-1.4 0-2.6 1.1-2.8 2.6l-.5 19.7c-.1.7-.5.9-.9.9s-.8-.2-.9-.9l-3.1-29.2c0-.2-.1-.4-.2-.6h9.9v8zm-22.8 22.8c-.4 0-.7-.3-.8-.8l-4.3-29.6v-.1l-.1-.3h12.8v.1l-6.7 30c-.3.5-.6.7-.9.7zm-16-30.3l-.1-.5h5.5c-.1.2-.2.5-.2.7l-1.9 29c-.1.7-.5.9-.9 1-.4 0-.8-.3-.9-.8l-1.6-29.3.1-.1zm5.3 29.5l1.8-29c.1-.7.5-.9.9-1 .4 0 .7.3.9.7l4.3 29.6v.1c0 .2.1.3.2.5h-8.3c0-.2.1-.5.2-.9zm13.4.7l6.7-30c.2-.4.5-.7.9-.7.3 0 .7.3.8.9l3.1 29.2c0 .3.1.5.2.8h-11.8s.1-.1.1-.2zm17.2-.5l.5-19.7c.1-.6.5-.9.9-.9s.8.2.9.9l.1.6c.1.5.3 1 .6 1.4v18.5h-3.2c.1-.3.2-.6.2-.8zm-62.4-32.1h-26.4l10.1-9.2h92.4c1 0 1.9-.6 2.2-1.5.4-.9.1-2-.7-2.6l-2.2-2-.3-.3-.5-.7c-.5-.6-.7-1.4-.5-2.2.1-.7.6-1.3 1.2-1.6.2-.1.4-.2.6-.2.6 0 1.4-.1 2.4-.3 3.5-.5 5.5-.6 5.8-.1 0 1.7-.6 4.1-1 5.4-.1.4-.3.8-.7 1.1l-7.4 7.4c-.8.8-1 2.1-.5 3.1l1.8 3.7h-76.3zm68.5 2v10.4c0 .8-.5 1.1-.8 1.2h-.3v-11.5h1.1zm-47.6 0c-.1.3-.2.5-.2.8l-2 22.2-3.4-22.4-.2-.6h5.8zm67.7-3.1c1.4-1.5 2.2-3.4 2.1-5.4-.1-1.4.1-1.9.2-2.1h48.3v8.9h-51.1v-.9c.2-.1.4-.3.5-.5zm-.5 36h21.5v32.1h-10.3c.1-.9-.2-1.9-.7-2.7-.8-1.2-2.1-1.9-3.6-1.9h-.8c-.2 0-.7-.1-1-.2l-5.2-2.7v-24.6zm4.3 29c.5.3 1.3.5 1.9.5h.8c.8 0 1.5.4 1.9 1 .4.7.5 1.4.2 2.2l-.6 1.4h42.6v29.3c-.3-.2-.7-.4-1.1-.4h-39.9c-.2 0-.6-.1-.8-.3l-4.1-3c-.4-.3-1.1-.7-1.6-.8l-1.2-.4v-13.5l.4.5c.4.6 1.3 1 2 1h41.3c1 0 1.8-.8 1.8-1.8v-7c0-1-.8-1.8-1.8-1.8h-41.9c-.2 0-.7-.1-.9-.2l-10.5-5.8c-.1 0-.1-.2-.1-.2v-3c0-.8.4-1.5 1.1-2 .7-.4 1.5-.4 2.3-.1l8.2 4.4zm-26.4 9.2c.1.2.2.6.2.9v5.7h-59.1l11.8-10.7h44.5l2.6 4.1zm-53.7-6.1h-19.6l5.7-5.2h19.5l-5.6 5.2zm-22.5 14.2c.5.3 1.3.6 1.9.6h4.5l-12.5 11.5-5.4-2.2c-.6-.3-1.5-.2-2.2 0l-11.1 4.7c-.3.1-.8.2-1.1.2h-3l21.5-19.5 7.4 4.7zm-25.9 16.7c.5 0 1.3-.2 1.8-.4l11.1-4.7c.1-.1.5-.1.6 0l4.6 1.9-21.3 19.5h-20l18-16.3h5.2zm-25.9 18.3c0 .1 0 .2-.1.3l-2.4 20.8-1.6 1.5-1.8-22.6h5.9zm-5.9 24.3l-4.7 4.3 3-25.8 1.7 21.5zm-5 7.3l5.2-4.8.1 1.9-4.4 4h-1.1l.2-1.1zm5.5-.4l.1 1.5h-1.7l1.6-1.5zm4.3-3.8l6.4-5.8 1.7 11.2h-8.7l.6-5.4zm13.4-12.3l4.3-3.9 5.1 21.5h-10.9l1.5-17.6zm14.2 17.3l3.2-30.8 3.3 30.9v.2h-6.6c0-.1 0-.2.1-.3zm10.5.1l4.4-31.7c.1-.4.4-.5.5-.5.1 0 .5 0 .6.4l7.5 31.9h-13.1c.1 0 .1 0 .1-.1zm17 .1v-31.6l7.5 31.7-7.5-.1zm11.3 0v-12.8l.9 12.9-.9-.1zm9.5-28.8c0-.1 0-.3.3-.3s.3.2.3.3l1.9 28.4c0 .2 0 .3.1.5h-7.4l4.8-28.9zm6.5 28.6l5.3-31.7c0-.1.1-.3.3-.3.3 0 .3.2.3.3l4.8 31.7c0 .1 0 .2.1.3h-10.9c.1-.1.1-.2.1-.3zm19.5 2.3l-25.2 22.9h-16l25.5-22.9h15.7zm-27.4 24.9l-8.4 7.6h-12.4c-.3 0-.8-.1-1-.2l-1.6-.8 7.4-6.6h16zm-25.4 5.6l-.6-.3v-5.4h6.9l-6.3 5.7zm-2.6-1.2l-4-2c-.6-.3-1.5-.4-2.1-.2l-12.1 3.2c-.8.2-1.5 1-1.5 1.9v2.2h-33.5v-9.6h53.2v4.5zm-20 7.1v14.3l-.8.7h-32.4v-15h33.2zm-45.7 25h33.8l-16.1 14.4h-7.6c-.6-.8-1.3-1.1-1.9-1.1-.6 0-1.4.3-2 1.1h-6.2v-14.4zm.8 16.4h4.6l-.1.6-1.4 24.6c-.2 1.4-.7 1.9-.9 1.9-.2 0-.8-.5-.9-2l-2.2-25h.9zm7 27.5l2.8-2.5v.2c.1.7.2 1.3.4 1.8l-.5.5h-2.7zm8.5-2l.1-.4.7-.6v3h-1.4c.2-.5.5-1.1.6-2zm2.7-2.7l4.2-3.6.8 6.4c.1.8.3 1.5.6 2h-5.6v-4.8zm88.3 6.7h26.7v4.6h-31.9l5.2-4.6zm18.2 6.6l-18 17.1h-5.6l.5-.4c.7-.6.5-1.3.4-1.5-.1-.2-.4-.8-1.3-.8h-18l16.4-14.4h25.6zm-46.6 44.1h-6.4l27.1-25h5.7l-26.4 25zm29.4-25h15.1v25h-41.5l26.4-25zm-38.9 24.9l-13.8-2.5c-.5-.1-1.4-.1-1.9.1l-1.7.4 26.1-22.9h18.6l-27 24.9h-.3zm1.6-21.3v-3.6h4l-4 3.6zm-.6 23.4h6.4l-29.7 28.1h-7.2l30.5-28.1zm29.2-29.7l-.7.7h-18.5l.8-.7h18.4zm-22.3.7h-6.6c-1 0-1.8.8-1.8 1.8v5l-10.9-2.2c-.6-.1-1.4-.1-1.9.1l-10.8 3.3c-.3.1-.9.2-1.2.2h-27.9v-4c0-.5-.1-1.2-.2-1.7l-.7-3.2h62.7l-.7.7zm-67.7 10.2h4.6v16.5h-2.5l-2.1-16.5zm39.1 17.6l5.5-1.4c.3-.1.8-.1 1.1 0l12.6 2.2-30.9 28.5h-21.7l33.4-29.3zm-26.3 31.8l1.6 9.5-3 2.7 1.2-12.3c.1.1.2.1.2.1zm2-.3v-.2h7.6l-.1.5-.2 2.4-5.9 5.5-1.4-8.2zm9.4.5c0-.1 0-.3.3-.3.1 0 .2 0 .2.1l-.5.5v-.3zm-21.1 1.9l1.5 16.5-3.8 3.5 2.3-20zm-4.5 22l-2.2 2-4.2-26.3c0-.1 0-.2-.1-.3h9.3l-2.8 24.6zm6.3-24.6h5.8c0 .1 0 .2-.1.3l-1.5 14.5-2.7 2.5-1.5-17.3zm6.2 15.8l3.7-3.4 1 6.2-5.5 5.2.8-8zm12.9-11.9l1.3-1.2 1.4 5.6-3.3 3.1.6-7.5zm3-2.8l1.1-1.1h7.3l-7 6.6-1.4-5.5zm80.1 2.5l-2 28.4-5.2-31.6c0-.1 0-.2-.1-.3h7.3v3.5zm-11.7-3.6l-.1.3-4.8 31.7-2.4-31.4-.1-.6h7.4zm-11.7 0l-.1.4-4.2 31.4-2.7-31.7v-.1h7zm-33.4 0c-.1.2-.1.3-.1.5l-4 31.6-3.9-32v-.1h8zm67.6 0h1.6v32.3l-1.5-6.5v-25.8zm12.9 0v32.3l-7.5-32.3h7.5zm2 32.9v-32.9h5.5v33.5h-5.6l.1-.6zm7.4-32.9h5.2v12.5h-.5c-1.6 0-2.8 1.3-2.8 2.8v18.2h-1.9v-33.5zm2 35.5v5.9h-1.9v-5.9h1.9zm92.7-10.5v.4c-.4-.9-1.2-2.2-2.3-2.8-.9-.5-2.5-1-3.7-1.3-.7-.2-1.5-.2-2.2 0l-2.3.7c-.5.1-1 .1-1.5-.1l-.9-.4c.3-.2 1.2-.4 2.6-.5l.8-.1c.6-.2 1.8-.5 2.7-.8.5-.1.8-.5.9-.9.2-.7-.3-1.4-.8-1.9-1.3-1.4-3.5-1.7-5.2-.7l-1 .6 1 1.7 1-.6c.8-.5 1.8-.4 2.5.1-.6.2-1.3.4-1.7.5l-.4.1c-3.1.3-3.8.9-4 1.1l-1.3 1.3.5.7c.3.4.9.9 1.5 1.2l1 .4c.9.4 1.9.5 2.9.2l2.3-.7c.4-.1.8-.1 1.1 0 1.5.4 2.7.8 3.2 1.1.8.4 1.4 1.7 1.7 2.4-.4.3-2 1.2-7.3 1.6-5 .4-5.9.2-6.1.2.1 0 .5.3.6.7l-.4.1c-.4-.7-.9-1.3-1.6-1.7-.7-.4-1.1-1.3-1.1-2.1l.8-8.7c.1-1.2 1.2-2.1 2.3-2l12.3.9c1.1.1 2 1 2 2.2v7.1zm-9.2-368.8l-1.2-6.4h2.9c-1 1.9-1.6 4.1-1.7 6.4zm-151.3-25.5h-3.2l5.8-5.2h3.2l-5.8 5.2zm4.8-7.2l3.6-3.3h3.2l-3.6 3.3h-3.2zm5.8-5.3l5.8-5.2h3.2l-5.8 5.2h-3.2zm-102.5-33.8h60.4v1.6h-60.4v-1.6zm62.4-25.8l-.5-8.5c0-.4.2-.7.5-.9l2.4-1.5c.5-.3.9-.1 1 0 .2.1.5.4.5.9v1c0 1.7 1.4 3 3 3h2.8c1 0 2-.5 2.5-1.3l1.4-2.1c.4-.5 1.2-.6 1.6-.1.2.2.3.5.3.8l-.4 4.8h-6.1c-1 0-1.8.8-1.8 1.8v26.2h-7.2v-24.1zm16.9-3h4.9c-.2.6-.4 1.2-.4 2.1v24.8h-1.7v-20.4c0-1-.8-1.8-1.8-1.8h-2.4c-1 0-1.8.8-1.8 1.8v20.3h-4.6v-26h6.1c.8.1 1.4-.3 1.7-.8zm62.3 32.7l.2-.2h20.4v8.8h-30.2l9.6-8.6zm20.7 10.6v12.1h-45.7l13.3-12.1h32.4zm-.2-43c.1.2.2.8.2 1v25.6h-4.4c.2-.5.3-1 .4-1.7l2.3-25.2h1.3l.2.3zm-62.1-.2c.2 0 .7.6.9 1.8l2.4 22.7c.1.9.3 1.6.6 2.1h-9.6l.2-.6 4.7-24.6c.2-1 .6-1.4.8-1.4zm13.3.5c.2 0 .7.5.9 1.7l3.5 23c.1.6.2 1.1.4 1.5h-9.7c.3-.5.5-1.1.6-1.8l3.5-22.8c.1-1.2.6-1.6.8-1.6zm11.5 1.3c.1-1.3.6-1.8.9-1.8.2 0 .7.5.9 1.8l2.1 23.3c.1.6.2 1.1.4 1.6h-6.1c.2-.4.3-1 .4-1.6l1.4-23.3zm13.4-1.5c.2 0 .7.4.9 1.6l3.1 23.4c.1.5.2 1 .4 1.4h-8.5c.2-.4.3-.8.4-1.4l3-23.4c0-1.2.5-1.6.7-1.6zm12.1-.3c.2 0 .7.5.9 1.7l1.4 23.5c.1.6.2 1.1.4 1.5h-5.6c.2-.5.3-1 .4-1.7l1.6-23.1c.1-1.3.6-1.9.9-1.9zm6 24.8c-.1 1.3-.6 1.9-.9 1.9-.2 0-.7-.5-.9-1.7l-1.4-23.5c-.1-.7-.2-1.2-.4-1.7h5.9l-2.3 25zm-8.9-23.1l-1.6 23.1c-.1 1.3-.6 1.9-.9 1.9-.2 0-.7-.4-.9-1.6l-3.1-23.4c-.1-.8-.3-1.4-.6-1.8h7.5c-.1.5-.3 1.1-.4 1.8zm-12.1 0l-3 23.4c-.2 1.2-.7 1.7-.9 1.7-.2 0-.7-.5-.9-1.8l-2.1-23.3c-.1-.7-.3-1.3-.5-1.8h7.9c-.1.4-.4 1-.5 1.8zm-12.5 0l-1.4 23.3c-.1 1.2-.6 1.8-.9 1.8-.2 0-.7-.5-.9-1.7l-3.5-23c-.1-.9-.4-1.6-.7-2.1h7.8c-.2.3-.3.9-.4 1.7zm-12.3.1l-3.5 22.8c-.2 1.2-.7 1.6-.8 1.6-.2 0-.7-.5-.9-1.8l-2.4-22.7c-.1-.7-.2-1.3-.5-1.8h8.8c-.4.4-.6 1.1-.7 1.9zm-13.3-.7l-4.7 24.6c-.1.4-.2.8-.3 1h-1c-.2-.3-.3-.8-.4-1.4l-1.1-23.8c-.1-.7-.2-1.2-.4-1.7h8.3c-.2.4-.3.8-.4 1.3zm-11.3 25.6v-24.8c.1-1.5.6-2.1.9-2.1.3 0 .8.6.9 1.9l1.1 23.8c0 .5.1.9.2 1.3h-3.1zm-5.7 0h-1.9v-20h1.9v20zm-19.8-23.7v23.7h-2.5l-2.7-26.3c0-.2-.1-.4-.1-.5h5l.3 3.1zm-18.8-3.1c.2 0 .7.1.8.7l1.9 25.8.1.4h-8.1v-.1l4.3-26.2c.3-.6.8-.7 1-.6zm10 .6c.2-.6.7-.6.9-.6.2 0 .8.1.8.8l2.6 26.1h-6.1l.1-.3 1.7-26zm-2-.4l-1.6 26c-.2.6-.7.6-.9.6-.2 0-.8-.1-.9-.7l-1.8-25.7-.1-.4h5.4s-.1.1-.1.2zm-10.8-.2l-4.4 26.2c-.2.5-.7.6-.8.6-.1 0-.6 0-.9-.5l-6.7-26.3h12.8zm-15.6 0c.2 0 .7 0 .9.5l6.7 26.3h-11.6c0-.1.1-.3.1-.5l3.1-25.7c.1-.5.7-.6.8-.6zm39.2 28.8h7.2v1.6h-7.2v-1.6zm9.2 0h4.6v1.6h-4.6v-1.6zm6.6 0h1.9v1.6h-1.9v-1.6zm4 0h8.2c.4.3.8.4 1.2.5h.1c.4 0 .9-.1 1.3-.5h69.3v1.6h-80.1v-1.6zm50.7 3.7l-9.8 8.9h-17.1l9.6-8.9h17.3zm2.7.2c.1-.1.5-.2.6-.2h2.7l-9.8 8.9h-3.1l9.6-8.7zm-8.6 10.6l-13.3 12.1h-3.1l13.2-12.1h3.2zm104.9-40.8v52.2h-51.9v-41c0-1-.8-1.8-1.8-1.8h-1.8c-1 0-1.8.8-1.8 1.8v41.6h-2.6v-49.8h6.1c.9 0 1.7-.7 1.8-1.7l1-11.5c.1-1-.3-2-.9-2.8-.7-.7-1.7-1.2-2.7-1.2h.1c-1.8 0-3.3 1.3-3.6 3-.1.7-.6 1.2-1.3 1.3l-2.2.5c-.7.2-1.5-.2-1.8-.8-.6-1.2-1.6-2.9-2.3-4.1l65.2-.6c-.1.2-.1.4-.1.7v3l.6 11.2zm-223.3-2.5h11.9c0 .1-.1.3-.1.5l-3 25.6c-.1.7-.7.7-.9.7-.1 0-.7 0-.9-.7l-.5-17.2v-.1c-.2-1.4-1.4-2.4-2.8-2.4-1.5 0-2.6.9-2.9 2.3l-.1.5c-.2.7-.8.7-1 .7-.2 0-.8-.1-.8-.9v-7.6c.6-.3 1-.8 1.1-1.4zm-.4 11.9c1.5.2 2.8-.8 3.1-2.3l.1-.5c.1-.7.7-.7.9-.7.2 0 .7.1.9.7l.5 17.2v.1l.1.4h-13.8v-21.6c0-1-.8-1.8-1.8-1.8h-3.1c-1 0-1.8.8-1.8 1.8v41.6h-1.9v-45.3h14.1v7.5c0 1.5 1.1 2.7 2.7 2.9zm-8.2 31.4h60.4v9.4h-60.4v-9.4zm0-2v-8.9h60.4v8.9h-60.4zm62.4-8.8h7.2v8.8h-7.2v-8.8zm15.8 0h1.9v8.8h-1.9v-8.8zm4 0h30.5l-9.6 8.9h-20.9v-8.9zm21.6 10.8h17.1l-13.4 12.1h-16.8l13.1-12.1zm1.5 14.1l-5.8 5.2h-16.7l5.7-5.2h16.8zm-13.8 12.5l-5.8 5.2h-16.5l5.7-5.2h16.6zm-8 7.2l-16.7 15.1h-16.1l16.4-15.1h16.4zm-38 17.1l-10 9.2h-37.5c.1-1.5.4-2.6.7-3.6.3-1 .6-2 .6-3.3 0-.5.3-1.3.8-2.3h45.4zm-47.9 17.8c.2-1.3.4-3.6.4-6.6h7.6l2.3 28.8c.1.9.3 1.6.5 2.2h-12.1l1.3-24.4zm26.6 22.5l.1-1.2 6.8-6.1.3 2.8-6.7 6.1c-.1.1-.5.2-.6.2h-.3c.1-.5.3-1.1.4-1.8zm7.5-2.1l.2 2.1c.1.7.3 1.3.5 1.8h-5l4.3-3.9zm5.9 1.8l.6-7.8 4-3.7.6 11.5c.1.8.3 1.5.5 2h-6.3c.4-.5.6-1.2.6-2zm11 .2l2.6-19.8 3.1-2.8 3 22.1c.1 1 .4 1.7.7 2.3h-9.9c.3-.4.5-1.1.5-1.8zm14.5-.8l2.4-25.9c.1-1.6.7-2.2.9-2.2.1 0 .6.4.8 1.8l4.7 27.1c.1.8.4 1.4.6 1.9h-10.2c.4-.7.7-1.5.8-2.7zm14.4 0l1.1-26c.1-1.7.7-2.3.9-2.3.2 0 .8.6.9 2.5v27.1c0 .5.1 1 .4 1.4h-4c.4-.7.6-1.5.7-2.7zm8.4 2l4-30.1 2.3 29.8c.1.3.2.7.3.9h-6.9c.2-.1.3-.4.3-.6zm12.5-.3l2.5-28.8c.2-.8.8-1.1 1.3-1.1s1.2.3 1.4 1l4.5 29.9h-10.1c.2-.3.3-.6.4-1zm14.5-28.9c.1-.7.5-1 .9-1s.8.3.9.8l1.6 29.3v.1c0 .2.1.5.2.7h-6.2l2.6-29.9zm42.9 31.9c1 0 1.8-.8 1.8-1.8v-17.6h.5c1.3-.1 2.7-1.2 2.7-3.1v-10.4h6.4c.3.7.8 1.3 1.6 1.6 1.1.4 2.3.1 3-.8l1.1-1.2c.1-.2.3-.2.5-.2 1 0 2.1-.2 3-.6v57.7l-1.1-.6c-1.3-.7-2.9-.7-4.2.1-1.3.8-2.1 2.2-2.1 3.7v3l-12.7 4.7-2.6-4.2 8.3-4.4c.7-.4 1.2-1.2 1.2-2v-20.2c0-1-.8-1.8-1.8-1.8h-45.1l2.1-1.9h37.4zm-21.3 3.9l-24.1 21h-19.5l23.1-21h20.5zm-46.6 21h-83.5l-5.4-21h112l-23.1 21zm-2.2 1.9l-5.2 4.8-9.6-4.8h14.8zm-18 .7l11.1 5.5-6.4 6-2.7-1.7c-.6-.4-1.6-.5-2.3-.1l-12.2 5.9c-.2.1-.7.2-1 .2h-46.1v-9.3h46.1c.6 0 1.4-.2 1.9-.5l11.2-6.1c.1.1.3.1.4.1zm-13.5 17.7c.6 0 1.4-.2 1.9-.4l12.2-5.9h.3l2.2 1.4-22.7 20.7h-40v-15.8h46.1zm-46.3 18.3h.2v-.5h37.8l-18 16.3h-20.1v-15.8zm-2 20.1v30.4h-8.3l8.3-30.4zm-9.6 27.7v-30h8.2v.1l-8.2 29.9zm11.6-28.4l5.1 31.1h-5.1v-31.1zm102.4 33.1l-25.5 22.9h-64.6c-1 0-1.8.8-1.8 1.8v9.8h-10.5v-34.5h102.4zm-102.3 103c.1 1 .3 1.8.6 2.3h-14.5v-27.6h11.6l2.3 25.3zm.8 12.2c.6 0 1.5-.3 2-.7l8.3-7.2h5.9v4.8c0 1 .8 1.8 1.8 1.8h78l-16.4 14.4h-65.5l-3-13.6c-.2-.9-1-1.5-1.9-1.5h-4.2c-.5 0-.9.2-1.3.6-.3.4-.5.8-.4 1.3l1.7 13.2h-11.4l-.3-.1-7.3-13h14zm-6.2 44.5h49.9l-32.4 28.4h-17.6v-28.4zm1.8 30.4l-1.7 6.3v-3.8h-.1v-2.5h1.8zm-3.8 14.1l-5.1 18.7h-1.6c-1.1-14.5-1.6-30.3-.6-32.8h7.2v14.1zm0 7.7v10.2h.1v.8h-3.1l3-11zm12 8.8l.4 2.2h-2.7l2.3-2.2zm5.4-5l4.4-4 .6 6.8-4.6 4.4h-1.2l.8-7.2zm5.2 5.3l.2 1.9h-2.1l1.9-1.9zm4.3-4l6.2-5.9 1.9 11.8h-8.8l.7-5.9zm13.3-12.6l4-3.8 5.5 22.1c0 .1 0 .1.1.2h-10.9l1.3-18.5zm14.3 18l2.8-30.5 3.7 30.6c0 .1 0 .3.1.4h-6.7l.1-.5zm10.5.1l4-31.6c.1-.4.4-.5.5-.5.1 0 .5 0 .6.4l8 32h-13.2c.1 0 .1-.2.1-.3zm16.6-31.4l7.9 31.8h-7.5v-.3l-.4-31.5zm11.8 30.8v-9.7l.9 10.6v.1h-1.2c.2-.4.3-.7.3-1zm9-31.1c0-.1 0-.3.3-.2.3 0 .3.2.3.3l2.4 31.4c0 .2.1.4.2.6h-7.4l4.2-32.1zm7 31.6l4.9-31.7c0-.1.1-.2.3-.2.3 0 .3.2.3.3l5.2 31.6.1.5h-11l.2-.5zm16.6.5v-29.2l.2-3c0-.1 0-.2.3-.3.3 0 .3.2.3.2l5.9 25.5v6.8h-6.7zm12.1 2.7zm2.9 0h14.1v5.9h-17.1v-3.1l3-2.8zm-4.9 5.9h-1.3l1.3-1.2v1.2zm0 2v12.4h-16.7l14-13.2v.7h2.7zm2 29.6h23v12.8h-5.9v-5.1c0-1-.8-1.8-1.8-1.8h-15.3v-5.9zm15 7.9v4.9h-15v-4.9h15zm0 6.9v12.8h-15v-12.8h15zm0 14.7v12.8h-15v-12.8h15zm0 14.8v12.8h-15v-12.8h15zm2 0h5.9v12.8h-5.9v-12.8zm8 46.3v-70.5l4.6-.3v64.6c0 1 .8 1.8 1.8 1.8h11.6c.5 0 1-.3 1.4-.7h49.3v-.4c.4.1.8 0 1.2-.3l.4-.3c.2 1.1 1.2 2 2.3 2h17.9c1.3 0 2.4-1.1 2.4-2.4 0-.7-.3-1.3-.8-1.8l-6.1-5.7c-.1-.1-.1-.2-.1-.3v-60.7c.2-.2.8-.9 3.3-2.6 1.7-1.2 2.4-2.4 2.2-3.5-.2-1.4-1.6-1.9-1.8-1.9-.2 0-.4-.3-.5-.4l-1.7-3.2.1-.4v-15.7c0-1-.8-1.8-1.8-1.8h-12.3c-.1 0-.3-.1-.3-.2l-1.8-2.7c-.1-.2-.2-.6-.2-.8v-4.8h24.9v113h-96zm92.1-633.9c1 0 1.8-.8 1.8-1.8v-6.6c0-1-.8-1.8-1.8-1.8h-274.2v-6.1h274.8c1 0 1.8-.8 1.8-1.8v-2c0-1-.8-1.8-1.8-1.8h-271.9v-3.9h275.1v143.9h-10.8c.4-.4.8-.8 1.3-1.2.6-.5 1.3-1 1.9-1.6 1.6-1.3 2.3-2.6 2.1-3.9-.3-1.8-2.1-2.6-2.3-2.7-.1-.1-.4-.3-.4-.4l-2.5-6.5h7c1 0 1.8-.8 1.8-1.8v-4.4c0-1-.8-1.8-1.8-1.8h-153.1l3.6-3.3h146.8c1 0 1.8-.8 1.8-1.8v-3.8c0-1-.8-1.8-1.8-1.8h-13.4v-51.7h5.3l1.3 44.9c0 .9.8 1.7 1.8 1.7h3.1c1 0 1.8-.8 1.8-1.8v-45.1c0-1-.8-1.8-1.8-1.8h-11.4v-5.1c0-.4.3-.7.7-.7h9.1c1.5 0 2.7-1.2 2.7-2.7v-3.1c0-1-.5-1.9-1.4-2.4-.9-.5-1.9-.4-2.7.1-.3.2-.7.1-.9-.2l-1.8-2.6c-.5-.7-1.3-1.1-2.2-1.1h-9.3c-.6 0-1.2.2-1.7.6v-.6l-222.8 2v.2c-.2-.1-.5-.2-.7-.2h-5.7c-.2 0-.7-.1-.9-.2l-5.9-3.2c-.5-.3-1.3-.5-1.9-.5h-7.6c-.6 0-1.1.1-1.6.4l-2.1-10.1h272.6zm-8.6 31.4h3.9v44.7h-2.7l-1.2-44.7zm-257 479.3l-12.6 4.5v-430h7.5c1 0 1.8-.8 1.8-1.8v-57c0-.5 0-1.2-.1-1.6l-1.2-10.6-.1-.2c-.3-.5-.4-1.1-.1-1.6.3-.5.8-.8 1.3-.8h7.6c.2 0 .7.1.9.2l5.9 3.2c.5.3 1.3.5 1.9.5h5.3l-1.6 9.8h-15.5c-1 0-1.8.8-1.8 1.8v45.8c0 1 .8 1.8 1.8 1.8h2.4c1 0 1.8-.8 1.8-1.8v-41.5h2.6v47.5c0 1 .8 1.8 1.8 1.8h60.9c1 0 1.8-.8 1.8-1.8v-9.7h7.2v6.4c0 1 .8 1.8 1.8 1.8h5.1c1 0 1.8-.8 1.8-1.8v-6.4h1.9v12.3c0 1 .8 1.8 1.8 1.8h3.6l-5.7 5.2h-97.9c-1 0-1.8.8-1.8 1.8v3.8c0 1 .8 1.8 1.8 1.8h90l-5.7 5.2h-72c-1.1 0-2.2.7-2.7 1.7l-2 4.4c-.2.4-.2.8-.2 1.2 0 1 .5 1.9 1.3 2.4s1.8.6 2.7.2l4.9-2.1c.4-.2.9 0 1.2.4l2 3.9c.2.3.1.7-.1.9-.9 1.2-1.8 2.6-2.6 3.9h-.5c-2.7 0-4.9 2.2-4.9 4.9 0 2.2-.5 5.5-.8 8-.3 2-.5 3.6-.5 4.4 0 2.5 2.8 4.2 3.1 4.4.1.1.2.1.3.1l-1.2 22.3c0 .5.1.9.5 1.3.3.3.8.5 1.2.5h119.2l-2.1 1.9h-114.8c-.5 0-1 .2-1.3.6-.3.4-.4.9-.3 1.4l5.5 21.5c.2.8 1 1.5 1.9 1.5h60l-9.2 5c-.2.1-.7.2-.9.2h-46.3c-.5 0-.9.2-1.2.5-.3.3-.5.8-.5 1.2v28.1c-.1.2-.2.5-.2.8v16.6h-9.9c-1 0-1.8.8-1.8 1.8v33.2c0 1 .8 1.8 1.8 1.8h9.9v75.5h-.3v.2h-11.7c-1 0-1.8.8-1.8 1.8v28.8l.6 7.4-.2.2c-.3.4-.2 1 0 1.5l7.8 13.8c.1.1.2.2.2.3v58.7h-7.5c-.4 0-.7.2-1 .5-2.3 2.5-.6 27.2 0 34.7.1.9.9 1.7 1.8 1.7h13c.2 0 .4 0 .6-.1h6.6c.3.2.7.3 1.1.3h.1c.4 0 .7-.1 1-.3h109.8c.2.1.3.1.5.1h7.2c.2 0 .4 0 .5-.1h2.2l.3.1-.1.4v2.1l-19.6 18.4h-2.5l14.7-13.5c.7-.6.5-1.3.4-1.5-.1-.2-.4-.8-1.3-.8h-136.3l-1.8.5zm116.9 1.7h19.5l-15 13.8h-20.1l15.6-13.8zm-49 16.5c-.3-.3-.7-.7-.9-1l-2.4-3.3c-.2-.3-.3-.8-.1-1.1.2-.4.6-.6 1-.6h19.6c.6 0 .9.5 1 .6.1.1.3.7-.2 1.2l-1.1 1.2c-.4.4-.5 1-.3 1.5s.7.8 1.3.8h10.2l-17 15h-7.4v-9.4c0-.7-.3-1.5-.8-2l-2.9-2.9zm-64.7.3l5.9-2.2c.7-.3 1.4-1 1.4-1.8l.5-4.4c0-.1.1-.2.1-.2l3.9-1.4c.3-.1.8-.2 1.1-.2.2 0 22.9-.6 29.4-.6 2 0 3.3.5 4.1 1.3.9 1 .7 2.3.7 2.4-.1.5-.1 1.2-.1 1.7v19.8c0 1 .8 1.8 1.8 1.8h17.7v3.5l-.1.1-1.9.8c-.8.3-1.3 1.2-1.2 2.1l.3 2.4-3.7 3.3v-5.4c0-1-.8-1.8-1.8-1.8h-58.1v-21.2zm57.8 23.3v6.6l-18.8 16.7h-29.7v-23.3h48.5zm-48.5 25.3h27.4l-10.7 9.5h-16.7v-9.5zm-2 25.5l-3.3 14.5v-28.6h3.3v14.1zm-7.8-14h2.5v30.1c0 .1 0 .3.1.4-1.3 0-2.3-.1-2.8-.2-.7-2.6-.4-17.2.2-30.3zm28.4 30.8c.4-.3.7-.7.8-1.3l.1-.6 8-7.5v3.8c0 .7.4 1.2.9 1.5l.4 2.8c.1.6.4 1 .8 1.3h-11zm38.4-.1l.9-3.8h10.4l.3 2.7c.1.4.2.8.5 1.1h-12.1zm77-.5c-2.9 0-6.2.1-9.8.1v-30.5c0-1-.8-1.8-1.8-1.8h-48.1v-20.7l16.4-15.4h19v17.7h-27.6v-6.1c0-.1.1-.4.2-.5l10.6-9.4-1.3-1.5-10.6 9.4c-.5.5-.9 1.3-.9 2v6.4c0 1 .8 1.8 1.8 1.8h28.1c1 0 1.8-.8 1.8-1.8v-18h22.3v4.9h-2.7v2h2.7v12.8h-2.7v2h2.7v12.8h-2.7v2h2.7v12.8h-2.7v2h2.7v12.7h-2.7v2h2.7v2.3zm2-4.3v-12.8h15v12.8h-15zm62.8 51.8c1.6-15.1 14.2-27 29.4-27.6 13.4-.5 26.5 3.7 37 12.1 3.4 2.7 5.4 6.8 5.4 11.2v13.3h-72.8l1-9zm71.9 11v90.7h-9.8v-85.3c0-1-.8-1.8-1.8-1.8h-61.4v-3.6h73zm-296.6-148.1l-2-2 6.7-.9v111.8c0 1 .8 1.8 1.8 1.8h218.1l-8.2 10.9c-.4.5-.7 1.3-.7 2v22.7c0 1 .8 1.8 1.8 1.8h4.2v3.6h-15.1v-30.4c0-1-.8-1.8-1.8-1.8h-204v-117.6c0-.6-.3-1.5-.8-1.9zm95 174h-6.7v-13.6h6.7v13.6zm.3-22.3h-94.5v-30.2h203.8v30.2h-109.3zm-12.6 29.9h5.2v33.9h-5.2v-33.9zm-2-.3v57.4h-9.3v-74.7c0-1-.8-1.8-1.8-1.8h-43.9c-1 0-1.8.8-1.8 1.8v74.7h-11.2v-85h68v27.6zm-83.8-59.8h1.9v30.2h-1.9v-30.2zm13.8 32.2v85h-9.8v-85h9.8zm15.2 85v-74.4h43.4v74.4h-43.4zm56.8 0v-21.2h5.4c1 0 1.8-.8 1.8-1.8v-34.4c0-1-.8-1.8-1.8-1.8h-5.4v-25.9h12.4v4.7h-6.9c-1 0-1.8.8-1.8 1.8v14.2c0 1 .8 1.8 1.8 1.8h6.9v62.7h-12.4zm19 0v-74.4h112.5v74.4h-112.5zm114.5 0v-74.7c0-1-.8-1.8-1.8-1.8h-113c-1 0-1.8.8-1.8 1.8v74.7h-2.7v-85h107.8c.3 0 .5-.1.8-.2v.2h16.1v85h-5.4zm7.5-85h61.1v85h-8.8v-74.7c0-1-.8-1.8-1.8-1.8h-43c-1 0-1.8.8-1.8 1.8v74.7h-5.9v-85zm7.9 85v-74.4h42.5v74.4h-42.5z"/></svg>