<?xml version="1.0" encoding="UTF-8" standalone="no"?>
<svg 
  version="1.1" 
  xmlns="http://www.w3.org/2000/svg" 
  xmlns:xlink="http://www.w3.org/1999/xlink" 
  xmlns:svg="http://www.w3.org/2000/svg"
  xmlns:rdf="http://www.w3.org/1999/02/22-rdf-syntax-ns#"
  xmlns:cc="http://creativecommons.org/ns#"
  xmlns:dc="http://purl.org/dc/elements/1.1/"
  viewBox="0 0 768 768"
  width="768"
  height="768"
>
<metadata id="metadata1">
Created by https://svgstud.io and licensed under CC-BY-SA 4.0 license. Please attribute https://svgstud.io
</metadata>
<metadata id="prompt">
coins on scales
</metadata>
<metadata id="version">
7
</metadata>
<metadata id="metadata2">
<rdf:RDF>
<cc:Work
    rdf:about="">
    <cc:license
    rdf:resource="http://creativecommons.org/licenses/by-sa/4.0/" />
    <dc:creator>
        <cc:Agent>
            <dc:title>https://svgstud.io</dc:title>
        </cc:Agent>
    </dc:creator>
</cc:Work>
<cc:License
    rdf:about="http://creativecommons.org/licenses/by-sa/4.0/">
    <cc:permits
    rdf:resource="http://creativecommons.org/ns#Reproduction" />
    <cc:permits
    rdf:resource="http://creativecommons.org/ns#Distribution" />
    <cc:requires
    rdf:resource="http://creativecommons.org/ns#Notice" />
    <cc:requires
    rdf:resource="http://creativecommons.org/ns#Attribution" />
    <cc:permits
    rdf:resource="http://creativecommons.org/ns#DerivativeWorks" />
    <cc:requires
    rdf:resource="http://creativecommons.org/ns#ShareAlike" />
</cc:License>
</rdf:RDF>
</metadata>
<metadata id="uid">
175dea1a4c924a55cecbaba96932b81387c3ba69f77e423b596784d2def381d6
</metadata>
<path stroke="none" fill="black" fill-rule="evenodd" d="M384.50,657.88C366.35,657.81 344.52,657.17 335.99,656.46C327.46,655.74 313.29,654.20 304.49,653.04C295.70,651.88 282.43,649.81 275.01,648.45C267.59,647.09 256.57,644.79 250.51,643.34C244.46,641.90 236.57,639.62 233.00,638.29C229.43,636.95 224.56,634.73 222.20,633.36C219.83,631.98 217.47,629.73 216.95,628.36C216.43,626.99 216.00,620.50 216.00,613.93C216.00,603.61 216.25,601.75 217.87,600.13C218.90,599.10 223.92,596.76 229.02,594.94C238.30,591.62 238.30,591.62 231.40,588.47C227.60,586.74 221.35,583.29 217.50,580.81C213.65,578.32 206.29,573.02 201.14,569.03C196.00,565.04 185.38,555.41 177.56,547.64C169.74,539.86 159.75,528.77 155.37,523.00C150.98,517.23 144.81,508.54 141.65,503.69C138.50,498.85 133.70,490.75 131.00,485.69C128.30,480.64 124.11,471.97 121.69,466.44C119.27,460.90 115.66,451.45 113.66,445.44C111.67,439.42 108.94,429.77 107.59,424.00C106.24,418.23 104.44,409.45 103.59,404.50C102.74,399.55 101.55,388.98 100.95,381.00C100.34,373.02 100.14,360.88 100.49,354.00C100.84,347.12 102.03,334.30 103.14,325.50C104.24,316.70 106.69,302.98 108.59,295.00C110.48,287.02 113.66,275.55 115.65,269.50C117.64,263.45 121.71,253.13 124.70,246.56C127.68,239.99 132.86,229.87 136.20,224.06C139.55,218.25 144.54,210.12 147.31,206.00C150.07,201.88 156.18,193.78 160.89,188.00C165.60,182.22 173.74,173.04 178.98,167.59C184.22,162.14 194.12,152.99 201.00,147.26C207.88,141.52 219.35,132.93 226.50,128.16C233.65,123.39 245.80,116.27 253.50,112.33C261.20,108.39 272.00,103.38 277.50,101.20C283.00,99.02 291.98,95.80 297.45,94.06C302.93,92.31 312.38,89.81 318.45,88.51C324.53,87.21 335.56,85.38 342.96,84.45C353.52,83.12 361.30,82.86 378.96,83.27C395.74,83.65 404.44,84.32 413.00,85.88C419.32,87.04 429.49,89.31 435.58,90.91C441.68,92.52 451.13,95.50 456.58,97.54C462.04,99.57 470.10,102.86 474.50,104.85C478.90,106.84 486.98,110.90 492.46,113.87C497.94,116.83 506.24,121.72 510.91,124.73C515.57,127.74 523.01,132.95 527.44,136.30C531.87,139.65 540.00,146.29 545.50,151.05C551.00,155.82 559.55,163.95 564.50,169.13C569.45,174.32 578.75,185.07 585.16,193.03C591.58,200.99 600.29,212.90 604.52,219.50C608.75,226.10 615.52,238.25 619.56,246.50C623.61,254.75 628.77,266.68 631.02,273.00C633.28,279.32 636.42,289.68 638.01,296.00C639.60,302.32 641.59,311.55 642.43,316.50C643.27,321.45 644.42,330.68 644.97,337.00C645.53,343.32 645.99,353.95 645.99,360.60C646.00,367.26 645.53,378.47 644.96,385.51C644.39,392.54 642.84,404.67 641.53,412.44C640.21,420.22 637.54,432.86 635.60,440.54C633.66,448.22 630.75,458.32 629.14,463.00C627.53,467.68 624.56,475.77 622.55,481.00C620.54,486.23 616.38,495.23 613.31,501.00C610.24,506.77 605.48,514.88 602.73,519.00C599.98,523.12 594.66,530.37 590.91,535.09C587.15,539.81 579.53,548.05 573.96,553.39C568.40,558.73 559.05,566.66 553.18,571.01C547.32,575.35 538.92,580.93 534.51,583.40C530.11,585.87 525.38,588.08 524.00,588.32C522.62,588.56 519.25,588.17 516.50,587.47C513.75,586.76 508.69,585.63 505.25,584.96C501.81,584.29 499.00,583.39 499.00,582.96C499.00,582.53 504.29,579.38 510.75,575.96C517.21,572.54 527.22,566.54 533.00,562.62C538.77,558.70 547.99,551.94 553.50,547.59C559.00,543.23 569.39,533.78 576.58,526.59C585.42,517.74 591.64,510.47 595.78,504.16C599.14,499.02 603.21,491.59 604.83,487.66C606.44,483.72 608.06,478.81 608.43,476.75C609.00,473.49 608.73,472.65 606.35,470.45C603.60,467.90 603.60,467.90 605.43,463.20C606.43,460.62 608.77,454.45 610.62,449.50C612.47,444.55 615.08,436.00 616.42,430.50C617.77,425.00 619.67,415.55 620.66,409.50C622.01,401.20 622.45,392.86 622.44,375.50C622.44,358.38 621.98,349.56 620.65,341.00C619.67,334.68 617.31,322.98 615.40,315.00C613.50,307.02 610.81,296.68 609.41,292.00C608.02,287.32 605.72,280.35 604.29,276.50C602.87,272.65 599.53,264.64 596.87,258.69C594.21,252.75 589.27,243.08 585.90,237.19C582.52,231.31 576.98,222.22 573.57,217.00C570.16,211.78 562.84,201.88 557.31,195.00C551.78,188.12 543.26,178.67 538.38,173.99C533.49,169.31 524.77,161.70 519.00,157.06C513.23,152.43 503.77,145.53 498.00,141.71C492.23,137.90 480.52,131.33 472.00,127.11C463.48,122.89 451.32,117.57 445.00,115.29C438.68,113.02 430.35,110.25 426.50,109.14C422.65,108.03 416.03,106.42 411.80,105.56C407.56,104.70 399.46,103.49 393.80,102.87C387.51,102.18 376.68,101.98 366.00,102.35C355.80,102.71 344.12,103.76 338.00,104.88C332.23,105.94 324.57,107.54 321.00,108.45C317.43,109.35 310.90,111.26 306.50,112.68C302.10,114.09 293.45,117.21 287.27,119.61C281.10,122.00 271.95,126.01 266.95,128.53C261.95,131.04 254.40,135.29 250.18,137.97C245.95,140.66 239.37,145.02 235.54,147.68C231.72,150.33 223.39,156.81 217.04,162.09C210.69,167.36 200.77,176.59 194.98,182.61C189.19,188.62 181.89,196.75 178.76,200.68C175.62,204.61 169.64,212.93 165.48,219.16C161.31,225.40 155.00,236.20 151.45,243.18C147.90,250.15 143.19,260.49 140.98,266.16C138.77,271.83 135.64,281.10 134.02,286.74C132.40,292.39 130.36,300.49 129.48,304.74C128.60,309.00 127.23,317.21 126.43,322.99C125.63,328.77 124.69,342.73 124.35,354.00C123.95,366.93 124.17,379.67 124.92,388.50C125.58,396.20 127.20,407.90 128.52,414.50C129.83,421.10 132.99,432.57 135.53,440.00C138.07,447.43 142.96,459.35 146.41,466.50C149.85,473.65 156.31,484.90 160.76,491.50C165.21,498.10 171.92,507.32 175.67,512.00C179.43,516.67 187.26,525.27 193.08,531.11C198.90,536.94 207.23,544.55 211.58,548.02C215.94,551.49 224.22,557.45 230.00,561.27C235.78,565.09 243.88,569.91 248.00,571.98C252.12,574.04 259.75,577.43 264.95,579.50C273.86,583.05 274.85,583.23 281.95,582.64C286.10,582.30 292.80,581.15 296.83,580.09C300.86,579.03 306.62,576.95 309.65,575.47C312.67,573.99 318.49,570.12 322.59,566.86C326.69,563.61 332.98,557.25 336.57,552.72C340.16,548.20 344.70,541.28 346.66,537.33C350.22,530.17 350.22,530.17 351.15,509.83C351.66,498.65 352.43,452.82 352.85,408.00C353.27,363.18 353.45,326.16 353.25,325.75C353.05,325.34 333.33,325.00 309.44,325.00C285.55,325.00 266.00,325.35 266.00,325.79C266.00,326.22 266.92,328.36 268.03,330.54C269.55,333.49 269.91,335.52 269.44,338.50C269.10,340.70 267.72,344.21 266.36,346.30C263.91,350.10 263.91,350.10 274.32,366.30C280.05,375.21 288.78,389.48 293.74,398.00C298.69,406.52 304.36,416.47 306.33,420.10C308.31,423.73 310.51,427.14 311.21,427.68C311.92,428.23 315.51,429.46 319.18,430.43C322.85,431.39 326.63,433.03 327.57,434.07C328.88,435.53 329.14,437.00 328.66,440.45C328.32,442.92 326.67,447.97 324.99,451.67C322.62,456.90 320.06,460.25 313.50,466.64C307.08,472.91 303.09,475.84 296.78,478.94C292.23,481.18 284.90,483.95 280.50,485.09C275.24,486.46 267.84,487.36 258.89,487.72C250.41,488.06 242.11,487.81 236.91,487.05C232.31,486.37 224.94,484.69 220.52,483.30C216.11,481.90 210.25,479.64 207.50,478.25C204.75,476.87 199.19,473.46 195.15,470.68C191.11,467.89 184.92,462.31 181.40,458.27C177.88,454.24 174.38,449.44 173.61,447.62C172.85,445.79 171.92,442.48 171.54,440.25C170.97,436.88 171.21,435.88 172.99,434.22C174.17,433.13 177.68,431.48 180.81,430.55C183.94,429.62 187.50,428.46 188.71,427.97C189.93,427.48 192.11,424.75 193.55,421.90C194.99,419.06 200.34,409.93 205.44,401.62C210.55,393.30 218.29,380.88 222.66,374.00C227.02,367.12 232.26,359.03 234.30,356.01C237.82,350.80 237.98,350.21 237.43,344.51C236.89,338.80 237.04,338.26 240.43,333.57C242.39,330.86 244.00,328.21 244.00,327.68C244.00,327.07 241.31,327.01 236.75,327.52C232.76,327.97 227.73,328.26 225.58,328.18C223.42,328.09 219.92,327.12 217.79,326.01C214.54,324.31 212.01,324.00 201.53,324.00C194.71,324.00 188.00,323.57 186.62,323.04C185.24,322.52 183.29,320.85 182.30,319.34C181.05,317.43 180.51,314.74 180.54,310.54C180.57,306.81 181.24,303.26 182.31,301.27C183.26,299.49 185.35,297.35 186.97,296.52C189.11,295.41 193.13,295.00 201.87,295.00C213.84,295.00 213.84,295.00 216.08,291.37C217.49,289.09 219.94,287.03 222.71,285.80C225.70,284.48 228.12,284.07 230.30,284.51C232.06,284.87 234.85,285.62 236.50,286.17C238.98,287.01 241.91,286.47 253.50,283.03C261.20,280.75 275.15,276.62 284.50,273.86C293.85,271.09 313.13,264.97 327.33,260.26C349.83,252.79 353.29,251.38 354.08,249.28C354.59,247.95 355.00,239.81 355.01,231.18C355.01,222.56 355.45,212.83 355.98,209.57C356.52,206.31 357.45,203.34 358.05,202.97C358.73,202.55 356.98,200.11 353.53,196.66C350.32,193.45 346.75,188.56 345.20,185.27C342.85,180.26 342.50,178.25 342.52,170.00C342.53,161.12 342.75,160.09 345.91,154.23C347.78,150.78 351.09,146.34 353.28,144.37C355.47,142.39 359.73,139.64 362.74,138.26C367.44,136.11 369.25,135.82 375.43,136.21C380.88,136.56 383.92,137.38 387.92,139.55C390.83,141.14 394.94,144.40 397.06,146.80C399.17,149.21 401.82,153.06 402.94,155.37C404.06,157.68 405.43,161.98 405.99,164.92C406.64,168.36 406.67,172.33 406.07,176.02C405.56,179.19 404.01,183.96 402.61,186.64C401.21,189.31 399.27,192.50 398.29,193.71C397.30,194.93 394.17,197.66 391.32,199.78C387.43,202.67 386.37,203.98 387.06,205.06C387.56,205.85 387.98,215.95 388.00,227.50C388.01,239.05 388.30,249.52 388.64,250.77C389.10,252.52 389.55,252.79 390.57,251.94C391.54,251.13 393.83,251.29 399.20,252.54C403.21,253.48 411.90,255.57 418.50,257.19C425.10,258.80 436.12,261.69 443.00,263.60C449.88,265.51 464.50,270.04 475.50,273.67C486.50,277.30 500.10,282.00 505.72,284.12C515.95,287.97 515.95,287.97 520.62,285.49C523.19,284.12 526.24,283.01 527.40,283.02C528.55,283.03 531.39,283.90 533.69,284.95C536.67,286.30 538.48,288.03 539.96,290.92C541.11,293.17 542.37,295.00 542.77,295.00C543.17,294.99 545.08,294.00 547.00,292.79C549.68,291.10 552.02,290.58 557.00,290.58C561.73,290.57 564.62,291.16 567.60,292.73C569.85,293.91 572.38,295.93 573.22,297.21C574.05,298.48 575.07,301.03 575.47,302.86C575.87,304.69 575.90,308.17 575.54,310.59C575.16,313.10 573.76,316.32 572.28,318.08C570.85,319.78 568.51,321.65 567.09,322.24C565.66,322.83 557.22,323.59 548.31,323.93C539.41,324.27 531.78,324.89 531.35,325.32C530.92,325.75 531.13,326.86 531.81,327.80C532.48,328.73 533.75,331.04 534.61,332.93C535.70,335.32 535.97,337.68 535.51,340.78C535.02,344.02 533.76,346.39 530.81,349.59C527.89,352.76 526.98,354.46 527.50,355.73C528.00,356.93 528.38,357.09 528.70,356.25C528.96,355.56 529.97,355.00 530.96,355.00C531.95,355.00 533.37,355.74 534.13,356.65C534.99,357.69 535.41,360.27 535.27,363.55C535.03,368.78 535.06,368.84 550.70,392.15C559.31,404.99 569.50,419.32 573.34,424.00C577.18,428.68 581.35,434.75 582.61,437.50C583.87,440.25 585.37,445.43 585.94,449.00C586.51,452.57 586.99,459.20 586.99,463.73C587.00,471.45 587.14,471.99 589.25,472.46C590.49,472.74 593.30,473.09 595.50,473.23C599.50,473.50 599.50,473.50 599.18,477.50C599.01,479.70 597.36,484.20 595.51,487.50C593.66,490.80 590.54,495.75 588.58,498.50C586.61,501.25 581.74,506.79 577.75,510.81C573.76,514.84 568.12,519.71 565.21,521.65C562.29,523.58 556.99,526.49 553.42,528.11C549.84,529.73 543.00,532.02 538.21,533.21C531.64,534.83 526.55,535.34 517.50,535.30C510.28,535.27 502.58,534.60 498.18,533.62C494.15,532.73 487.54,530.62 483.49,528.93C479.43,527.24 473.05,523.71 469.31,521.07C465.56,518.43 459.08,512.69 454.89,508.30C449.47,502.61 446.08,497.92 443.09,491.95C439.85,485.48 438.97,482.66 439.20,479.54C439.49,475.69 439.69,475.46 443.61,474.64C447.71,473.78 447.71,473.78 448.86,461.14C449.86,450.00 450.41,447.67 453.46,441.50C455.38,437.62 460.17,430.80 464.21,426.20C468.22,421.63 473.07,415.92 475.00,413.51C476.93,411.09 482.24,403.13 486.82,395.81C491.40,388.49 497.78,378.26 501.00,373.08C504.22,367.89 507.33,361.73 507.92,359.39C508.52,357.04 509.45,354.84 510.00,354.50C510.55,354.16 511.00,353.25 511.00,352.49C511.00,351.72 509.90,349.47 508.55,347.48C507.21,345.50 505.81,341.93 505.46,339.55C504.96,336.28 505.32,334.07 506.90,330.49C508.06,327.88 509.00,325.57 509.00,325.36C509.00,325.16 482.79,325.10 450.75,325.24C392.50,325.50 392.50,325.50 392.55,391.00C392.58,427.02 393.17,470.90 393.85,488.50C394.54,506.10 395.50,523.08 395.99,526.22C396.48,529.37 397.69,533.64 398.67,535.72C399.65,537.79 404.08,543.09 408.50,547.49C412.92,551.90 420.69,558.42 425.76,562.00C430.83,565.58 439.90,571.04 445.90,574.14C451.90,577.24 459.74,580.75 463.32,581.94C466.90,583.13 477.18,585.40 486.16,586.99C495.15,588.58 505.88,590.59 510.00,591.45C514.12,592.32 521.24,594.21 525.80,595.65C530.37,597.09 535.54,599.24 537.30,600.42C539.82,602.12 540.64,603.52 541.18,607.04C541.55,609.49 541.89,615.41 541.93,620.18C541.97,624.96 541.57,630.01 541.04,631.39C540.51,632.78 538.36,635.06 536.25,636.45C534.15,637.84 528.47,640.32 523.64,641.95C518.81,643.59 510.72,645.81 505.68,646.90C500.63,647.98 490.88,649.77 484.00,650.87C477.12,651.97 465.65,653.57 458.50,654.43C451.35,655.29 439.20,656.45 431.50,657.00C423.80,657.54 402.65,657.94 384.50,657.88zM376.50,648.44C399.50,648.23 414.54,647.63 423.00,646.58C429.88,645.73 440.23,644.32 446.00,643.46C451.77,642.60 462.37,640.80 469.54,639.46C476.72,638.12 488.24,635.47 495.16,633.57C502.07,631.68 511.40,628.71 515.88,626.98C520.37,625.26 525.38,622.71 527.02,621.33C528.66,619.95 530.00,617.96 530.00,616.91C530.00,615.86 529.74,615.00 529.43,615.00C529.12,615.00 524.51,616.10 519.18,617.45C513.86,618.80 504.32,620.81 498.00,621.92C491.68,623.02 479.52,624.83 471.00,625.93C462.48,627.04 449.65,628.52 442.50,629.22C434.09,630.05 414.31,630.49 386.50,630.46C351.90,630.43 340.76,630.08 329.50,628.68C321.80,627.73 310.10,626.04 303.50,624.93C296.90,623.82 284.30,621.32 275.50,619.38C266.70,617.43 252.85,613.63 244.72,610.92C236.58,608.21 229.48,606.00 228.93,606.00C228.31,606.00 228.04,610.23 228.22,617.23C228.50,628.45 228.50,628.45 235.77,631.24C239.76,632.78 248.31,635.36 254.77,636.99C261.22,638.61 271.90,640.87 278.50,641.99C285.10,643.12 299.27,644.93 310.00,646.01C320.73,647.09 332.43,648.14 336.00,648.35C339.57,648.57 357.80,648.60 376.50,648.44zM351.00,615.85C369.98,615.93 393.82,615.54 404.00,614.98C414.18,614.41 429.48,613.28 438.00,612.45C446.52,611.62 458.23,610.27 464.00,609.45C469.77,608.63 475.51,607.74 476.75,607.46C477.99,607.19 479.00,606.59 479.00,606.14C479.00,605.69 476.86,604.14 474.25,602.70C471.64,601.26 466.35,597.63 462.50,594.63C458.65,591.63 447.18,583.51 437.00,576.59C426.82,569.66 415.26,561.18 411.30,557.75C407.34,554.31 401.92,548.77 399.25,545.43C396.57,542.08 393.87,538.03 393.24,536.43C392.61,534.82 391.54,531.48 390.86,529.00C389.63,524.50 389.63,524.50 388.24,535.94C386.85,547.38 386.85,547.38 390.68,554.93C393.47,560.44 397.10,565.18 404.10,572.49C409.38,577.99 414.22,583.48 414.85,584.68C415.48,585.89 416.00,588.27 416.00,589.98C416.00,591.92 415.11,593.98 413.63,595.46C412.33,596.76 409.49,598.73 407.32,599.83C405.15,600.94 400.71,602.53 397.44,603.36C394.17,604.20 385.45,605.36 378.05,605.94C370.65,606.52 359.18,607.00 352.55,607.00C345.92,607.00 334.43,606.53 327.00,605.97C319.57,605.40 304.27,603.79 293.00,602.38C276.71,600.34 269.62,599.91 258.50,600.27C250.80,600.52 243.71,601.06 242.75,601.47C241.79,601.88 241.00,602.64 241.00,603.16C241.00,603.68 242.62,604.78 244.59,605.60C246.57,606.43 252.31,607.96 257.34,609.01C262.38,610.06 271.95,611.63 278.62,612.49C285.29,613.36 296.54,614.44 303.62,614.89C310.70,615.34 332.02,615.77 351.00,615.85zM317.00,582.97C318.38,582.97 322.55,582.32 326.27,581.53C329.99,580.74 335.72,578.67 338.99,576.93C342.26,575.18 347.42,571.22 350.46,568.13C353.49,565.03 357.13,560.80 358.54,558.72C359.96,556.64 362.28,551.92 363.71,548.22C366.20,541.77 366.33,540.34 367.07,513.00C367.50,497.32 368.05,449.05 368.30,405.72C368.75,328.84 368.71,326.92 366.84,325.92C365.79,325.35 364.08,325.16 363.05,325.48C361.46,325.99 361.10,327.45 360.62,335.29C360.32,340.35 359.64,386.35 359.11,437.50C358.28,519.27 357.96,531.35 356.47,537.50C355.54,541.35 353.48,546.98 351.88,550.00C350.29,553.02 346.53,558.25 343.53,561.62C340.53,564.98 335.02,569.76 331.29,572.23C327.55,574.70 322.25,578.13 319.50,579.85C315.24,582.51 314.87,582.98 317.00,582.97zM524.14,517.76C533.13,517.46 534.33,517.16 542.14,513.28C547.58,510.57 553.64,506.35 559.50,501.20C564.45,496.84 569.62,492.04 571.00,490.52C573.50,487.76 573.50,487.76 567.50,488.27C564.20,488.56 555.53,489.36 548.22,490.07C538.50,491.01 534.65,491.05 533.84,490.24C533.03,489.43 533.05,487.86 533.92,484.39C534.58,481.79 535.03,475.97 534.92,471.46C534.81,466.95 535.04,462.75 535.42,462.13C535.80,461.51 536.99,461.00 538.06,461.00C539.13,461.00 540.00,460.66 540.00,460.25C540.00,459.83 537.79,455.73 535.08,451.13C531.84,445.64 529.97,441.18 529.61,438.13C529.30,435.59 528.78,428.10 528.45,421.50C527.86,410.07 527.68,409.26 524.53,404.50C521.47,399.87 521.17,398.69 520.54,388.64C520.16,382.66 519.49,376.81 519.04,375.64C518.32,373.74 518.15,373.90 517.60,377.00C517.26,378.93 516.49,385.90 515.88,392.50C515.28,399.10 514.57,413.09 514.30,423.59C513.82,442.69 513.82,442.69 517.91,450.82C520.16,455.30 522.00,459.82 522.00,460.87C522.00,462.08 521.08,463.01 519.50,463.41C517.07,464.02 517.00,464.27 517.00,473.00C517.00,478.99 517.55,483.32 518.65,486.08C520.05,489.58 520.09,490.34 518.90,491.15C518.10,491.69 510.64,491.94 501.50,491.73C488.48,491.42 482.29,490.72 468.27,487.99C458.80,486.14 450.73,484.93 450.36,485.31C449.98,485.69 449.94,486.28 450.28,486.62C450.62,486.95 454.41,488.04 458.70,489.02C462.99,490.00 469.11,491.34 472.30,491.99C477.89,493.12 478.28,493.41 483.11,500.06C485.87,503.85 489.29,507.87 490.72,508.99C492.14,510.11 493.49,510.84 493.72,510.62C493.94,510.39 493.68,507.80 493.14,504.85C492.60,501.91 492.46,499.21 492.83,498.86C493.20,498.51 497.55,499.54 502.50,501.16C507.45,502.78 513.98,504.57 517.00,505.15C520.02,505.72 523.17,506.62 524.00,507.15C525.00,507.80 522.68,507.97 517.00,507.68C511.79,507.41 506.95,506.54 504.50,505.43C502.30,504.44 499.71,503.27 498.75,502.84C497.79,502.41 497.00,502.45 497.00,502.92C497.00,503.40 499.13,506.15 501.73,509.04C504.33,511.94 508.27,515.15 510.48,516.19C513.74,517.72 516.32,518.01 524.14,517.76zM507.00,482.61C511.50,482.50 511.50,482.50 512.18,472.00C512.55,466.23 513.17,460.04 513.54,458.25C514.06,455.82 513.88,455.00 512.84,455.00C512.07,455.00 508.21,458.27 504.24,462.26C498.21,468.33 496.90,470.25 496.22,474.01C495.78,476.48 495.57,479.26 495.77,480.19C495.99,481.23 497.35,482.05 499.31,482.30C501.07,482.53 504.52,482.67 507.00,482.61zM486.11,480.88C488.60,480.99 488.75,480.71 489.27,474.93C489.64,470.88 490.63,467.65 492.26,465.18C493.61,463.16 496.80,459.05 499.36,456.05C501.92,453.06 504.91,448.75 506.01,446.49C507.49,443.41 508.00,440.32 508.00,434.27C508.00,426.34 507.95,426.19 505.75,426.84C504.51,427.20 499.69,429.52 495.03,432.00C489.36,435.01 484.15,438.85 479.29,443.59C474.42,448.36 471.18,452.55 469.43,456.37C467.38,460.86 466.80,463.78 466.67,470.27C466.50,478.50 466.50,478.50 475.00,479.63C479.68,480.25 484.68,480.81 486.11,480.88zM544.36,480.98C546.09,480.97 551.94,480.33 557.37,479.56C562.79,478.79 567.66,477.74 568.17,477.23C568.68,476.72 568.97,473.42 568.80,469.90C568.51,463.76 568.40,463.51 566.00,463.70C564.62,463.82 558.49,464.22 552.36,464.60C541.21,465.29 541.21,465.29 540.77,471.90C540.52,475.53 540.52,479.06 540.77,479.75C541.01,480.44 542.63,480.99 544.36,480.98zM457.08,477.00C458.70,477.00 459.00,476.27 459.01,472.25C459.01,469.64 459.47,464.57 460.03,461.00C460.59,457.43 462.58,451.35 464.46,447.50C466.34,443.65 470.16,437.95 472.94,434.84C475.73,431.72 481.46,426.57 485.68,423.40C489.90,420.22 492.82,417.44 492.16,417.22C491.51,417.00 488.09,418.18 484.56,419.83C481.03,421.48 476.12,424.69 473.65,426.97C471.18,429.24 467.36,433.44 465.16,436.30C462.96,439.16 460.01,443.80 458.60,446.60C456.82,450.16 455.71,454.66 454.96,461.43C454.36,466.77 454.16,472.46 454.52,474.07C454.95,476.07 455.77,477.00 457.08,477.00zM576.75,475.80C578.32,475.49 578.49,474.07 578.38,461.98C578.28,450.77 577.89,447.55 576.09,442.85C574.90,439.74 572.40,435.20 570.54,432.75C568.67,430.31 564.08,426.24 560.32,423.70C555.85,420.67 550.92,418.38 546.02,417.04C541.91,415.92 537.52,415.00 536.27,415.00C534.45,415.00 534.00,415.55 534.00,417.82C534.00,420.37 534.54,420.80 539.75,422.44C542.91,423.43 547.60,425.30 550.16,426.59C552.73,427.89 557.48,431.40 560.71,434.39C563.95,437.39 567.83,442.11 569.34,444.89C570.86,447.67 572.74,452.99 573.53,456.72C574.32,460.45 574.97,466.35 574.98,469.82C575.00,475.31 575.23,476.10 576.75,475.80zM262.50,464.48C271.85,464.27 283.39,463.43 288.15,462.64C292.90,461.84 298.75,460.28 301.15,459.16C303.54,458.05 306.62,456.22 308.00,455.09C310.46,453.07 310.47,453.04 308.30,453.02C307.10,453.01 299.90,453.96 292.30,455.14C281.95,456.75 273.75,457.30 259.50,457.34C245.66,457.38 237.92,456.92 231.00,455.67C225.78,454.72 216.88,452.84 211.24,451.49C205.59,450.14 196.82,447.28 191.74,445.15C186.66,443.01 181.71,441.28 180.75,441.30C179.79,441.32 179.00,441.85 179.00,442.47C179.00,443.10 180.46,445.02 182.25,446.74C184.04,448.46 188.20,451.20 191.50,452.83C194.80,454.45 200.88,456.70 205.00,457.82C209.12,458.94 216.10,460.57 220.50,461.43C224.90,462.29 232.32,463.42 237.00,463.94C241.68,464.45 253.15,464.70 262.50,464.48zM556.00,457.41C560.12,457.05 564.27,456.35 565.21,455.86C566.29,455.30 566.70,454.33 566.30,453.23C565.96,452.28 564.27,449.36 562.55,446.74C560.82,444.12 557.06,440.21 554.19,438.05C551.33,435.90 546.49,433.21 543.45,432.07C540.41,430.93 537.27,430.00 536.46,430.00C535.40,430.00 535.00,431.20 535.00,434.35C535.00,437.46 535.78,439.83 537.75,442.68C539.26,444.87 542.30,449.23 544.50,452.37C548.50,458.07 548.50,458.07 556.00,457.41zM246.35,447.88C257.21,448.00 257.21,448.00 256.84,404.25C256.60,375.90 256.10,359.86 255.41,358.69C254.51,357.15 253.10,359.25 246.31,372.19C241.89,380.61 233.79,395.38 228.30,405.00C222.81,414.62 216.19,426.43 213.59,431.24C210.98,436.04 208.44,440.23 207.93,440.55C207.42,440.86 207.00,441.72 207.00,442.45C207.00,443.19 207.79,444.11 208.75,444.50C209.71,444.90 216.12,445.79 223.00,446.49C229.88,447.19 240.38,447.82 246.35,447.88zM274.89,447.47C280.73,447.08 285.84,446.56 286.25,446.32C286.66,446.08 287.00,444.81 287.00,443.51C287.00,442.20 286.59,440.04 286.08,438.71C285.45,437.04 282.34,434.83 276.17,431.64C271.23,429.09 266.52,427.00 265.72,427.00C264.58,427.00 264.15,428.94 263.79,435.75C263.53,440.56 263.54,445.33 263.80,446.34C264.24,448.03 265.10,448.12 274.89,447.47zM299.92,446.59C302.35,446.26 304.49,445.85 304.67,445.67C304.85,445.49 303.64,442.84 301.98,439.78C300.32,436.72 298.32,433.68 297.53,433.02C296.35,432.04 295.99,432.25 295.61,434.16C295.34,435.45 294.89,438.58 294.60,441.12C294.31,443.66 294.39,446.07 294.79,446.47C295.18,446.86 297.49,446.92 299.92,446.59zM309.85,444.60C312.24,444.24 315.78,443.28 317.72,442.47C320.69,441.23 321.05,440.76 320.00,439.50C319.32,438.67 317.88,438.00 316.81,438.00C315.74,438.00 313.21,439.21 311.18,440.69C309.16,442.18 307.05,443.81 306.50,444.32C305.88,444.90 307.14,445.01 309.85,444.60zM199.29,441.67C199.72,441.02 209.55,423.85 221.13,403.50C232.71,383.15 243.95,363.02 246.09,358.77C248.24,354.52 250.00,350.81 250.00,350.52C250.00,350.23 249.18,350.00 248.19,350.00C247.19,350.00 245.20,351.24 243.77,352.75C242.33,354.26 238.06,360.23 234.27,366.00C230.48,371.77 224.43,381.23 220.83,387.00C217.23,392.77 212.00,401.32 209.20,406.00C206.41,410.68 202.72,417.65 201.00,421.50C199.27,425.35 197.00,430.42 195.93,432.78C194.87,435.13 194.00,437.96 194.00,439.06C194.00,440.21 194.96,441.44 196.25,441.95C197.75,442.54 198.76,442.44 199.29,441.67zM285.18,427.97C285.56,427.99 286.16,427.06 286.53,425.90C286.90,424.75 286.90,421.83 286.54,419.43C286.06,416.19 285.15,414.53 283.03,413.02C281.46,411.90 276.67,409.19 272.38,407.00C268.05,404.79 264.20,403.40 263.73,403.87C263.26,404.34 263.18,407.49 263.56,410.85C264.26,416.97 264.26,416.97 274.38,422.46C279.94,425.47 284.81,427.95 285.18,427.97zM554.29,410.93C554.72,410.97 554.59,410.21 553.99,409.25C553.40,408.29 547.39,399.40 540.65,389.50C533.90,379.60 527.58,371.35 526.62,371.17C524.98,370.85 524.91,371.89 525.56,386.66C525.95,395.37 526.35,402.61 526.45,402.74C526.56,402.87 530.88,404.07 536.07,405.41C541.26,406.75 547.30,408.52 549.50,409.35C551.70,410.18 553.85,410.89 554.29,410.93zM488.10,409.82C488.87,409.62 494.11,407.96 499.75,406.15C508.11,403.45 510.08,402.44 510.44,400.67C510.68,399.48 511.17,394.45 511.51,389.51C511.86,384.56 512.56,378.33 513.07,375.65C513.57,372.98 513.72,370.36 513.39,369.83C513.06,369.28 512.00,369.60 510.92,370.57C509.89,371.51 506.03,377.50 502.34,383.89C498.66,390.27 493.91,398.08 491.80,401.23C489.68,404.38 487.67,407.69 487.33,408.58C486.91,409.67 487.17,410.08 488.10,409.82zM283.75,404.94C284.44,404.98 284.99,404.44 284.98,403.75C284.97,403.06 284.09,400.59 283.03,398.25C281.97,395.92 279.67,391.87 277.91,389.25C276.16,386.64 272.44,382.14 269.64,379.25C266.85,376.36 264.22,374.00 263.78,374.00C263.35,374.00 263.00,377.32 263.00,381.38C263.00,385.43 263.27,390.11 263.61,391.78C264.09,394.19 265.06,395.13 268.36,396.39C270.64,397.26 274.75,399.53 277.50,401.43C280.25,403.33 283.06,404.91 283.75,404.94zM633.89,384.00C634.31,384.00 635.26,382.89 635.98,381.53C636.71,380.18 637.66,379.29 638.10,379.56C638.54,379.83 639.26,378.36 639.70,376.28C640.14,374.20 640.50,362.60 640.49,350.50C640.49,333.75 640.05,326.00 638.67,318.00C637.66,312.23 635.55,302.31 633.98,295.97C632.40,289.63 629.25,279.05 626.97,272.47C624.69,265.89 620.08,254.91 616.71,248.07C613.35,241.24 606.70,229.76 601.93,222.57C597.16,215.38 589.65,205.42 585.24,200.43C580.82,195.45 575.93,190.51 574.36,189.46C572.79,188.42 570.23,187.48 568.68,187.39C567.12,187.30 565.63,187.81 565.35,188.52C565.08,189.24 565.58,191.22 566.46,192.93C567.35,194.64 572.49,202.67 577.88,210.77C583.28,218.87 590.42,230.46 593.76,236.51C597.09,242.57 601.02,250.22 602.50,253.51C603.98,256.81 607.88,265.79 611.16,273.47C614.44,281.16 618.64,292.44 620.49,298.55C622.34,304.65 624.78,314.56 625.91,320.57C627.04,326.58 628.42,335.77 628.99,341.00C629.55,346.23 630.43,357.58 630.94,366.24C631.45,374.89 632.15,382.43 632.49,382.99C632.84,383.54 633.47,384.00 633.89,384.00zM522.12,363.94C523.25,363.33 525.27,363.10 526.59,363.43C527.92,363.77 529.00,363.84 529.00,363.60C529.00,363.36 529.25,362.52 529.55,361.72C530.00,360.55 529.18,360.37 525.16,360.76C520.75,361.18 520.13,361.00 519.52,359.06C518.97,357.33 518.55,357.13 517.42,358.07C516.64,358.72 516.00,359.64 516.00,360.12C516.00,360.61 516.91,361.91 518.02,363.02C519.67,364.67 520.43,364.84 522.12,363.94zM516.92,346.00C517.30,346.00 518.45,345.39 519.47,344.64C521.17,343.40 521.25,342.51 520.42,334.39C519.73,327.72 519.14,325.50 518.05,325.50C517.26,325.50 515.31,327.98 513.73,331.00C511.65,334.98 511.01,337.33 511.43,339.50C511.75,341.15 512.95,343.29 514.11,344.25C515.27,345.21 516.54,346.00 516.92,346.00zM526.88,344.00C527.36,344.00 528.29,343.36 528.94,342.57C529.60,341.78 530.17,339.77 530.22,338.10C530.26,336.43 529.73,334.38 529.03,333.53C528.33,332.69 527.36,332.00 526.88,332.00C526.39,332.00 526.00,334.70 526.00,338.00C526.00,341.30 526.39,344.00 526.88,344.00zM261.49,341.01C262.25,340.38 263.15,338.58 263.50,337.00C263.89,335.21 263.52,332.98 262.50,331.01C261.61,329.28 260.43,328.02 259.87,328.21C259.31,328.40 258.83,328.88 258.80,329.29C258.77,329.70 259.05,332.76 259.43,336.09C260.00,341.08 260.36,341.95 261.49,341.01zM251.75,336.81C252.95,336.58 253.50,335.54 253.50,333.49C253.50,331.17 253.05,330.50 251.51,330.50C250.39,330.50 249.38,331.29 249.18,332.31C248.99,333.30 249.09,334.80 249.41,335.63C249.73,336.47 250.78,337.00 251.75,336.81zM206.16,310.00C219.74,310.00 221.01,309.84 221.96,308.07C222.53,307.00 223.00,304.08 223.00,301.57C223.00,298.49 223.42,297.00 224.30,297.00C225.01,297.00 226.14,297.54 226.80,298.20C227.46,298.86 228.00,301.56 228.00,304.20C228.00,306.84 228.35,309.00 228.77,309.00C229.20,309.00 230.59,305.92 231.88,302.16C233.16,298.39 234.04,294.47 233.85,293.44C233.65,292.41 232.30,290.91 230.86,290.09C228.51,288.77 227.96,288.80 225.67,290.30C224.26,291.22 222.21,294.01 221.11,296.49C219.11,301.00 219.11,301.00 205.26,301.00C195.81,301.00 191.02,301.38 190.20,302.20C189.54,302.86 189.00,304.34 189.00,305.50C189.00,306.66 189.54,308.14 190.20,308.80C191.02,309.62 196.01,310.00 206.16,310.00zM533.90,307.00C534.41,304.17 534.72,303.81 535.52,305.10C536.29,306.37 539.06,306.85 548.51,307.37C558.55,307.92 560.88,307.77 562.76,306.46C563.99,305.59 565.00,303.94 565.00,302.77C565.00,301.61 564.26,299.83 563.35,298.83C562.43,297.82 560.69,297.00 559.47,297.00C558.24,297.00 555.63,297.68 553.65,298.50C551.63,299.35 547.03,300.00 543.11,300.00C539.29,300.00 535.45,300.27 534.58,300.61C533.42,301.05 533.04,302.46 533.13,305.86C533.26,310.32 533.29,310.36 533.90,307.00zM375.68,308.46C452.58,308.00 517.97,307.59 520.98,307.55C526.17,307.48 526.51,307.32 527.35,304.49C527.84,302.85 529.18,299.33 530.32,296.68C532.11,292.56 532.20,291.74 530.95,290.95C530.15,290.44 528.68,290.02 527.68,290.02C526.69,290.01 525.06,290.43 524.08,290.96C522.60,291.75 522.37,292.82 522.79,297.12C523.25,301.96 523.15,302.26 521.39,301.41C520.29,300.88 463.91,300.39 386.50,300.23C313.35,300.08 249.68,300.30 245.00,300.73C236.50,301.50 236.50,301.50 236.18,305.39C235.86,309.29 235.86,309.29 375.68,308.46zM301.50,295.17C328.45,294.99 350.80,294.54 351.18,294.17C351.55,293.80 352.00,287.43 352.18,280.00C352.50,266.50 352.50,266.50 349.00,266.71C347.07,266.83 331.10,270.79 313.50,275.52C295.90,280.25 274.98,285.67 267.00,287.56C259.02,289.45 250.59,291.50 248.25,292.13C245.91,292.75 244.00,293.63 244.00,294.07C244.00,294.52 245.91,295.02 248.25,295.19C250.59,295.36 274.55,295.35 301.50,295.17zM364.28,294.81C367.50,294.50 367.50,294.49 368.15,287.50C368.51,283.65 368.86,263.55 368.92,242.83C369.04,205.17 369.04,205.17 365.45,203.98C363.48,203.33 361.71,202.96 361.52,203.15C361.32,203.34 360.84,222.90 360.44,246.60C360.04,270.31 360.01,290.92 360.39,292.41C360.98,294.75 361.51,295.08 364.28,294.81zM436.23,295.00C460.83,295.00 478.88,294.62 478.57,294.12C478.27,293.63 475.21,292.72 471.76,292.09C468.32,291.46 460.55,290.28 454.50,289.48C448.45,288.67 433.44,286.88 421.14,285.51C408.84,284.13 397.25,283.00 395.39,283.00C392.00,283.00 392.00,283.00 392.00,288.33C392.00,291.27 392.30,293.97 392.67,294.33C393.03,294.70 412.63,295.00 436.23,295.00zM512.83,293.93C513.57,293.97 513.99,293.47 513.78,292.83C513.56,292.18 509.36,290.14 504.44,288.30C499.52,286.45 488.15,282.47 479.16,279.45C470.18,276.42 454.33,271.50 443.95,268.51C433.57,265.52 420.22,262.15 414.29,261.02C408.35,259.89 400.35,258.86 396.50,258.73C389.50,258.50 389.50,258.50 389.50,262.00C389.50,265.44 389.57,265.50 394.00,265.75C396.48,265.88 403.00,266.47 408.50,267.06C414.00,267.65 423.00,269.03 428.50,270.14C434.00,271.25 443.68,273.51 450.00,275.16C456.32,276.82 469.38,280.67 479.00,283.73C488.62,286.79 499.88,290.32 504.00,291.58C508.12,292.83 512.10,293.89 512.83,293.93zM345.43,261.52C348.70,261.13 352.41,260.41 353.68,259.93C354.96,259.45 356.00,258.59 356.00,258.02C356.00,257.46 354.96,257.00 353.68,257.00C352.40,257.00 349.14,257.73 346.43,258.63C343.72,259.53 341.05,260.71 340.50,261.25C339.85,261.89 341.55,261.98 345.43,261.52zM368.50,189.96C370.15,189.97 373.23,189.51 375.35,188.92C377.47,188.33 381.15,186.06 383.53,183.86C386.24,181.37 388.44,178.16 389.43,175.26C390.29,172.72 391.00,168.90 391.00,166.76C391.00,164.63 390.50,160.89 389.88,158.45C389.23,155.85 387.14,152.17 384.83,149.54C382.33,146.71 379.53,144.68 377.19,144.04C375.16,143.47 372.15,143.02 370.50,143.03C368.85,143.04 365.48,143.96 363.00,145.08C360.52,146.20 357.00,148.55 355.16,150.31C353.33,152.06 350.96,155.17 349.91,157.21C348.67,159.62 348.00,162.95 348.01,166.71C348.02,170.69 348.76,174.09 350.39,177.60C351.70,180.40 354.14,183.68 355.82,184.87C357.49,186.06 360.36,187.69 362.18,188.48C364.01,189.27 366.85,189.94 368.50,189.96zM368.89,184.78C362.03,185.27 362.03,185.27 357.95,181.19C354.40,177.63 353.91,176.62 354.19,173.30C354.43,170.34 354.92,169.50 356.40,169.50C357.45,169.49 358.64,168.59 359.05,167.50C359.76,165.58 359.83,165.59 360.70,167.83C361.59,170.12 361.67,170.08 365.72,165.69C367.99,163.23 370.66,158.92 371.65,156.11C372.65,153.30 374.07,151.00 374.80,151.00C375.53,151.00 377.01,151.47 378.07,152.04C379.14,152.61 381.81,155.35 384.01,158.13C387.37,162.38 388.00,163.91 388.00,167.84C388.00,170.40 387.21,174.07 386.25,175.99C385.18,178.13 382.80,180.42 380.13,181.89C377.18,183.51 373.53,184.44 368.89,184.78z" />

</svg>